<svg xmlns="http://www.w3.org/2000/svg" xml:space="preserve" style="enable-background:new 0 0 45.8 55.7" viewBox="0 0 45.8 55.7"><path d="M12.2 8.6c5.5 4 9.2 10.5 9.2 17.8v17.5c-2.2-.7-4-1.5-5.4-2.7-2.5-2-3.8-5.5-3.8-13V8.6zm21.4 0v19.6c0 7.5-1.3 11-3.8 13-1.4 1.2-3.2 1.9-5.4 2.7V26.4c0-7.3 3.6-13.8 9.2-17.8z" style="fill-rule:evenodd;clip-rule:evenodd;fill:#e6000f"/><path d="M45.8 32.9V4.3c-3.3.2-6.5 1.1-9.2 2.5v23.7c0 15.7-11.5 16.2-13.7 16.2S9.2 46.1 9.2 30.4V6.7C6.5 5.3 3.3 4.4 0 4.2v28.6c0 13 10.3 22.9 22.9 22.9s22.9-9.8 22.9-22.8z" style="fill-rule:evenodd;clip-rule:evenodd;fill:#f07814"/><path d="M22.9 15.6c1.6-3.2 3.9-6.1 6.7-8.3-1.7-2.9-4-5.4-6.7-7.3-2.8 1.9-5.1 4.4-6.7 7.3 2.8 2.3 5.1 5.1 6.7 8.3" style="fill-rule:evenodd;clip-rule:evenodd;fill:#003741"/></svg>