<svg xmlns="http://www.w3.org/2000/svg" xml:space="preserve" id="Capa_1" x="0" y="0" version="1.1" viewBox="0 0 132.2 38.3"><style>.st0{fill:#7f4133}.st1{fill:#9a9016}</style><path d="M15.2 8.5h-.8V3.3c0-1.9 1.4-3.4 3.1-3.4h4.1c0 .1.9 8.6-6.4 8.6" class="st0"/><path d="M17.8 27.1c1.9.1 3.2 1.1 3.8 3v4.4c-1.8.5-4 .7-6.4.7-5.8 0-10-1.5-12.6-4.4C.9 28.7 0 26.1 0 22.9s.9-5.8 2.6-7.9c2.6-2.9 6.7-4.4 12.6-4.4 4.6 0 5.5-1.8 6.4-3.3v7.1c-.1 2.1-1 3.4-2.8 4.1-1.1.1-2.3.2-3.6.2-3.4 0-5.7.5-6.8 1.5-.7.6-1 1.5-1 2.7s.3 2.2 1 2.7c1.1 1 3.4 1.6 6.8 1.6 1 0 1.8 0 2.6-.1" class="st0"/><path d="M23.3 29.1c.1-2 .9-3.3 2.6-4l.2-.1c1.9-.6 3.4-1.2 4.4-1.7-.1 5.4-2.5 8.9-7.2 10.6zm7.2-11.2c-1.1 3.8-3.5 5.9-7.2 6V.2c4.8 1.8 7.2 3.9 7.2 9.5z" class="st1"/><path d="M43.2 30.2v-1.5q-1.05.3-2.4.3c-1 0-1.7.1-2.1.4-.2.2-.3.4-.3.8s.1.6.3.8c.3.3 1 .4 2.1.4s1.8-.1 2.1-.4c.2-.2.3-.4.3-.8m2.2 0c0 2.3-1.6 3.5-4.7 3.5q-2.7 0-3.9-1.2c-.5-.6-.8-1.3-.8-2.2s.3-1.6.8-2.2q1.2-1.2 3.9-1.2c1.1 0 1.8-.1 2.1-.4.2-.2.3-.4.3-.7s-.1-.6-.3-.8c-.3-.3-1.1-.4-2.1-.4h-.6v-2.2h.6c3.1 0 4.7 1.1 4.7 3.4zm29-2.3c0-1.2-.2-2-.6-2.6-.5-.7-1.3-1-2.6-1-1.2 0-2.1.3-2.5 1-.4.5-.6 1.4-.6 2.6v3.5h3.1c1.2 0 2.1-.3 2.6-1 .4-.5.6-1.3.6-2.5m2.3 0c0 3.8-1.8 5.8-5.4 5.8h-3.1v4.6h-2.3V27.9c0-3.9 1.8-5.8 5.4-5.8s5.4 2 5.4 5.8m-23.6 5.8c-3.9 0-5.8-1.4-5.8-4.2v-7.4h2.3v3.1h3.5v2.2h-3.5v2c0 .6.2 1.1.6 1.4.5.4 1.5.6 2.9.6zm56-9.3c-1.4 0-2.4.2-2.9.6-.4.3-.6.7-.6 1.4v7.4h-2.3v-7.4c0-2.8 1.9-4.2 5.8-4.2zm12.1 5.8c-.6 2.4-2.3 3.5-5.1 3.5-3.6 0-5.4-1.9-5.4-5.8 0-3.8 1.8-5.8 5.4-5.8 2.8 0 4.5 1.2 5.1 3.5h-2.4c-.4-.8-1.3-1.3-2.7-1.3-1.2 0-2.1.3-2.5 1-.4.5-.6 1.4-.6 2.6s.2 2 .6 2.6c.5.7 1.3 1 2.5 1 1.4 0 2.3-.4 2.7-1.3zm-31.5-2.3c0 3.8-1.8 5.8-5.4 5.8s-5.4-1.9-5.4-5.8v-5.8h2.3v5.8c0 1.2.2 2 .6 2.6.5.6 1.3 1 2.5 1s2.1-.3 2.5-1c.4-.5.6-1.4.6-2.6v-5.8h2.3zm-27.9 2.3v-1.5q-1.05.3-2.4.3c-1 0-1.7.1-2.1.4-.2.2-.3.4-.3.8s.1.6.3.8c.3.3 1 .4 2.1.4s1.8-.1 2.1-.4c.2-.2.3-.4.3-.8m2.3 0c0 2.3-1.6 3.5-4.7 3.5q-2.7 0-3.9-1.2c-.5-.6-.8-1.3-.8-2.2s.3-1.6.8-2.2q1.2-1.2 3.9-1.2c1.1 0 1.8-.1 2.1-.4.2-.2.3-.4.3-.7s-.1-.6-.3-.8c-.3-.3-1.1-.4-2.1-.4h-.6v-2.2h.6c3.1 0 4.7 1.1 4.7 3.4zm65.8 0v-1.5q-1.05.3-2.4.3c-1 0-1.7.1-2.1.4-.2.2-.3.4-.3.8s.1.6.3.8c.3.3 1 .4 2.1.4s1.8-.1 2.1-.4c.2-.2.3-.4.3-.8m2.3 0c0 2.3-1.6 3.5-4.7 3.5q-2.7 0-3.9-1.2c-.5-.6-.8-1.3-.8-2.2s.3-1.6.8-2.2q1.2-1.2 3.9-1.2c1.1 0 1.8-.1 2.1-.4.2-.2.3-.4.3-.7s-.1-.6-.3-.8c-.3-.3-1.1-.4-2.1-.4h-.6v-2.2h.6c3.1 0 4.7 1.1 4.7 3.4zM94 25.6v1.5q1.05-.3 2.4-.3c1 0 1.7-.1 2.1-.4.2-.2.3-.4.3-.8s-.1-.6-.3-.8c-.3-.3-1-.4-2.1-.4s-1.8.1-2.1.4c-.2.2-.3.4-.3.8m-2.2 0c0-2.3 1.6-3.5 4.7-3.5q2.7 0 3.9 1.2c.5.6.8 1.3.8 2.2s-.3 1.6-.8 2.2q-1.2 1.2-3.9 1.2c-1.1 0-1.8.1-2.1.4-.2.2-.3.4-.3.7s.1.6.3.8c.3.3 1.1.4 2.1.4h.6v2.2h-.6c-3.1 0-4.7-1.1-4.7-3.4z" class="st0"/><path d="M39.8 14.2h-1.9v5.1h-1.2v-6.5c0-1.5 1-2.3 3.2-2.3v1.2c-.8 0-1.3.1-1.6.3-.2.2-.3.4-.3.7v.2h1.9v1.3zm6.8 1.9c0 2.1-1 3.1-2.9 3.1s-2.9-1-2.9-3.1V13H42v3.1c0 .6.1 1.1.3 1.4.3.3.7.5 1.4.5s1.1-.2 1.4-.5c.2-.3.3-.7.3-1.4V13h1.2zm6.9 3.1h-1.2v-3.1c0-.6-.1-1.1-.3-1.4-.3-.4-.7-.5-1.4-.5s-1.1.2-1.4.5c-.2.3-.3.7-.3 1.4v3.1h-1.2v-3.1c0-2.1 1-3.1 2.9-3.1 2 0 2.9 1 2.9 3.1zm5.7-3.1v-1.9h-1.7c-.7 0-1.1.2-1.4.5-.2.3-.3.8-.3 1.4s.1 1.1.3 1.4c.3.4.7.5 1.4.5s1.1-.2 1.4-.5c.2-.3.3-.8.3-1.4m1.3 0c0 2.1-1 3.2-2.9 3.2-2 0-2.9-1-2.9-3.2 0-2.1 1-3.1 2.9-3.1h1.7v-2.5h1.2zm12.8 1.2c-.3 1.3-1.3 1.9-2.8 1.9-1.9 0-2.9-1-2.9-3.1s1-3.1 2.9-3.1c1.5 0 2.4.6 2.8 1.9H72c-.2-.5-.7-.7-1.5-.7-.7 0-1.1.2-1.4.5-.2.3-.3.7-.3 1.4 0 .6.1 1.1.3 1.4.3.4.7.5 1.4.5s1.2-.2 1.5-.7zm1.1-4.4h1.2v6.3h-1.2zm1.3-1.2h-1.2v-1.2h1.2zm5.7 4.4c0-.6-.1-1.1-.3-1.4-.3-.4-.7-.5-1.4-.5s-1.1.2-1.4.5c-.2.3-.3.7-.3 1.4 0 .6.1 1.1.3 1.4.3.3.7.5 1.4.5s1.1-.2 1.4-.5c.2-.3.3-.8.3-1.4m1.3 0c0 2.1-1 3.1-2.9 3.1-2 0-2.9-1-2.9-3.1s1-3.1 2.9-3.1c1.9-.1 2.9 1 2.9 3.1m-.8-4.2-.6.1-2.4.4-.2-1.2 3-.6zm7.7 7.3h-1.2v-3.1c0-.6-.1-1.1-.3-1.4-.3-.4-.7-.5-1.4-.5s-1.1.2-1.4.5c-.2.3-.3.7-.3 1.4v3.1h-1.2v-3.1c0-2.1 1-3.1 2.9-3.1 2 0 2.9 1 2.9 3.1zm-24.2-1.9v-.8c-.4.1-.8.2-1.3.2-.6 0-.9.1-1.1.2-.1.1-.2.2-.2.4s.1.3.2.4c.2.2.6.2 1.1.2.6 0 1-.1 1.1-.2.1 0 .2-.2.2-.4m1.2 0c0 1.3-.9 1.9-2.5 1.9-1 0-1.7-.2-2.1-.7-.3-.3-.4-.7-.4-1.2s.1-.9.4-1.2c.4-.5 1.1-.7 2.1-.7.6 0 1-.1 1.1-.2s.2-.2.2-.4-.1-.3-.2-.4c-.2-.2-.6-.2-1.1-.2h-.3V13h.3c1.7 0 2.5.6 2.5 1.9z" class="st1"/></svg>