<svg xmlns="http://www.w3.org/2000/svg" viewBox="0 0 300 150"><desc>Logo of London School of Hygiene and Tropical Medicine</desc><path d="M272 113.1c-1.3-.6-1.9 1.5-.6 1.8s1.7-1.3.7-1.8m-86.8-37.8-.6.7v.4l.3.4h2.9c.3 0 1.5 0 1.7-.2.6-.3-.7-2.2-1-2.8s.1-2 0-3l-.1-2.7a8 8 0 0 0-1.4-3.4q-.6-.7-1.1-.7c-.9.2-1.3.7-.4 1.5l.6 1q.5 2 .5 4.2.1 2-.6 3.6zm-2.9 5.8.8-.5q.3-.1.8-.8 0-.3.4-.4h1l4.5-.2 4.7-.2 6.6-.4 2.1-.1 7.6-1 .4-.1 1.4-.3 1-.3a10 10 0 0 0 5.2-2.5c1.4-1.5 2.3-4.1 1-6q-.3-.6-.8-.8-.7-.8-1.8-1-.4-.2-.7-.1-.5.1-.5.5v.5q.6.6 1.7 1.2.5.3.8 1v.3l-.2 1.7q-.5 1.3-1.6 2.1l-2.1 1q-1.1.6-2.4.7l-1 .3-3.3.6-4.6.4-.8.1-4 .2-1 .2H196l-2.5.2-4.5.1h-4.9l-.7-.7-.8-.6c-.5-.5-.4-1.7-.5-2.3l-.3-1.9-.4-2.4-.6-2.4-.6-2.4-.7-2.5q-.1-.8-.4-1.3c-.5-.8-1.6-1-1.5.1l.5 2.1.7 3.2.6 2.3.8 4.1.1.9.2.7.2 1 .1 1-.5.4c-1 .6-1.2 2-.7 3.1q.9 1.6 2.8 1.2m-.7-3 .6.2c.3.4-.1 1.3-.8 1.1s-.4-1.3.2-1.3m29.4-7c1.3.6 2.6.4 3.8.5.4 0 1.8.2 2.5 0 .6 0 .3-1.4-.5-1.7h-1.2l-2-.1-2.7-.4q-1-.4-1.4-.2c-.4.3 1 1.7 1.5 2m18-7.4c.3-.1.7-1.1.9-1.4l1-2 .8-1.8.9-2 .4-.8.4-1q.3-1.2-1-.8c-.4.2-.7 1.1-.9 1.5q-.6 1.7-1.7 3.8l-1.3 3-.4.6c-.3.6.2 1.3.9 1m-51 20.5c1.6.3 1.6-1.3.6-1.9-1.5-1-2.4 1.5-.6 1.9M228.7 34q-.1-.4-.4-.4h-.2l-.2.4-.9 1.6-.8 1.3-.6 1.4a32 32 0 0 0-1 5.5l.1 1.6q0 1 .3 1.4t.6.6h.9l.7.1h1.2l.3-.1.2-.4c.2-1.2.3-4.7.3-7.4l.1-2v-1.5c0-.4-.5-1.8-.6-2m-17 34.8 1.7.1c.8 0 2.7.4 2.8 0 0-.3-.6-.9-.8-1.2l-.4-.4h-1l-.7-.2H212l-.7-.2-1.5-.3-.5-.2-.5-.2q-.7-.3-1 0c-.2.3.4 1.4.8 1.6l.8.3 1.4.5zm-4.5 59.7.4 1.2.1.2 9.2.2.4-.3 1.2-2 .8-1 1.4-1.1 1-1.7 1.4-2.8c1-2.4 2.4-4.4 3.3-6.8q.6-1.1.7-2.5l.3-1.3.2-1.4.1-1.8.1-1.2a31 31 0 0 0-1-7.7l.2-.3q1-.3 2.2-.1c.8.3.6 1 1.6 1q1-.1 2.3-.5l1.2-.3 1.1-.3-2.6 5.3-.6 1.7q-.7 2-1 4.2v3.4c-.2.7-1 1.4-1.6 2.2q-1.6 2.4-2.7 5.1l-1.6 4.1-.2.8q-.3.3-.7.4l-1 .6q-.7.5-1 1l-.2 1q.1 1.3.5 2.2l.3.2 22.6.4q.3 0 .6-.6l.5-.8.9-1 1.2-.8.3-.5c.5-.7 1-1.8 1-2.2l-.4-4.4-.2-1.3-.3-2.2-.4-2.7-.6-1.5-1.2-1.7q-1.2-1.4-2.8-2.7c-2-1.5-3.2-3.4-4-4.8l-1-2.3-.4-1.4-.6-2-.7-1.9q-1-1.7-2.6-2.4-1.4-.5-2.3-.2c-.7.2-.6.7-.5 1 .6.9 1.1.6 2.1.8l.7.4q.5.4.3.7l-1.1.4-1.7.3-1.3.3q-.3 0-1-.4-.4-.4-.8-.4h-1.9l-2.9.5-2.3.3h-1q-2.2.2-4.6.2h-4.9c-.5-.2 0-.7.4-1.5l.5-1q.7-1.1.6-1.5-.7-1.2-1.5-.7c-.6.5-.9 2-1 2.3l-1.7 3.4-.2 1q0 .3-.3.5l-.3 1.3-.6 2.1c-.3 2.7-.4 4.3-.3 6.6v1l.4 4.4c0 .6.1 2.1.3 2.8l.5 3v2l-.6.8-.6.8-.4.7a3 3 0 0 0-.1 1.8zm26.6-19.3v4.4q0 2.7-.3 5.2l-.1 1.8v2.2l-.2 2.1-.1 2.6c0 .8 0 1-.8 1h-4.8q-.4-.2-.3-.5v-3c0-.5.4-1.5.6-2l.7-2 1-2 1.6-2.8c.3-.5 1.6-1.8 1.9-2.1.5-.6.3-1 .3-2.6l-.1-2.2c0-.9.3-2.2.5-2.4q.2-.1.2 0zm2.4 11q.3-1.3 1.3-2.7l2-4.2q.8-1.4.2-2.5l-1.7-4.1-.6-1.5-.1-.7q-.5-1.7-.3-2.5l.1-.3.1.2q1.2 2.6 2.8 4.8.7 1.3 1.6 2.4l1.6 1.5.8.8q.1.4-.4.8l-1.5 2q-.9 1-1.3 2l-.5.8q-.6 1.3-.8 2.4c0 1.3.9 1.5.7 2.1 0 .4-.8.6-.9 1q-.2.8.9 1.6l.5.3c.5.3 2.2.2 2.4.7l-.1.5-1.3 1.6q-.7 1.2-1.3 1.3l-.4-.7-1.6-2.2-.4-.7-.6-1.2q0-.3-.3-.7-1-1.6-.9-2.8M232.6 43q.3.6 1 .4.5-.3.4-.8L230.3 32l-.5-1h-.7q-.5.3-.4.8l1.5 4c1 3.3 2.3 7 2.4 7.1m37.5-3h-1.2q-.2 0-.3.8.1.6.5.7l.6.1c.2 0 1.4-.3 1.4-1s-.9-.5-1-.6m15.4 48.2 1.7-1q1-.7 1.4-1.5.2-1-.3-1.4-.4-.6-1.2-.7-1.6 0-3.1.4l-1.9.2q-1.9.2-3.7.7l-2.2.3-.7.4q-.3.4-.2 1v1l.2 2.8.1 2 .1.7q-.1 1 .5.9s.7-1 1.8-1.8c1.2-1 2.9-2 4-2.5zm-5.4.3-1.6.8-1 .5-.1-.3v-2.3q.2-.2.7-.2l.7-.2 1.5-.3 1-.1q.6-.2 1 0 .2 0 .3.4t0 .6-1 .5zM253.6 16s-1.3-.7-1.2-1c.1-.2 1.5.1 2.7.5l1.8.7c.4 0 .6.3.8 0 .2-.4-.4-2.8-1.9-4.8q-1.6-2.2-3.7-3.1-2.7-1.4-6.8-1h-.3c0-.2 1.9-.6 3.5-.9l2.1-.2c.9 0 1.1.1 1-.6s-2-2.3-4.4-3c-2-.7-4.5-.2-5.4-.1-3.3.4-8.3 4-8.6 4.2h-.4c0-.1-1.3-1.4-2.2-2q-.7-.9-3.1-2.4-2.7-1.3-5.8-1.5-1.7.1-2.9.5a8 8 0 0 0-3.7 2q-.3.3 0 .5c.6.3 2.6.5 2.7.7q0 .3-.3.2s-1.9-.3-4.2.3c-1.4.3-2.3.8-4 1.6q-1 .5-1.9 1.3a8 8 0 0 0-3.5 7q0 .5.3.6l.5-.2c.3-.1 3.4-2.4 3.6-2.4h.3v.2l-2 2-1.1 1.7-.3.2s-6 2-13.5 7.3a68.5 68.5 0 0 0-8.5 105.3l18.3.3q.3 0 .5-.7l.7-1.3.6-1 1-1.3 1-2.6.2-1v-1.5q-.1-1.6-.5-2.7c0-.4-.5-1.9-.5-1.8l-.7-3.3-1-3.1-.7-2.3-.6-2-.9-2-.2-.9q-.6-1.4-1.4-2.5c-1.8-1.9-3-2.8-3.5-3.9q-.5-.6-.7-2-.4-2-.6-4.3l-.2-1.2q-.5-2.7-1.3-5.3l-1.3-2.6c-.5-.8-1-.5-2-.4H186q-1.5 0-1.7.2-.3.3-.4 1.4-.1 1.2-.5 2.2-.1.7-.4 1-1 .8-.8-.6l.3-1.8c0-.3 0-.9-.6-1-.3-.2-1.2-.4-1.7 1v.8c0 .8 0 1.5-1 2q-.7.3-1.2 0-1.8-.4-1.9-2.9l.2-1.3-.2-2.6-.2-1.8c-.4-2.2-1.2-3.4-1.3-5.1v-1.3l.1-1.4.8-4-.1-1.1q0-.4-.3-.7l-.4-.3-1.1-.3c.6.1-1.4-.3-1.4-.7q0-.2.9-.5l1-.2h1.8l.3-.3q.4-.7 1.1-1.4c.8-.6 1-.8 2-1l.6-.1c.6-.3.7-1 1.7-1.6q1.3-1 3-1.2h1.5q.6.4 1 .3c.7-.4 1.5-1.4 2.7-1.5l2.8.2 1.2.5q.9.6 1.5.8c.9.2 1.9-.3 2.7.3q1 .7 1.1 1.4 0 .5.3.7c.3.2 1.2 0 2.2 1 1 .8 1.8 2.7 2.2 3.7 0 .2.4.7.2.8q-.4-.2-.6-.5l-1.7-2-2-1.5-.9-.6q-2-1.1-4-1.8l-1.6-.4-1.2-.2c-.5 0-2.3-.2-3.3 0q-.8.1-.5.7l.5.3 1 .3q.8 0 1.4.3a20 20 0 0 1 6 2l2.2 1.5q1 .5 2 1.8l1.4 1.7 1.8 2.3c2.2 3 4.1 7.2 8.4 7 .6 0 2-.4 2.4-1q.4-.8-.3-1.1h-1.9q-1 .1-2-.2l-1.2-.9-.7-.8q-.8-.7-1.6-1.9c-.8-1.2-.7-1.3-.8-2.6l-.2-1q-.2-1.4-.8-2.9-.4-1.5-1.4-2.8c-.4-.5-.4-.9-1.2-1.5l-1-.7q-1-.5-1.4-.9a5 5 0 0 0-2-2q-1.2-.5-2.4-.3h-.6q-.3 0-.5-.3l-.8-.5-1.8-.6-1-.2h-1.4q-1.4 0-2.7.5l-1 .7h-.7l-1.5-.1a7 7 0 0 0-3.7 1.3l-1.1.8-.8.9-.6.1-1.2.5-1 .7-.7.8-.4.6-1 .3-1.3.2-.8-.6-.5-.4-.3-.3.5-.3.6-.2 1-.3 2-.4 1.5-1.6.4-.4 1.1-.8q.7-.5 1.6-.7l1-.2 1.7-.2 1.4-1.1q1.3-.8 2.5-1h2.9q.7.3.9.2l1-.3 1.4-.4h.3l1.2-.2.7.1h.8l.7.3 1.5.6 1.3 1q.4.6.9 1 0 .2.3.2l1 .3c1 .4 2.4 1.4 2.7 1.7l1.3 1.5 1 2 .2.6.8 3 .5 1.8.7.6.4.2 1.7.5q.6 0 1 .2l2 .2h1.3l.4-.2.2-.2.3-.1.3-.2 1-.1c.9 0 1 .1 1.7.5q.1.2.8.5l2.2-.4 2.2-.7 1-.3 1-.4c1-.4 1.4-.4 1-1.5l-1.4-3.4c-.4-.8-.8-2.4-1-3.7s0-2.6-.2-3.2l-.6-.6c-.3-.3-.5-1.1-.5-1.5q-.1-1 .8-1.2c1.1-.4 3 .2 4 .4l2.2.5 2.3-.2q2.6-.5 3.8-.9l1.9-.3 2.6-.3h3l2.5.3 3.1-.2 1.2-.2q.7 0 1.5.4.6.1 1.2.5a8 8 0 0 1 3 2.4 22 22 0 0 1-6.3.3l-2.6-.1-2-.3-3 .2q-2.7.2-5.2 0c-2.2 0-2.8-.4-4.3-.4-1.8 0-2.7.3-4 .6l-2 .4q-.8 0-1.2.2l-.2.2-.2.5c-.2 1 .2 2.8.3 3.5q.3 1.5 1 2.8l.6 1c.4.4 1 .6 1.5-.6l.2-.5.3-1 .3-2.3v-1.1l.2-1.6c0-.2 1.2-.4 1.7-.5h1.7l1.4.2c.3.2.3.7.3 2.5 0 1.5-.2 4 0 4.9q0 .5.6.4c.3 0 2.8-1 4-1.6l1.9-.7 3.2-1q.8 0 1.7-.3 1-.3 2-.2 1.4 0 2 .3 1 .2 1.6.5c1.2.6 2.5 1.6 2.7 2 0 .3-.6.3-.9.1l-.9-.6q-.4-.4-2.2-1-1.5-.6-3.5-.5l-2.7.6-2 .6-2.7 1-3.1 1.3-1.9.7-.7.3-2.5 1-2 .7-.7.2-4.1 1.4-2.4.8-.9.3q-.7.1-.5.7.3.8 1 1c.8 0 1.7-.6 2.3-.7l.5-.2 1-.2 2.2-.8 7-2.5 1.3-.7.9-.3 1.2-.4 5.2-2c.4-.2 3.4-1 4.4-1a8 8 0 0 1 3.3.9h.1c.3.2-.6 0-.6 0l-1.3-.4h-1.7l-1.1.3a26 26 0 0 0-6.2 2.2l-3.5 1.7q-1.3.4-2.1 1l-1.7.7-4.7 1.8a27 27 0 0 1-5.5 1.3q-1.2 0-1 .4c-.1.2 0 1 .1 1.2q.4.3 1 .2l2.2-.3 3.3-.9c.4 0 3.6-1.4 5.3-2l1-.5 3.8-1.6c2.1-1 4.8-2.2 7-3q2.2-.5 3.4-.6 1.3.1 1.2.5c-.2.4-1.4 1-1.1 2.6l.3.6 1.4 1.4q.6.7 1.7 1c1 .2 1.3-.2 1.7 0 0 0 1.5 3.9 5 4.6 2.9.5 4.2-1.3 4.5-2.1 0-.3 0-2.2-2-2.3h-1.5q-1.1-.1-1.6-1.6-.2-.2-.2-.8l.3-.1h.2l.4.5.8 1 .6.1h1.2c.3 0 1.6-.2 2.3.6q.9 1.5.7 2c0 .6-.2 3.3-5.1 3.7 0 0-3.5.3-5.6-3.4-1-1.6-.3-1.4-1.8-1.3-1 0-1.8-.7-2.4-1.3l-.8-.7s-1-1-1.2-1.8c-.1-1 .4-1.8 0-2l-1.3.1-3.4 1.1-4.2 2-3 1.3q-.9.2-1.3.6-.3.5-.2 1.7l-.1 3.3-1.3.3-1 .1-2.7.4h-.6l-.3-.2-.1-1.6v-1q0-.4-.3-.4l-1.5.4c-.3 0-3.6.7-4.4.6l-.8.1c-.2.1-.6 1-1 1.4-.3.3-1.8 1.5-1.7 1.8q-.1.3.4.4l1.4.3 2.2.2 1.3.1h2.2q.6 0 1-.2l4.7-.5 2.3-.3 3-.5 3.1-.3h3.4c1.4.2 2 .5 3.3.9l1.8 1.1c.4.4 1 1.3 1.5 1.5q1 0 2.3-1l1.8-.7q2.4-1 4.4-.2l.8.3 1.8 1.3.8 1q.9 1.6 1 3.5v1.5q0 .9-.6 2.4c-.9 2.3-1.4 2.7-1.7 3.4l-.4 1.4-.1.9q.1.8.5 1.4l.7 2 .1 1.5c0 1.4-1.9 2.2-3 3-.3.2-1 .2-1.8 1.9q-.3 1-.3 2v.6c-1.3.1-2.2-1.5-2.2-2.5 0-1.6 1.6-2.3 1.6-3.9q-.1-1.3-.9-2.5a4 4 0 0 1-.4-2.6q.7-3.1 1.8-6.1c.5-1.5 1.1-4-.2-6-1.3-1.8-4.2-1.2-4.7-.7q-.2.4.3 1.4l.3.6.1.6q.2.4.2 1l.4 2c0 1.5 0 3.4-.4 4.6-.2.5-.6 2.1-1.3 3.7s-1.7 3.3-2.1 4.4q-.5 1.3-.6 3 0 1.5.6 2.8l.7 1.8 1.4 2.9.7 1.2q.5.5.7 1.2v1l-.2.4-.3 2.3.2 2.5.4 2.9q.5 1.7.5 2.9-.2.8-1 2l-.6 1.4-.1 1.1v1.6q-.2.9.6 1.2l20.2.3q.4 0 .5-.2l-.1-.3c-.2-.2-2.3-.4-2.7-.5l-1.8-.3a17 17 0 0 1-5.1-2.5l-1.2-1-2-2.2a16 16 0 0 1-2.3-14.2l.4-1.5.6-1.4.6-1.1 1.1-1.6.5-.6q1.6-1.9 3.3-3 1.3-.9 2.8-1.3 2-.6 4.2-.8a18 18 0 0 1 5.5.5l1.6.7 1.7 1q1.3.8 2.4 2 1 1 1.8 2.2.9 1.4 1.5 2.8l.8 2 .5 2.1c.5 2.4 0 4-.4 4.9l-2.5 3.6s-.4.5-.3.1q1.3-2.8 1-7.3c-.3-2.6-2.2-6.8-4.4-9a10 10 0 0 0-3.6-2.3q-2.4-.8-4.6-.8a12 12 0 0 0-11.1 7 14 14 0 0 0-.6 11.6 11 11 0 0 0 4.3 5.5c2.4 1.7 4.7 2.2 5.6 2.5.7.2 2.6.4 4.8-.1q2-.5 4-1.7.3-.2 0 .4l-.1.1-5 4.8c-1.2 1-3 1.2-3.9 1.3l-84-1.5h-1q-.3.3.2.7c1.8 1.8 8.1 7 17.3 11a70 70 0 0 0 61.9-3.1q5.3-3 8.4-5.8a69 69 0 0 0 26-51.2A68.5 68.5 0 0 0 253.5 16m-54.4 88.6.3.7.2.8v.3q-.3.3-1 .5-1.1.3-1.9 1-.4.6-.4 1.5l.2 1.5.2 1.4.7 2c0 .4-.4 1-.4 1.1q-.6 1 .3 1.7l1 .5 1.1.1q.9 0 1.1.3 0 .4-.4 1.4l-.2.5-1 2.1-.3.2-.2-.2-2-2.2q-.7-.6-1-1.3-.5-1.3-.6-3.1l-.7-4-.7-2.7q-.6-1.2 0-1.7l1.2-.7 2-.8 1.6-.6zm-13.2 0q.2-.6.7-1l.5-.4 1.4-1 1.7-1.1 1-.8 1.1-.8q1.8-1.2 2.2-1.3c.4.1.9.9 1.3 1.3l1.1 1.1.9.8.2.6.3.6q0 .3-.4.4-.3.3-1 .4l-4 1.5-1.8.8q-1 .2-1.5 1c-.7 1.4-.1 3.9-.2 5.4q-.1 2.2.4 3.4.4 1 .2 1.4c-.2.3-.8.4-1.3 1.2-.4.6.3 1.5 1.2 2l1.4.5q.5.3.5.6l-.3.6-.6 1-1.5 2-.8-1.2a11 11 0 0 1-2.2-4q-.3-1.6.2-3.4v-1l.2-2.1-.3-2.4-.5-3q-.5-2-.1-3.2M172 64l.8.2q.5 0 .7.3c.5.6-.2 3.3-.6 5q0 .6-.2 1l-1 .6q-.6.5-.4 1.4.3.7 1 1 .3 0 .7.3l.5 1.2.6 2q.4 1.8.4 3.8V82q-1-.1-1.4.4-.3 1 .2 1.3c.3.5 1.2 0 1.1 1.1 0 .6-1.6.4-2.2-.9q-.4-.6 0-1.9v-1.2l.3-1.6q0-1.7-.5-3.5v-1l-1.2-2.1v-1.3l.6-2c.2-.7.6-3.2.4-3.9-.1-.5-1-1-1.8-1.4l-1.5-.5c-.3-.2 1.1-1 1.4-.8.4.3 1.5 1 2.1 1.2m36.6 75.7q-2.2-.1-4-1.4c-1-.6-3.1-3-3.3-3.1q0-.3.1-.2l2.9 1.3c1.1.4 3.2 1 4.4.8 2.2-.3 3.3-2.8 6.4-3 1 0 2 0 2.9 1.3v.3h-2c-.6.1-.6.1-1 .5l-2.7 2.2a6 6 0 0 1-3.6 1.3m8.3-2.5c1-.2 3 0 3.2 0q.3 0 .2.2c-.2.3-1 1.5-1.5 1.5-.8 0-3.8.2-4.1-.1s1.6-1.4 2.2-1.6m9 1.3c-1.7 1.9-3.9 4.3-6.6 4q-1.8-.3-2.7-1.6l-.1-.4h2c1.3 0 1.4-.3 2-.8q1.3-1.4 2.5-3a8 8 0 0 1 5.4-2.3q1.3-.2 2.7.7 1 .9.3.8h-2.1c-1.8.8-2.5 1.6-3.4 2.6m2.2.3s.6-1 1.9-1.4h1.7q1.5 0 1.6.2c0 .2-1.2 1.2-1.4 1.4q-.6.2-1 .1l-2.8-.1zm17 .6q-.1.3-1.2.2l-3-.1q-.2-.2 0-.3a4 4 0 0 1 1.6-1.6h2.6q.3.3.2.8zm9.4-3q-.2 0-.2.4c-.2.8 2.6.5 2.6.9q-.1.3-.6.5c-1.2.5-3.4.2-4 .2l-.7-.2q-1.8-.3-3.4-1-2-1-4.3-1.4a4 4 0 0 0-3.5 1.2c-2 1.8-3.2 4-5.5 5.1-1.2.6-3 .6-3.8.5-1-.2-3-1.7-2.6-2h.5c.4-.1 2.5.2 3.5-.2s1.6-1.4 2.4-2.1c1.6-1.7 3-3 5.3-3.7q2.4-.6 4.8 0 2 .7 4 .8l4-.5h1.8q1.7.2 2.2.9c.3.3-1.6.3-2.5.6m4.4.6-.6-.3h.6q.7-.2.9 0-.1.6-.9.3m20-31.5q.3 0 1.4 1.7c1 1.5 2 3.4 1.6 3.6l-1 .2h-.8q-.8-.1-1-1.3l-.1-1-.3-2.2zm-8.3-1.9c0-.4 2-.4 2.3-.2q.2 0 0 .8l-.1 1.5-.2 2.2-.2 2.4q0 .6-.6.6t-.6-.6l-.1-1.7-.2-2.5-.2-1.3zm-2 11.7-1.6.2h-.9l-1.2.2-1.7.3-1.6.3c-.2 0-.3-.8-.3-1.5q0-.8.2-1.1l.1-.4h1q1 0 1.7.2h.6l2 .2h.8q.5 0 .8.2l.1.4zm.7-3.8q-.4.3-1.3.2l-1.3-.1c-.4-.2-.3-3.5-.5-5.2v-.9l.1-1.2c.4-.3 2-1 2.2-.5q.6 1.6.7 3.5l.1 2c0 .6.2 1.9 0 2.2m2.3.9c2-.1 2.5 3 .4 3.5-2.5.4-3-3.3-.4-3.5m2 13.4h-.5l-1.2.1h-.8q-.6 0-.7-.2l.3-2.7.1-1.4c0-.6 0-3.5.2-3.8 0-.2 1.2-.2 1.2-.2q.5.1.5.5l.2 2 .4 3.2.2 1.2q.3 1.1 0 1.3m.7-16.2.2-1.4q0-1.1.3-2.1l.2-1 .2-.9q.1-.7.5-.8l.7.2q.3 0 .4.3l.1 1.6.1 3.8.1 1.9q0 .3-.3.3h-2.4c-.2-.2-.1-1.2 0-1.9m8.3 6h-.9l-1.4-.1-2-.1-1.4-.1q-1.5 0-1.8-.2-.2-.2-.2-.9 0-.4 1.2-.3l1-.2h1l2.7-.4 1.6-.3q.5 0 .5 1.3 0 1.2-.3 1.4m2-42.6 2.2 2.5q.6.6.6 1-.1.4-.5.5l-1.6.8-1.4.2q-1.6.4-3.2.3c-1-.1-2-.1-2.7-.8q-.3-.1-.6-.5l-.5-.5c-.4-.2-.7.2-1.6.3h-1l-1-.3-.6-.5q-.2-.8-1-1l-1.2.1q-1 .1-1.3-.4h-.4a15 15 0 0 1-2.7-5.4v-.6q0-1.5 1.7-2 1.3-.4 2.5-.3h1.5q2 0 3.2-.2h.5c1.1-.3 1.7.4 1.7.4l1.4 1 1 .8 2.6 2.4q1.3 1 2.3 2.2m-3.3 7.8-2.2.4h-1.3c-.4 0-2.3.2-4.5-.6-1.5-.7-3-2.6-3-3l.6-.1q.4-.2.6 0l.7.5 1 .7q.7.3 1.8.2h1.3q.5 0 .9.4l1.5.6 1.3.2h.9l.4.2q.3.2 0 .5M272 63.2l.3-.5 1.2-2.2.7-1.4.8-1.9.9-3.3q0-.8.2-1.3l.7-.1.7-.2.4-.2c1-.6 1.1.6 1 1.5q-.1 1.7-.6 2.9l-1.6 3.5-.6 1.2-.4.8-.4 1c-.2.5-.1.8-1 .8l-1.3.2-.9-.2q-.4-.2 0-.6m-11.6-30.3c.7-1 1.6-.5 2-.7.6-.2 1.2-1 2-1.2 1.2-.1 1 .4 1.7.4l1.4-.5q.6-.1 1 .4l.7.7c.4 0 1-.5 1.8 0 .8.7.4 1.2.4 1.8.2.6.8.3 1.2.3.7 0 .6.3 1 .2l.4-.2.9-.2q.6 0 1.1.4.4.1.5.4h.8q.7-.4 1.4.3.6.9.3 1.5c0 .4-.4.7-.3 1s1 .5 1 1.5c0 .6-.5.7-.4 1.3 0 .8.5 1-.2 1.7l-.7.3c-.2.4 0 .9-.4 1.3q-.8.6-1.5-.5l-1.1-1.6-2-2.7c-1-1.2-2.1-3-3.5-3.9-.7-.4-1.4.2-2 1q-.4 1.2-1 1.4-.2 0-.8-.9a8 8 0 0 0-2.5-1.7l-1.1-.3-2 .2q-.8-.5-.1-1.7m1.3 4.7q-.1-.8.2-1.3.3-.2 1.4.3c.6.2 1.2 1.2 1.2 1.8s-.5.5-1 .4q-.6-.3-1.2-.1c-.3 0-.7.9-.4 1.4l.9.3h.7c.6 0 1.5-.4 2 .3q.2.7-.3 1.4l-.3.7q-.4.4-1 .6c-.7.1-1.8.3-2 .1l-.3-.3v-.6l-.2-.2-.2-.6c-.4-.4-.8-.2-1-.3q-.2-.2 0-.8l.4-.5.4-.5.6-1zM246.5 9q3-.3 4.8.6c2.5 1 3.7 2.9 3.9 3.8.1.5-1.4-.3-2.8-.4 0 0-2.3-.4-5-.4q-2.6 0-5 .6l-2.6.7q-4.2 1.4-7.9 4.9-.5.4-.6 0c-.2-.2-1-1-.6-1.3 0 0 3-5.3 10.8-7.8q2.8-.7 5-.7M234 8c.9-.7 4.8-3 6-3.4 2.5-1 4.2-.9 4.7-1 1.2 0 3.5.8 3.6 1q.1.2-.3.2a32 32 0 0 0-15.3 7.8q-.1.3-.6-.1l-1.2-1.2q-.2-.4.1-.5zm-14.8-5.4c.2 0 1.7-.9 5.7.3q2 .7 3.1 1.8l.6.4 1.3 1 1.1 1.2.4.4c.2.2-.4.7-.9 1.1l-.5.5s-.2.5-.6 0-3.2-3-3.8-3.4c-.4-.2-2-1.3-3.8-2q-1.6-.9-2.7-1c-.7 0-.2-.3 0-.3M208.6 11c-1.4.8-2.4 1.6-2.6 1.5 0 0 .3-2.2 3.9-4.3q2.4-1.6 7.3-2a17 17 0 0 1 13.6 7.7v.4l-1.5 1.8q0 .2-.3 0l-1-.8a24 24 0 0 0-14.7-5.5q-2.6.2-4.7 1.2m-2.7 10c.1-.4 2.3-8.9 11.1-9 3.6 0 5.9 1.7 8 3.1 3.7 2.6 5 4.7 5 4.9.2.3-.8 1.6-.8 1.6q-.1.1-.5-.2c-.2-.1-9.2-6.8-15.6-4.8l-1.5.5q-2.8 1.4-3.7 2.7-1.2 1.6-1.6 2.4c-.6 1-.5-.9-.4-1.3M251 46l-.6.5q-.6.7-2 1l-1.3.2-1.2-.2-4.2-.2h-2.4l-1.5.3-3 .7-2.8.6h-1.6q-.7 0-1.3-.2l-1.2-.3q-1.1-.5-4-.3h-1l-2.4-.2-4.3-.2c-.6.3-.5.9-.6 1.1s-1-1-1.5-1.5c-.1-.2.5-.3.7-.6l1-.8c.2 0 0 .6.1.9q.1.3.6.4l2.4.2 3.2.1h1.4q.6-.3.5-.7l-.2-1V44c0-.6.3-3.8.5-4.2l1.2-3.2q.9-1.7 2-3.3l.3-.8q.4-1.2 0-1.4v-.9c.3-.3.6 0 .9-.2l.3-.5q0-1.4-.2-1.7l-.5-.9c-1.6-2.6-4.3-4.4-9.2-4.3-2 0-3.6 1-5.3 2-5.3 3-8 8.8-8 8.8s-.3-1.4-.1-3.3c.3-2.4 1.4-6 3.9-8.2q1.3-1.1 3.3-2 3.4-1.2 6.5-.7 3 .3 5 1.4c3.1 1.5 4.5 3.6 5.2 3.6.3 0 .8-1.2 2-2.5q1.3-1.6 3.5-3.4c2.8-2 6.5-3.7 10.7-3.4 8.4.6 9.8 6.7 10.2 8 .1.5-1-1.2-3.4-2.5-2.8-1.5-8-2.5-10.1-2-3 .5-6.9 1-10 5-.9 1 .7 1.7 1 1.1s5.4-6.1 13.3-4.4c5.6 1.2 10 6 7.8 14.1-.3 1.3-1.2-7.9-8.2-10.3q-.7-.5-3.7-.8c-2.9-.2-6.7.6-8 4.3l-.3 4.6v8l.3 3.5q0 .4-.2.4l-.2.1-1 .2q-1.2.3-2.4 1.1l-.1.1-.6 1v.7l.2.4.1.1q.5.3 1 0l.3-.5h.1q0-.3.3-.4l.7-.4 1.6-.4 2.5.5 2.5.1h2.3l1.3-.1 1.9-.4h.6l4.2-1 1.5-.1h1.1l.2.1c0 .2-1.3.8-1.6 1m-36.2-13h.3c.6 0 1.1.7.3 1.2-.7.4-1.4-.7-.5-1.2m6.2-.4c1 0 1.1 1.5-.1 1.5q-.8 0-.6-.9.2-.7.7-.6m.2-4.2c.5 0 .9.7.5 1.1-.2.4-1 .3-1.2 0-.2-.7.3-1 .7-1m-1.4 8c-1 .2-1.3-1.2-.3-1.4s1 1.1.3 1.3m.1-4.5q-.8.3-1-.4c-.2-.4 0-1 .4-1h.1c.8-.3 1.6 1 .5 1.4m-1.6-2.2c-1-.2-.7-1.5.2-1.4q.5 0 .6.6-.1.8-.8.8M218 33c1 0 .9 1.6-.2 1.5-1-.2-.7-1.7.2-1.5m-1.2-1q-.6 0-.8-.2l-.2-.5q.2-1 1.1-.8.4 0 .5.4.2.9-.6 1.2m-.3 3.1c1 .2.8 1.5-.2 1.6q-.7-.1-.7-.8t.8-.8M223 32q-1 0-1-.7t.8-.7c1 .1.7 1.2.2 1.4m.4-3.6 1.8-.9.6-.2c.4-.1.9-.4 1 .2q0 .5-.5.6l-1.7.6-.7.4q-1-.2-.5-.7m18.3 4.8c1 .3.6 1.6-.3 1.5-1-.1-.7-1.7.3-1.5m.5-4c.5.9-.3 2-1.1 1-.6-.6.3-1.7 1-1m.7 6.5c.8.1 1.1 1.5 0 1.5-.8 0-1-1.6 0-1.5m.7-3.2c-1 .2-1.2-1.3-.2-1.4h.1c.7 0 1 1.3 0 1.4m.7 1.4c.8 0 1.4 1 .7 1.4-1 .5-1.7-1.1-.7-1.4m.4-4.7q.8 0 .9.6c.1.8-1 1-1.2.4V30q-.3-.6.3-.9m1.1 7.2q.6.1.6.8t-.8.6c-1 0-.8-1.5.1-1.4m.4-3.3c-.8 0-1-1.5 0-1.6h.1q.6.1.7.8-.1.8-.8.8m1.1 1.1c1-.1 1.3 1.5.1 1.5q-.7 0-.8-.7 0-.7.7-.8m-7-3c1 0 1 1.2 0 1.3-.8.1-.7-1.2 0-1.3m-1.2-2.5q-.8-.5-1.7-.6t-1-.3q-.3-.4.2-.6l1.3.1 2 .7q.4.2 0 .7-.2.3-.8 0M253 47.5q-.4-.2-.4-.5.2-.3 2-1l2.3-1q1.5-.4 3-.2l1.4.2h1.4l1.7-.4.8-.1h.7q.3.2.5.9t.6.7c1.3.9 2.4.3 2.7.3q.4.1.4.5l.5.9q.4.7.3 1.3c0 .3-.6.9-.9 1.2l-.5.6-.6.6-.8.7-.7.7-2.1 1.9q-.6.5-1 1.1-.3.4-.4.9c0 .2-.4.7 0 2.3v.3q.4 1-.3.8l-.5-.4-1-1.7-1.5-2.5q-1.6-2.7-3.7-5.3a12 12 0 0 0-3.9-2.8m13.7 10q-.3 1-.7 1.2l-.3-.7v-.8l.6-.8.9-.8c.3 0-.1 1-.5 1.9m-11.6-3q.3-.2 1.1-.2h1c.5 0 1.7 2 2.1 2.7.6 1.1 2 3.2 1.7 3.3l-1.4.1-1.6-.1q-1-.4-1.7-1c-.7-1-1.3-4.6-1.2-4.8m4.8 16c.4 0 1.7-.2 1.7.4s-1.2.7-1.6.6a4 4 0 0 1-3-1.5c-.4-.4-2-3-1.3-3.3h-.1.5-.4c.5 0 1 1.2 1.2 1.7q.8 2 3 2.1m2.8-5.3-4.3-.5q-1.2-.2-2.3 0h-.8l-.5.4q-.8.7-1.2 1.3l-.7.5c-.7.2-1-.3-1.2-.5l-.6-.4-.4-.4q-.2-.9 1-1.6.7-1 2.2-1.4h7.6l3.9.1h.8l.6-.4q.6-.7 1-2.1l.5-1.2q.4-1.7.8-2.6l.7-2.2.8-1.6c.3-.6 1.3-1.2 1.9-1.5q.7-.4.8-.7t-.2-1.1l-1.4-3.7-.1-.3-.4-.4c-.8-.5-2.1.4-3-.4l-.3-1v-.4l-.3-.4c0-.2-.5-.2-.6-.5-.2-.3.5-.8.9-1.5l.1-.7c0-.3.1-1.4.4-2q.6-1.2 1-1.1l2.3 2.5 1 1.4.9 1.2 1 1.6 2.3 4 .8 1.8c-.1.3-1.1.8-1.8 1-.8.3-1.6-.3-2.1.2s.2 1.4 0 3q-.1 1.5-1 2.8l-.7 1.8a40 40 0 0 1-3.2 5.7q-.7.8-1.5 1.3a4 4 0 0 1-1.9.3zM278 95l-.8 1q-.3.8-.6 1.1h-1.3l-1.3-.2h-3a23 23 0 0 0-4.4 1h-.7q-.2 0-.2-1v-2.3l-.2-2.3V90l-.2-2.6-.1-1.7c0-1.5-.1-2-.3-4l-.1-3.7v-1q-.2-1.7.4-2.2c1-.5 1.9.8 2.6 2.3l1 1.9 1 1.2c.4.5 1.2 1.3 1.6 1.5l2 1c1.2.5 3.7.6 5.7.3l3.1-.5q2.8-.7 5.2-.7 1.6 0 2.5 1a3 3 0 0 1 .8 3.4q-.7 1.6-2.7 2.7l-.8.4-1.2.6q-3.3 1.1-5.8 2.8-1.3.9-2.2 2.2m14.6 10.9-.2.6-1 2.2-.8 1.7-.6 1c-.6 1-1 .4-1.2-.2v-.2l-.6-2-.9-2.3-.7-1.5-1-1.3-1.3-1.6-3-2.8-2.4-1.4q-.6 0-.1-1a9 9 0 0 1 2.8-3l1.5-1 1.1-.6q.3-.2.5-.1.3 0 .3.4l.5 1 .7 1.2 1.2 2c.2.1.6.9.9 1.3l.7 1.1.9 1.5q.2.6.8 1.2l1.3 2 .2.1c.7.9.5 1.3.4 1.7m-114-33.5c.3-2-3-3-3.2-.3v-.1c-.1 2.4 3 2.4 3.2.4M15.7 40.2H0v-.7h1.2q2.3.2 2.2-2.3V21.7c0-2-.6-2.7-2.8-2.7H.1v-.7h10.4v.7H9.2c-2.3 0-3 .3-3 2.4v16.2q0 1.4 1.5 1.3h5.2c2 0 2.7-.8 4.9-3.8h.6zm15.1.6c-6.9 0-12.7-4.5-12.7-11 0-7 5.4-12 12.9-12 6.6 0 12.3 4.6 12.3 10.9 0 7-5.7 12-12.5 12m-.8-22c-6.1 0-8.6 5.8-8.6 10 0 6.5 4.5 11.2 10.1 11.2 5.8 0 8.5-5 8.5-10 0-6.6-4.2-11.2-10-11.2m36.5 21.8L48.3 21.4v15c0 2.6.5 3.1 3.5 3.1v.7h-8.1v-.7h.1q3.1 0 2.9-2.3V19.9q-1.1-.9-3-.9v-.7h5.6l16.5 17.3v-14c0-2.1-.6-2.5-3.4-2.6v-.7h8.2v.7c-2.7 0-3.2.5-3.2 1.8v19.7zm9.1-18.6c0-2.3-.6-2.9-2.7-2.9h-.7v-.7l10.9-.3c9.2 0 13.4 4.7 13.4 10.5 0 5.3-4.2 11.7-13 11.7H72.1v-.7h.6c1.9 0 2.8-.5 2.8-2.5zm2.9 15.7c0 1.4.1 2 2.9 2 4.7 0 6.7-.7 8.8-3 1.3-1.2 3-3.9 3-7.5 0-2.6-.8-5.5-2.9-7.6-1.6-1.6-4-2.8-9-2.8l-2.8.1zm32.8 3.2c-7 0-12.7-4.5-12.7-11 0-7 5.4-12 12.9-12 6.6 0 12.3 4.6 12.3 10.9 0 7-5.7 12-12.5 12m-.8-22c-6.1 0-8.6 5.8-8.6 10 0 6.5 4.5 11.2 10.1 11.2 5.7 0 8.5-5 8.5-10 0-6.6-4.2-11.2-10-11.2M147 40.5l-18.2-19.1v15c0 2.6.5 3.1 3.5 3.1v.7h-8.1v-.7h.1c2.2 0 2.9-.7 2.9-2.3V19.9q-1.1-.9-3-.9v-.7h5.5l16.6 17.3v-14c0-2.1-.6-2.5-3.4-2.6v-.7h8.2v.7c-2.7 0-3.2.5-3.2 1.8v19.7zM26 144.1v-.6h-.2c-1.9 0-2.5-.5-2.5-2.7v-13c0-1.9.5-2.5 2.4-2.5v-.6h-5l-7.5 15.8-7.6-15.8H1v.6c1.6 0 1.9.5 2 1.6v14.5q.1 2.2-2.6 2.1H0v.6h7.3v-.6c-2.7 0-3.2-.5-3.2-2.7v-13.4l8 16.7h.7l7.8-16.7v13.8c0 1.6-.4 2.3-2.5 2.3h-1v.6zm37.4-9.9c0 3.3-1.4 5.7-2.6 6.8-1.9 2-3.6 2.5-7.8 2.5-2.5 0-2.6-.4-2.6-1.7v-16.7H53c4.4 0 6.6 1 8 2.4a9 9 0 0 1 2.5 6.7m3-.5c0-5.1-3.7-9.3-12-9.3l-9.6.3v.6h.6c1.9 0 2.4.5 2.4 2.5v13.4c0 1.9-.8 2.3-2.4 2.3h-.6v.6h10c8 0 11.6-5.6 11.6-10.4m-53.9-18.3q-2 1.6-4.6 1.7c-3.3 0-6.6-3-6.6-6.4 0-1.5 1.2-3.5 2.8-3.5 1 0 3 3.5 8.4 8.2m8.3 2.2s-1 .1-1.6 0h-.5l-.4-.2-.4-.3h-.1l-.4-.3-.5-.4-.4-.4h-.2l-.3-.3v-.1l-.4-.3-1-1q1-2.1 1.2-4.7c.1-1 .7-1 1-1v-.4h-4.6v.4c.3 0 2.3-.1 2.3 2.5q.1 1.6-.8 2.8c-5.6-5.2-9.4-9.3-9.4-11 0-1.3 1-2 2.1-2.1 1.8 0 3.5 1.2 4.2 3.1h.5l-.5-3.4h-.4q-.2.3-.5.3c-.8 0-1.3-.4-2.7-.6h-.6c-2 0-3.6 1.3-3.6 3.4q.2 1.6 1.2 3c-2.7.6-4.1 2.7-4.1 5.4 0 4 3.3 6.6 7.1 6.6q3.7 0 6.4-2.6c1.4 1 2.7 2.5 4.6 2.6h.3l1.5-.2 1-.2zM.6 61.3A5.4 5.4 0 0 0 6 65.7c2 0 4.3-1.2 4.3-3.6 0-4.5-10-5.9-10-11.3 0-2.6 2.4-4.5 5.5-4.5 2.7 0 3.2.7 4.3.7q.3 0 .5-.3h.5l.6 4H11A6 6 0 0 0 6 47c-2 0-3.5 1.2-3.5 3 0 4.3 10 5.5 10 11.3 0 3-2.7 5.3-6.3 5.3-1.7 0-4-.9-4.4-.9q-.3 0-.6.4H.7L0 61.3zm32-9.5a7 7 0 0 0-7-4.8c-5.3 0-8.5 3.8-8.5 9 0 5.7 4 9.8 8.8 9.8 2.4 0 5.4-.8 7.5-4.6h.6c-.4 1.4-1.2 3.3-2 4.5-2-.2-3.3.9-7 .9-6.3 0-10.8-4.2-10.8-10 0-6 4.6-10.3 11.1-10.3 4 0 5.6 1.2 6.6 1.2q.4 0 .6-.2h.4l.3 4.5zm7.4 5v6c0 2 .4 2.7 2.4 2.7h.1v.6h-7.8v-.6h.2c1.8 0 2.5-.5 2.5-2.3V49.5c0-1.6-.6-2-2.3-2.2v-.6h7.4v.6c-2.2 0-2.6.6-2.6 3v5.4h12.2v-6.1c0-1.7-.5-2.3-2.4-2.3H49v-.6h8v.6c-1.9 0-2.4.6-2.4 2.6v12.9c0 2.2.6 2.7 2.5 2.7h.3v.6h-8.8v-.6h1c2 0 2.4-.7 2.4-2.3v-6.4zm29.5 9.8c-6 0-11.2-4-11.2-9.8 0-6.2 4.7-10.5 11.4-10.5 5.9 0 10.9 4 10.9 9.6 0 6.3-5 10.7-11 10.7M68.8 47c-5.5 0-7.7 5.1-7.7 8.9 0 5.8 4 9.9 9 9.9s7.5-4.5 7.5-8.9c0-5.8-3.7-9.9-8.8-9.9m25 19.6c-6.1 0-11.2-4-11.2-9.8 0-6.2 4.7-10.5 11.3-10.5 6 0 11 4 11 9.6 0 6.3-5 10.7-11.1 10.7M93 47c-5.4 0-7.6 5.1-7.6 8.9 0 5.8 4 9.9 9 9.9s7.4-4.5 7.4-8.9c0-5.8-3.6-9.9-8.8-9.9m26.3 19h-14v-.5h1.1q2 .1 2-2v-14c0-1.6-.5-2.3-2.5-2.3h-.4v-.6h9.1v.6h-1.1c-2 0-2.6.2-2.6 2.2v14.3q0 1.2 1.3 1.2h4.6c1.8 0 2.4-.8 4.3-3.5h.6zm12.9-15.2c.9 0 2.8 1.2 2.8 4.6 0 5.9-5.9 8.5-7.3 8.5-1.5 0-2.8-2.4-2.8-5 0-5 5.4-8.1 7.3-8.1m-1.6 1.1c-2 0-3.7 3.8-3.7 7 0 2.5 1.1 3.8 2.2 3.8 2.5 0 4-4 4-6.9 0-2.2-1.1-3.9-2.5-3.9"/><path d="m136.6 52.5.1-.5q1.2 0 2.3-.4a11 11 0 0 1 3.1-6q1.8-1.5 3.7-1.5 2 .1 2.2 1.3-.1.7-.8.8c-1 0-2-1.1-2.8-1.1q-1.9.2-2.7 3l-.8 3.5h2.7l-.3 1h-2.6l-1.6 7.8c-1.2 6-4.7 8.2-7.7 8.2-1.3 0-2.4-.5-2.4-1.2q.1-.7 1-.8c1.2 0 1.8 1.2 3 1.2q1 0 2-.8c1.5-1.4 2-6 2.2-6.6l1.6-7.9zM5.8 83.8v6.6c0 2.2.4 3 2.8 3v.7H0v-.7h.2c2 0 2.7-.5 2.7-2.5V75.7c0-1.8-.6-2.3-2.4-2.4v-.7h8.2v.7c-2.5 0-2.9.6-2.9 3.3v6h13.5v-6.8c0-1.8-.6-2.5-2.7-2.5h-.7v-.7h8.9v.7c-2 0-2.6.7-2.6 2.8v14.3c0 2.5.7 3 2.7 3h.4v.7h-9.8v-.7h1c2.3 0 2.8-.8 2.8-2.6v-7zm38.2-8c1-2 .4-2.5-1.8-2.5v-.7H50v.7c-2.4.1-3.4 1-4.4 2.7L40 85.7v5.2q-.2 2.6 2.8 2.5h.4v.7h-9.5v-.7h.7q3 0 2.8-2.5v-4.8L31 76.5c-1.7-2.7-2.5-3.2-4.7-3.2v-.7h9.2v.7c-2.7 0-2.9.6-1.9 2.2l5.6 8.5zm24.3 16.7a23 23 0 0 1-9.2 2.1c-7.6 0-11-5.8-11-10.8A11.4 11.4 0 0 1 60 72c3.6 0 6.1 1.2 6.8 1.2q.5 0 .8-.3h.5v5.6h-.7c-1-4.3-3.9-5.6-7-5.6-6.1 0-9.2 5-9.2 10.6 0 7 5 10.2 8.9 10.2q2.3 0 5.3-1.3V88c0-2-.7-2.6-2.8-2.6h-1.3v-.6h9.3v.6q-2.5 0-2.4 2.2zM80 94h-8.4v-.6c2.2 0 2.6-.6 2.6-3V75.9c0-1.9-.6-2.4-2.6-2.5v-.7H80v.7c-2.2 0-3 .5-3 2.8v14.6c0 2 .6 2.7 3 2.7zm17.4-7.7h-.6c-.3-2.4-1-2.7-2.4-2.7h-5.8v7.3q0 2.2 1.9 2h5.3c2.4 0 3.1-1 4-4h.6l-.6 5.2H81.5v-.7h1c2.7 0 3.2-.7 3.2-2.8V76c0-1.9-.4-2.7-2.7-2.7h-.8v-.7h16.6l.2 4.8h-.6c-.4-3-1.3-3.5-2.5-3.5h-7.3v8.4h6.2c1.2 0 1.8-.5 2-2.5h.6zm26.9 8-17.8-18.7v14.8c0 2.5.5 3 3.4 3v.7h-8v-.7h.2q3 0 2.8-2.3v-17a5 5 0 0 0-2.9-.8v-.7h5.4l16.3 17V75.8c0-2-.6-2.5-3.4-2.5v-.7h8v.7c-2.5 0-3 .4-3 1.8v19.2zm20.8-8h-.6c-.3-2.4-1-2.7-2.4-2.7h-5.8v7.3q0 2.2 1.9 2h5.3c2.4 0 3.1-1 4-4h.6l-.6 5.2h-18.3v-.7h1c2.8 0 3.2-.7 3.2-2.8V76c0-1.9-.4-2.7-2.7-2.7h-.8v-.7h16.6l.2 4.8h-.6c-.4-3-1.3-3.5-2.5-3.5h-7.3v8.4h6.2c1.2 0 1.8-.5 2-2.5h.6zM28.2 115.6q-.2 2.1 2.2 2h1v.6h-8.8v-.5h1q2.4 0 2.3-2.1v-14h-5c-1 0-1.6.7-2 3.2h-.5l.4-4.6h.6q0 .3.3.3l.5.1h13.6q.7.1.9-.4h.5l.5 4.6h-.5c-.5-2.5-1-3.2-2-3.2h-5zm13.5-.1q-.1 2.4 2.2 2.2h.7v.5h-8v-.5h.5c1.6 0 2.2-.5 2.2-2.4v-11.9q.1-2.4-2-2.2h-.7v-.6l3.5-.1 3.6-.1c5.2 0 7.6 2.1 7.6 5 0 2.1-1.5 3.9-3.8 4.6q1.4 1 3.2 3l2.3 2a9 9 0 0 0 5.5 2.9v.5c-5 .2-6.2-.8-8.7-3.4l-1.9-1.8q-1.8-1.9-2.9-2.5h-3.3zm0-5.3h1.7c3.2 0 5.2-1.2 5.2-4.6 0-2.7-1.2-4.7-5.5-4.7h-1.4z"/><path d="M65.1 118.6c-5.5 0-10.2-3.5-10.2-8.8 0-5.6 4.3-9.6 10.4-9.6 5.3 0 9.9 3.6 9.9 8.7 0 5.7-4.6 9.7-10 9.7m-.7-17.7c-5 0-7 4.6-7 8 0 5.3 3.7 9 8.2 9 4.6 0 6.8-4 6.8-8 0-5.3-3.3-9-8-9"/><path d="M80 115.5c0 1.6.5 2.2 2.3 2.2h1v.5h-7.9v-.5h.4q2 .1 1.9-1.7v-13.3q0-1.5-1.3-1.5h-1.5v-.6l3.6-.1 3.5-.1c5.9 0 7.3 2.8 7.3 5 0 3.3-2.7 5.4-6.9 5.4q-1.1 0-2.4-.3zm0-5.5 1.6.2c3 0 5-2 5-5 0-2.1-.9-4.3-4.6-4.3l-2 .1zm17.3 8.2h-6.8v-.5c1.7-.1 2-.6 2-2.5v-12q.1-2.1-2-2v-.6h6.8v.6c-1.8 0-2.4.4-2.4 2.3v12c0 1.6.5 2.2 2.4 2.2zm17.5-12.9a7 7 0 0 0-6.4-4.4c-4.8 0-7.7 3.4-7.7 8.2 0 5 3.7 8.8 8 8.8 2.2 0 5-.7 6.9-4.1h.5c-.4 1.2-1.1 3-1.8 4-1.8-.2-3 .8-6.4.8-5.7 0-9.8-3.7-9.8-9 0-5.4 4.2-9.4 10-9.4 3.6 0 5.2 1.1 6 1.1l.6-.1h.4l.2 4zm6.6 5.1-1.6 4.4-.6 1.8q0 1.1 2.3 1h.4v.6h-6.5v-.5c1.8 0 2.2-.4 3-2.8l5.2-14-.3-.7h2.5l5.9 15.7c.6 1.5 1.2 1.8 2.6 1.8v.5h-7.8v-.5h.7q2.3.1 2.2-1 0-.7-.3-1.2l-1.9-5.1zm2.9-7.8-2.4 6.6h4.9zm23 15.6h-12.6v-.5h1q1.8.1 1.7-2v-12.4c0-1.5-.4-2.1-2.2-2.1h-.4v-.6h8.3v.6h-1c-1.9 0-2.3.2-2.3 2v13q0 1 1.1 1h4.1c1.7 0 2.2-.7 4-3.1h.5zm-20.1 26.2-16.3-17v13.4c0 2.3.5 2.8 3.2 2.8v.6h-7.3v-.6h.2c2 0 2.5-.7 2.5-2.1V126q-1-.8-2.6-.8v-.6h5l14.7 15.4v-12.5c0-2-.6-2.3-3.1-2.3v-.6h7.3v.6c-2.3 0-2.8.4-2.8 1.6v17.5zm18.2-7.3h-.6c-.2-2.2-.8-2.5-2.1-2.5h-5.3v6.7c0 1.4.5 1.7 1.7 1.7h4.8c2.2 0 2.9-.8 3.6-3.5h.6l-.5 4.7H131v-.6h.9c2.5 0 2.9-.7 2.9-2.6v-13.2c0-1.8-.4-2.5-2.5-2.5h-.7v-.6h15l.3 4.3h-.6c-.4-2.6-1.2-3.2-2.3-3.2h-6.6v7.7h5.6q1.6.2 1.8-2.3h.6zm-50.6-7.2a7 7 0 0 0-7-4.8c-5.2 0-8.5 3.8-8.5 9 0 5.6 4 9.7 8.8 9.7 2.4 0 5.5-.8 7.6-4.6h.6c-.4 1.4-1.3 3.4-2 4.6-2-.3-3.4.8-7 .8-6.4 0-10.9-4.1-10.9-9.9 0-6 4.7-10.4 11.2-10.4 3.9 0 5.6 1.3 6.5 1.3q.5 0 .6-.2h.5l.2 4.5zm10.3 14.2h-7.5v-.6c1.9 0 2.3-.6 2.3-2.6v-13.3q.1-2.4-2.3-2.3v-.6h7.5v.6c-2 0-2.6.5-2.6 2.6V141c0 1.8.5 2.4 2.6 2.4zm-29.8 0h-7.5v-.6c1.9 0 2.3-.6 2.3-2.7v-13.2q.1-2.3-2.3-2.3v-.6h7.5v.6c-2 0-2.6.4-2.6 2.5v13.3c0 1.8.5 2.4 2.6 2.4zM40.8 137h-.6c-.2-2.2-.8-2.4-2-2.4h-5.3v6.6c0 1.5.5 1.8 1.6 1.8h4.8c2.2 0 2.8-.9 3.6-3.6h.6l-.5 4.7H26.5v-.6h.9c2.5 0 2.9-.7 2.9-2.6v-13.1c0-1.8-.4-2.5-2.5-2.5h-.7v-.6h15l.2 4.3h-.6c-.4-2.6-1.2-3.2-2.3-3.2H33v7.7h5.5q1.6.2 1.8-2.4h.6z"/></svg>