<svg xmlns="http://www.w3.org/2000/svg" width="240" height="25" fill="none" class="w-full h-auto transition duration-500"><g><path fill="#000" d="M34.894 18.758v5.75H30.57V.527h4.324v12.589L46.244.527h5.189l-9.655 10.827 10.736 13.153h-5.549l-8.18-10.05-3.891 4.3ZM213.088 24.507h-3.997L195.65 7.687v16.82h-4.212V.527h3.891l13.546 17.103V.527h4.213v23.98ZM186.464.527h-4.323v23.976h4.323V.527ZM178.431 24.507H161.93V.527h4.323v20.168h12.178v3.812ZM157.424 7.685h-4.467c-.394-2.398-2.056-4.057-5.621-4.057-2.776 0-4.611 1.48-4.611 3.422 0 1.8 1.335 2.68 3.78 3.14l3.709.705c4.251.814 7.349 2.859 7.349 6.807 0 4.443-3.929 7.301-9.472 7.301-6.197 0-10.127-3.07-10.521-8.32h4.396c.432 2.782 2.666 4.583 6.125 4.583 2.699 0 4.971-1.302 4.971-3.277 0-1.518-.975-2.68-3.641-3.173l-4.069-.776c-4.722-.916-7.1-3.14-7.1-6.558 0-4.475 3.819-7.474 9.262-7.474 4.938 0 9.334 2.045 9.91 7.686M133.714.527h-4.323v23.976h4.323V.527ZM124.429 24.507h-4.002l-13.441-16.82v16.82h-4.213V.527h3.891l13.547 17.103V.527h4.218v23.98ZM97.799 24.507h-3.997l-13.44-16.82v16.82h-4.214V.527h3.892L93.585 17.63V.527h4.213v23.98ZM58.964 10.508h11.64v3.91h-11.64v6.173h13.475v3.916H54.64V.527h17.798v3.916H58.964v6.065ZM222.378 18.758v5.75h-4.323V.527h4.323v12.589L233.729.527h5.188l-9.655 10.827 10.736 13.153h-5.548l-8.181-10.05-3.891 4.3Z"/><path fill="#00E63C" d="M12.25.512H0v11.987h12.25V.512Z"/><path fill="#231F20" d="M2.64 12.5V4.253l7.274 8.245H2.64ZM9.608.512h-6.85l6.85 7.71V.511Z"/><path fill="#00E63C" d="M24.5.512H12.25v11.987H24.5V.512Z"/><path fill="#231F20" d="M12.25.512v11.987H24.5V9.895h-9.353V7.812h6.201v-2.6h-6.201v-2.1H24.5v-2.6H12.25Z"/><path fill="#00E63C" d="M12.25 12.5H0v11.988h12.25V12.5Z"/><path fill="#231F20" d="m9.91 12.5-3.713 5.185L2.642 12.5H0v11.988h2.69v-7.635l2.532 3.808h1.825l2.512-3.648v7.475h2.69V12.5H9.91Z"/><path fill="#00E63C" d="M24.5 12.5H12.25v11.988H24.5V12.5Z"/><path fill="#231F20" d="M23.202 18.518c0-2.633-2.113-4.748-4.803-4.748s-4.852 2.115-4.852 4.748c0 2.632 2.162 4.7 4.852 4.7 2.69 0 4.803-2.115 4.803-4.7Z"/></g></svg>