<svg viewBox="0 0 2251 662" xmlns="http://www.w3.org/2000/svg"><g fill="#002147"><path d="M174 23.4a274 274 0 0 1 372 297.5 269 269 0 0 1-102.5 171.8q-3 2.4-5.6 5.2a202 202 0 0 1-120 58.4q2.6 10.6 6.9 20.8l-5.6 5.5c-5-2.8-11.9-1.2-14.5 4-3.3 5.9.8 14 7.4 14.8 5.3 1 10-2.5 13.3-6.3a37 37 0 0 1-3 26.3 78 78 0 0 1-41.3 33.9c-2.4.8-5 2.4-7.5 1.2a81 81 0 0 1-44.2-33.6c-5-8.3-6-18.4-3.7-27.7 3.3 4.2 8.7 7.5 14.2 6 5.8-1.4 9.3-8.5 6.7-13.9a10.3 10.3 0 0 0-14.1-5q-3-2.6-5.8-5.5c4.3-7.4 8.3-15 11.2-23-10.4-2.1-20.6-5.2-30.8-8a65 65 0 0 1-85.4-43.5A274 274 0 0 1 3.2 255.9c3.5-47.6 20-94.2 47.2-133.5 30.4-44.2 74-79 123.7-99m68.8-10A266 266 0 0 0 20 206a266 266 0 0 0 99.7 285.3 64 64 0 0 1 8.6-38q-4.8-4.5-9.2-9.6l2.1-1.5q4.6 3.9 9.7 7.3a66 66 0 0 1 27-22.3 191 191 0 0 1 162.8-336 191 191 0 0 1 145.6 205 192 192 0 0 1-132 162.5 18 18 0 0 0-9.8 6.9 60 60 0 0 0-9.6 29.6c40 9 82.7 7.3 121.3-7a263 263 0 0 0 102-252.2A264 264 0 0 0 497 130 266 266 0 0 0 242.9 13.5m2 82.8a183 183 0 0 0-80.3 326.2c1 .7 2 2 3.5 1.3a65 65 0 0 1 73.3 33 183 183 0 0 0 189.8-82.5 183 183 0 0 0-82.6-265.7 183 183 0 0 0-103.8-12.3M137.6 453.7l10.3 6a45.4 45.4 0 0 1 57.3-13.8q12.5 5.3 25.6 8.6a56.4 56.4 0 0 0-93.2-.7m17.4 9.8q15.3 7.7 31 14.3c3.1 1.4 6.8 2.6 8.3 5.9 2.5 4.8-.4 11.4-5.7 12.6-4 1.3-7.6-1.4-10.8-3.3a280 280 0 0 1-27.6-20.7 37 37 0 0 0 1 30.2A47 47 0 0 0 172 522a247 247 0 0 0 78.5 26.3 226 226 0 0 0 131-19 194 194 0 0 0 42.3-29 227 227 0 0 1-106.7 3 321 321 0 0 1-103.3-43c-7.3-4.1-14.2-9.6-22.7-11a37 37 0 0 0-36 14.3m-20.7-4.7a56.6 56.6 0 0 0 60.6 82.5c-12.4-5.4-24.9-10.6-36-18.3a47 47 0 0 1-16.8-21.3 46 46 0 0 1 1.4-34.8q-4.4-4.1-9.2-8.1m97.6 3.3q10.4 5.8 21 10.8 2.4-3.3 5.5-6c-9-1-17.7-3-26.5-4.8m45 5.6c-6.6-.1-13.2 3-17 8.5q22.9 10.5 47 16.8c1-10.4 3.9-20.9 9.7-29.7q-19.6 4.2-39.7 4.4m-39.3 105.4c4.7.5 9.4 2 12.7 5.4 7.2 6.9 7 19.8-.5 26.3a20 20 0 0 1-17 4.1c1.8 9 7.4 16.8 14.1 22.9 8 7.4 17.7 13 28 16.5 6.6-1.3 12.5-4.8 18.2-8.1 11.4-7.3 22.2-17.6 25-31.3a19 19 0 0 1-18-5.2c-6.9-7-6.3-19.9 1.3-26.2a20 20 0 0 1 13.3-4.4q-3-7.8-5-16a231 231 0 0 1-63.9-2 117 117 0 0 1-8.2 18"/><path d="M223.7 29.6q4-1.3 8.2-2.4c-2.1 10.7-4.5 21.2-6.4 31.8 1.4 6.2 3.5 12.2 5.1 18.3l-7.1 2.2q-2.6-8.2-4.8-16.4c-.4-2-2-3.2-3.2-4.6l-17.2-17.8q-1.5-1.4-2.3-3l7.3-2.2q8.3 8.4 16.4 17zm113.8 4.1a21 21 0 0 1 23.3 11.5 29 29 0 0 1-8 32.7A21.2 21.2 0 0 1 318.4 62c-.7-12.1 6.6-25.9 19.2-28.3m1 6.8c-7 2.2-11 9.5-12.1 16.3-1.2 6.1.3 13.4 5.9 17a13 13 0 0 0 16.9-2.7c5-6 7.6-14.7 5-22.3a13 13 0 0 0-15.8-8.3m-65 2.1c4.5-1.9 9.8 2.7 8.6 7.5-.8 4.7-7.2 7-10.7 3.6-3.8-3-2.5-9.7 2-11.1M146.7 60l31-16 3 5.9-12 6.2q9.3 18.2 19 36.4l-6.8 3.7-19-36.6-12.2 6.3zm222.9 34.8 24.2-41.2L416.6 67q-1.6 3-3.3 5.7-8.1-4.9-16.3-9.6l-6.7 11.3 15.4 9.2-3.3 5.4-15.3-9-11 18.6zM120.5 78.6l6.2-4.5 28.9 38-6 4.6q-14.7-19-29-38.1m1229 7.1c14.5-3 30.8.4 41.9 10.6l-6.7 8.4a42 42 0 0 0-21.7-8.6c-6.9-.5-14.4.6-19.8 5.2-5.2 4.3-7 12-4.6 18.3 1.4 3.5 4.3 6.2 7.4 8.3 10.4 6.7 22.8 9.8 33 17.1a31 31 0 0 1 13.1 20c1.4 9.5-1 19.7-7.4 27a33 33 0 0 1-18 10.3 54 54 0 0 1-45.4-11l6.2-9.3c8 5 16.8 9.2 26.3 9.8 6.3.3 13-.7 18.2-4.7 5.7-4.4 7.7-12.3 6.6-19.2-1.1-5.8-5.5-10.2-10.2-13.3-11.3-7.5-25.1-10.6-35.4-19.7s-11.1-26-3.2-37a32 32 0 0 1 19.6-12.2m432.5-.6c12-1.5 24.8 1 34.8 8.1a58 58 0 0 1 22.7 42.7c1.7 18.7-2.5 39-15.8 52.7a50.5 50.5 0 0 1-59.2 9 55 55 0 0 1-26.9-39.7c-3-18.2-.3-38.3 11-53.4A49 49 0 0 1 1782 85m-3.7 12.5c-6.8 1.7-13 5.9-17.3 11.4-6.1 7.6-9 17.3-10 27-1 10.6-.1 21.7 4 31.7 3 7.1 7.9 13.7 14.3 18a34.4 34.4 0 0 0 42.3-3c7.2-6.7 11-16.2 12.8-25.8 1.8-11.2 1.7-23-2-33.8a36 36 0 0 0-44.2-25.5M693 86.8h13.6l.1 78.2c0 6.7 1.6 14 6.5 18.8 6.9 7 17.4 8.8 26.8 7.4a24 24 0 0 0 18.5-12.8c2.5-5.4 2.7-11.6 2.9-17.4l.1-74.2h13.4V138c-.1 11.3.5 22.8-1 34-1 7.8-4 15.6-10 21a44 44 0 0 1-31.9 10.4c-12.2-.4-25-5.2-32.4-15.3-5.5-7.5-6.5-17-6.6-26zm126 0h14l55.3 94-.2-94h12.6l-.1 114.5-14.3-.1q-27.4-47-55-93.6l.2 93.7H819zm129.5 114.5V86.8h13.7v114.5zm44.1-114.5h14.4l33.4 101 34.4-101h13.3l-40.2 114.5H1032zm126.7 0h62.2v11.5h-48.7V136h45.8v11c-15.2.3-30.5 0-45.8.1v42.3l50.1.1v11.8h-63.7zm100 114.4c.2-38.2-.1-76.3.2-114.5 12.5.3 25-.1 37.5.4 7.9.4 16.2 2.2 22 7.8 9.5 8.6 12 23 8 34.9a29 29 0 0 1-23.1 17.5c6.8 1 11.5 6.6 14.3 12.6 6.5 13.7 12.4 27.6 18.6 41.4h-14.2c-5.5-11.6-10.3-23.6-15.9-35.2-2.7-5.5-6.2-11.5-12.5-13.3-7-1.9-14.2-1.2-21.3-1.3v49.8zm13.6-103.4v42.7c8.7-.1 17.5.6 26-1.6a21 21 0 0 0 13.4-9.5c4-7 3.8-16.3-.6-23.1-3.7-5.5-10.4-8-16.7-8.3-7.4-.4-14.8-.1-22.1-.2m197.7-11h13.8v114.5h-13.8zm44.6 0h81.7v11.4H1523v103l-13.6.2c-.4-34.4 0-68.8-.2-103.2h-34zm97.8 0h15.8l28 53.5c9.5-17.6 18.3-35.7 27.5-53.5h15q-18 33.9-35.7 67.9-1 2-.8 4.4v42.2l-13.6-.1q.2-22.5-.1-45.2c-11.8-23.2-24.2-46-36.1-69.2m304.6 0h60.8v11.4h-47.2V136h44.4v11c-14.8.3-29.6 0-44.3.1v54.2h-13.7zM84.8 116a21 21 0 0 1 17.6-16.5q.8 3.2 1.3 6.4c-5.3 1-10.8 4.5-11.9 10-.7 3.6 3 6.9 6.4 6 6.4-1.4 12-5.7 18.8-5.5 8 0 14.7 8.7 12.6 16.5-2.3 8.5-10.4 14.3-18.8 15.7l-1.5-6.4c5-1.4 11-3.7 12.8-9.2 1.7-4-1.7-9-6-8.6-6.7.6-12.3 5.3-19.1 5.5-7.1.3-13.4-6.8-12.2-13.8M429.2 104c4-2.2 9.6 1.3 9.4 6 .2 5-6 8.3-10.1 5.5-4.2-2.5-3.8-9.5.6-11.4m36.3 28.5c4.8-1.3 10-1.3 14.5.6 9.8 3.9 16 15.9 12.3 26a30 30 0 0 1-23 18.4 21 21 0 0 1-20.4-8.4c-4-5.3-5.4-12.5-3.2-18.8 3-8.8 11-15.3 19.8-17.8m3 7c-7.3 2.2-14.7 7.6-16.4 15.5-1.9 7.7 4.9 16 13 15.4a25 25 0 0 0 19.5-12c3.4-5.8 1.3-14-4.4-17.6a14 14 0 0 0-11.6-1.3m-253-4.1 2.2-.3q8.2 10.9 15.6 22.1l-7.6 1.7c2.8 5 6.3 9.5 9.5 14.3q7-5.2 13.5-11.3-3-1.4-5.8-3c.2-1.4 1.5-2 2.5-2.7l14-9.9q1.9-1.7 4.4-1.8c-3.6 12-7.8 24-11.6 36a118 118 0 0 0-37.2-4.5c-11.3.4-22.9.7-33.6 4.6q-6-18-11.7-36c3-.2 5.2 2.5 7.7 3.9 4.7 3.5 10.2 6.1 14.4 10.4q-3 1.2-6 3c3.7 4.2 8.2 7.6 12.3 11.4 3.4-4.7 7-9.3 9.6-14.5l-7.4-1.6c4.7-7.5 10.2-14.5 15.2-21.8m107.7 14.8 10.7-15.1c3.3-.1 4.3 3.6 6.2 5.7 3.6 5.7 8.3 10.6 11.2 16.7l-7.3 1.3c2.6 5.1 6.3 9.5 9.3 14.4q7.2-5.1 13.6-11.3l-6-3c2-2.7 5.1-4.2 7.8-6.3 3.9-2.5 7.5-5.5 11.5-7.8l1.9-.1-11.7 35.8a117 117 0 0 0-36.4-4.5c-11.6.3-23.4.7-34.5 4.5l-11.7-35.8c3.6-.2 6 3 8.8 4.5 4.4 3.3 9.7 5.5 13.3 9.7l-6 3q5.8 5.7 12 11l.8-.1c3.3-4.3 6.1-9 9.3-13.5-2.2-1.3-4.8-1.3-7.3-1.8 1-2.8 2.9-5 4.5-7.3M57 153c2.2-3.5 5.6-6.6 10-6.8 7.8-.9 16.4 6.4 14.2 14.7 3.7-1.8 8-1 12-.7l13.6 1.2-4 7c-6.3-.3-12.6-1.5-18.9-1.3-4 .3-5.5 4.5-7.2 7.5q8.7 4.6 17.4 9.5l-3.7 6.6-42-22.8q4-7.6 8.6-15m7 2c-3 2.5-4.4 6.2-6.4 9.4l13.5 7.3c1.7-3.4 4-6.7 4.2-10.6 0-5.4-7-9.5-11.3-6.1m445.6 25.4 2.8 8.1c-4 5.2-8.9 9.7-12.7 15q9.6 2 19.1 4.4l2.4 7.6q-13-3.3-26.3-6.3-9.3 11-18.5 22.3-1.6-4-2.8-8.2 7.1-8 14-16.3c-6.9-1.7-13.9-3-20.7-4.8-1.5-2.3-1.9-5.3-2.9-7.8 9.6 2.1 19 4.7 28.6 6.7 5.4-7 11.4-13.7 17-20.7m-312.8 5a156 156 0 0 1 35.6-.5c5.2.6 10.6 1.2 15.4 3.4 1.5.5 2.9 2.6 1 3.6-3.1 2-7 2.6-10.7 3.3a153 153 0 0 1-36.2.8 56 56 0 0 1-15.6-3.2c-1.4-.4-2.1-1.7-3-2.7 3.6-3.3 8.8-3.8 13.5-4.7m106.7 3.1c5.1-2.5 11-3 16.6-3.7 13-1 26.1-1 39 1.3 3.3.9 7.5 1.3 9.3 4.8-4 3.3-9.4 3.9-14.4 4.7a152 152 0 0 1-40-.3c-4-.8-8.2-1.2-11.5-3.7-1.3-1 0-2.6 1-3M30 221.8l7.9-26.5 6.3 1.7-5.8 19.2q6.4 1.6 12.8 3.5c1.7-5.8 3-11.8 5-17.4l6 1.8-4.9 17.3q7.2 1.8 14.4 4l5.3-18.9 6.5 1.7-7.3 26.3zm156-6.1h54c7.3.2 15 0 21.5 3.9 7.3 4.3 10.4 13.2 10.5 21.4v99q0 3.2-.3 6.2c-2-3-1.4-7.1-3.9-10-4.3-5.8-12.2-6.3-18.8-6.5h-63zm7 18.1 2 2.2q.4 5.5 0 11.1c.3 1.5-1.5 2-2.3 3 4.6-.1 9.7.8 13.8-1.7 4.7-2.9 5-11.2-.4-13.6-4.1-1.6-8.8-.8-13.1-1m24.2.4c-6 2.5-6.6 12.4-.6 15.3 5.3 3.1 13-1.1 12.6-7.5.6-6.2-6.6-10.5-12-7.8m13.5-.4c.8 1 2.7 1.5 2.4 3a84 84 0 0 1-.6 10.1c0 1.5-1.4 2.3-2.3 3.3q3.5.1 7-.4l-2.6-1.5c-.3-3.2 0-6.4 0-9.5 2 3.5 3 7.5 4.8 11.1l1.2-.1c1.9-4 3-8.3 5-12.1v10.7l-2.4 1.7h8.7l-2-2.2q-.6-6-.4-12l2.2-2.1h-6.5l-3.7 10-4.5-10zm22.3 0c3.1 1.6 2.1 5.3 2.3 8.1-.2 3 .8 6.5-2.3 8.2h8.8l-2.1-2.2q-.4-6 0-12l2-1.9q-4.3-.4-8.7-.2M203 264c.9 1 2.7 1.5 2.8 3q.3 5.8-.1 11.5l-2.3 1.8q3.6.2 7.1-.2c-5-1.4-2.4-7.5-3-11.2 3.3 3.6 6 7.7 9.2 11.5l2 .4c.6-5-.4-10.3.8-15.3l2.2-.7c-2.2-1.3-4.9-.7-7.3-.7 4.5 1.5 2.7 6.7 3 10.3L209 264zm19.2 1.2c4.2 4 3.9 11.3 7.7 15.5l1-.3c3-5.3 3.4-12.4 8.4-16.4h-6.8l2.1 2q-1.3 4.4-3 8.7-2.1-4.4-3.6-9.1l2.3-1.5q-4.4 0-8.7-.2zm20-.6c-2.4 1.4-3.1 5.2-1 7.1 1.7 1.5 3.8 2.2 5.5 3.7 1.2 1.5.3 4-1.8 4-2.6-.1-3.5-3.1-5.5-4.4l.8 4.9c2.5.7 5.2 1.3 7.7.1a5 5 0 0 0 2.3-7.1c-1.6-2.4-4.9-2.7-6.6-4.9-1-1.8 1.4-3.8 3.1-2.8q1.8 1.6 3.3 3.6 0-2.2-.4-4.6c-2.4-.4-5.1-1-7.4.4M201 294.4l2.4 1.5q.2 6.4 0 12.8l-2.4 1.6q4.5.3 9 .2-1.2-1-2.1-2.4c-.3-4 0-8 0-12l2.3-2q-4.6 0-9.2.3m10-.1 2.3 1.5q.5 6.5 0 12.8l-2.4 1.7c4.3.4 8.5.1 12.8.3l1-5c-1.7 2.3-3.7 4.4-6.9 3.5q-.2-6 0-12.1c0-1.4 1.6-2 2.4-3zm14.1 0 2.4 1.7v12.2l-2.4 2.3H238l.8-4.9c-1.7 2.3-3.7 4.3-6.8 3.6q-.3-6 0-12.1c-.1-1.5 1.4-2.1 2.3-3zm10.7 0c1 .9 2.4 1.7 2.9 3.1q2.7 6.6 5 13.3l2 .3c1.9-4.6 3.4-9.3 5.5-13.7.6-1.4 1.9-2.1 3-3H247l2.5 1.7-3.1 9.3q-2-4.6-3.7-9.3l2.2-1.8zm52.4-73.1c5.8-4.8 13.7-5.3 20.9-5.4h57.2v113.8q-27.6.2-55.3 0c-7 .2-14.5-.5-21.2 2.3a13 13 0 0 0-8 10.2c-.5 1.2 0 3.2-1.5 3.8q-.4-2-.4-3.9V242c0-7.6 2.2-15.8 8.3-20.8m2.5 12.6 2.3 2.2a76 76 0 0 1-.5 10.9c0 1.5-1.4 2.2-2.2 3.2h6.4v-.7l-2.1-1.2q-.3-4.7 0-9.5c2 3.6 3 7.5 4.8 11.1h1.2c1.8-4 3-8.2 5-12.1v10.7l-2.4 1.7h8.8l-2.2-2.2q-.4-6-.4-12l2.4-2-6.6-.1-3.7 9.6q-2.5-4.6-4.4-9.6zm22.4 0 2 2.3q.4 6 0 11.8l-2.2 2.2h9l-2.2-2.2q-.4-5.9 0-11.8l2.1-2.3zm9.1 0q1.6 1 2.7 2.3.6 5 .2 9.9c.3 1.8-.8 3.1-2.4 3.9q3.7.7 7.3-.2l-3-1.1q-.5-5-.2-9.9 3.4 4 6.4 8c1.3 1.7 2.5 4 5 3.9q-.2-6.9.2-13.8c-.2-1.5 1.6-2 2.4-3h-7.2l2.7 2c.5 2.8.3 5.6.4 8.4l-8.6-10.5zm17.4 16.2h6.8l-2.4-1.6 1-3.3h4.2l1.1 3.4-2 1.4q4.3.2 8.7.1c-1-1-2.3-1.8-2.8-3.2-1.8-4.4-3-9-5-13.4l-1.2.1c-3.5 5.1-3.4 12.4-8.4 16.5M302 263.4v5.6c1-2 2.4-4 4.9-4v13.5L304 280q5 .3 10 0l-2.9-1.6V265c2.5 0 3.8 2 5 3.9l-.1-5.3c-4.7.4-9.5.8-14.2-.2m15.7.6 2.4 1.9c0 4 .3 8.2-.1 12.2l-2.1 2.1h8.9l-2.3-1.8v-11.5c-.2-1.5 1.5-2 2.2-3zm14.9.7c-4.4 2.5-5.5 9.1-2.3 13 3 3.6 8.9 3.9 12.3.8 3.5-3.3 3.6-9.7 0-13a9 9 0 0 0-10-.8M297.8 294c1.3 1 3 2 2.5 4-.5 4.2.6 9-2.4 12.5 2.1 0 4.4.1 6.5-.5-4.7-1-2.2-7-2.4-10.4 2.2 3.5 3 7.6 5 11.2 2.7-4 3.7-8.9 5.7-13.2-.5 4.2 2 9.8-2 12.8h8.6l-2.1-1.8c-.7-4.2-.4-8.5-.6-12.7l2.6-1.8h-6.8l-3.7 9.8q-2.4-4.9-4.6-9.9zm22.3 0 2.3 2v12.1l-2.6 2.2h13.4l.8-5-3 3.5-4.1.3-.2-6.7c2.2-.1 3.7 1.3 4.8 3v-6.6a6 6 0 0 1-4.7 2.6l-.1-6c2.8-.6 4.6 1.1 6 3.3l-.1-4.6zm13.8 16.3h6.4l-2.1-1.8 1-3.2h4.2c.8 1.8 1 3.6-.4 5l8.2-.1c-1.2-1-2.6-1.9-3-3.4-1.8-4.5-3.2-9.2-5.1-13.7-4.9 4.6-4 12.8-9.2 17.2"/><path d="M146.1 223.2c2.6-3.7 9-3.8 11.4.2 1.7 3.3 5.8 3.3 8.8 4.4v-3.6h7.9v120.4h87c1.4 3.4 3 7.1 6.8 8.4a26 26 0 0 0 16 0c3.8-1.2 5.6-5 7-8.4h87.3V224.2h7.8v128.3h-90.4c-4.8 8.6-15.7 10.7-24.8 9.3-6-.7-11.4-4.2-14.5-9.3h-90l-.1-8.6q-3.6 1.4-7.2 3.2c-1 3.5-4.3 6.5-8.2 5.8-5-.5-8-6.8-5-10.9 2-3.5 6.7-4 10.1-2.3l10.3-4.4v-9.4l-7 2.2c-1.4 3.2-4.6 5.9-8.3 5-5.2-.7-7.8-7.6-4.3-11.5 2.4-3.2 7.1-3.3 10.3-1.1l9.3-2.8V308l-7.1 1.2c-1.8 2.7-4.7 5-8.2 4.2-5.1-.7-7.6-7.7-4.1-11.6 2.6-3.5 7.9-3.1 11-.4l8.4-1.4v-9.9l-7.4.3c-2.7 3.6-8.4 4.8-11.6 1.2-3.9-3.7-1.6-11 3.8-12 3-.8 5.4 1.3 7.8 2.8q3.7.1 7.4-.2v-10.7l-8-.3c-1.9 1.9-4.5 3.5-7.4 2.8-4.6-.8-7.2-6.7-4.7-10.6 2-4 7.9-4.8 11-1.6 2.3 2.6 6 1.4 9 1.8l.1-9.8-8.7-1.6c-2.2 1.6-4.9 2.9-7.5 1.9-4.4-1.3-6.4-7-3.8-10.7 2.2-3.9 8.3-4.5 11.1-1 2 3.1 5.8 2.6 8.9 3.3V236c-3.1-.8-6.2-2-9.3-2.7-2.5.5-5 2.1-7.5 1-4.4-1.4-6.3-7.4-3.4-11"/><path d="M199.4 235c6.6-.6 7.7 8.7 4.3 12.6-1 1.2-3.8 2-4.1 0-.5-4.2-.2-8.4-.2-12.6m19.8.1c2.6-1.4 4.6 1.7 4.9 3.9.5 3.2 1 7.2-1.4 9.7-2.6 1.7-5-1.4-5.3-3.8-.6-3.2-1-7.5 1.8-9.8m126.2 8.5 1.8-4.6 1.5 4.8zm133.3 4.4q23.8-2 47.7-3.8l2 26.3-6.5.5-1.5-18.8-13.1 1c.2 6 1 11.9 1.3 17.8l-6.4.5-1.4-17.7-21.6 1.7zm-453.4-3 47.1 19.1q0 4-.3 8l-48.4 14.4v-7.9q19.5-5.4 38.8-11c-12.2-5.4-25-9.7-37.4-14.7zm310 20.2c1.5-.9 3.3.2 4 1.6a15 15 0 0 1 .9 9.2c-.2 1.7-1.3 3.5-3.2 3.4-2.9-.7-3.7-3.8-4-6.3-.1-2.7-.1-6.1 2.3-8m157.1 26.4c11.7-3 26.2 1.3 31.7 12.7a21.6 21.6 0 0 1-6.7 26.2 29 29 0 0 1-35.6-4.3c-5.5-6-6.6-15.2-3.5-22.6a21 21 0 0 1 14.1-12m3.2 7.2c-6.6.8-12.4 6.4-12.3 13.2-.5 6.4 5 11.3 10.5 13.2 6.3 2.3 13.8 2.8 19.6-.8 6.2-3.8 8-13.3 3.3-19-5-6-13.7-7.7-21.1-6.6m-156 5.3q.7-2.4 1.7-4.9l1.6 4.8zm444-1.3a131 131 0 0 1 98.8 30 120 120 0 0 1 34.3 49.4c13.2 36 9.3 78-10.9 110.7a123 123 0 0 1-61.7 50.6c-40.2 15-87.8 9.6-122.9-15.5a120 120 0 0 1-47.5-71.4 129 129 0 0 1 24-108 126 126 0 0 1 85.9-45.8m3 12a74 74 0 0 0-36.7 15A94 94 0 0 0 721 370a160 160 0 0 0-10 67.2c1 19 4.8 38.3 13.3 55.5a84 84 0 0 0 32 36.1A82 82 0 0 0 808 539c13.8-1.6 27.2-7 38-15.8 13-10.5 22.2-25 28.2-40.6 8.5-22 11-46 9.3-69.5a139 139 0 0 0-15-55.6 82 82 0 0 0-33.5-34.4 83 83 0 0 0-48.6-8.2m771.3-12.1a131 131 0 0 1 100.8 30.8 120 120 0 0 1 32.7 47.3 129 129 0 0 1-13.1 116.2 124 124 0 0 1-70.3 49.9c-39.2 10.6-83.6 3-115.8-22.2a121 121 0 0 1-45.5-80.6 127 127 0 0 1 31.2-101.5 126 126 0 0 1 80-39.9m3.9 12A74 74 0 0 0 1530 326a88 88 0 0 0-31 37c-9 19-12.9 40-13.3 61-.2 21.7 2.7 43.7 11.4 63.8a88 88 0 0 0 31 38.9 79 79 0 0 0 45.8 12.8c15.5-.2 31-4.8 43.6-13.9a93 93 0 0 0 31-41.2 161 161 0 0 0 10-70.5 139 139 0 0 0-15-56.6 82 82 0 0 0-33-34.1 83 83 0 0 0-49-8.5m-1535-4.8q23.7-3.4 47.3-7l1 7.6-47.2 7zm909.3-3.9h106.1v8.8l-22.9 4.7c-1.9.4-4.2.8-5.4 2.5-.4 2.3 1.2 4.2 2.3 6l55 78.4c.6 1.9 2.3.9 2.9-.4q28.3-39.4 56.4-78.9c1.6-1.7 2.5-5-.5-5.8-8-2.8-16.5-4.4-24.7-6.5V306h85.3v8.8c-9.5 2.7-19.4 4.2-28.7 7.7-8.1 3-13.2 10.3-18.3 16.8l-63.1 79.6 75 98.9c4.1 5.9 9 11.5 16 14 8.1 3 16.8 4.7 25.2 7.1v8.7h-106.1V539c8.9-2.1 18-3.3 26.8-5.9 3.1-1 1.5-4.6 0-6.4l-52.2-73.6c-3-4-5.7-8.3-8.9-12-18.7 25-36.7 50.6-55.2 75.9-2.7 4-6 7.7-8.3 12-1 2.7 2.4 3.6 4.2 4.3 7.4 2 15 3.6 22.4 5.6l-.1 8.8h-85.2v-8.8l24-6a32 32 0 0 0 16.6-10.5l73.5-92Q1014 385 980 340c-5-6.6-9.5-14.2-17.4-17.5-8.6-3.5-17.8-5.2-26.7-7.7zm293.5 0h182.6v60.5h-10l-11.6-36.8a20 20 0 0 0-6-10c-3-2.1-6.8-2.3-10.3-2.2h-74.3v104h52.3c5-.1 10.6.6 15.1-2.3 4-2.4 5.7-7 7-11.2l5.6-19.4h10v80.5h-10l-6-24a16 16 0 0 0-5.5-9.4 18 18 0 0 0-11.2-2.8h-57.2v89c-.3 4.6 2.5 9.2 7.1 10.2 10.1 2.5 20.3 4.4 30.4 6.8q0 4.4.2 8.7h-108.2V539l22.7-5.5c3.5-1 7.4-1.8 10-4.6 2.1-2.4 2.2-5.8 2.2-8.8V332c.4-4.5-2.5-9-7-10.1-9.2-2.9-18.6-4.7-28-7.1zm497.6 0h94.1c19.1 0 38.7-.3 57.1 5.2a64 64 0 0 1 40.9 37 58 58 0 0 1-2 49.7 73 73 0 0 1-40.5 32.7c-4.2 1.7-8.6 2.3-12.7 4.2 8.6 4.6 14.5 12.6 20.5 20 17.6 22.5 34.6 45.4 51.9 68.2 4 5.2 9.7 9 16.2 10.4l25 5.5v8.7q-29.7.1-59.4 0c-6.5 0-11-5.3-14.5-10.1l-56.3-78.7c-5.6-7.6-11.9-16.1-21.7-18.2-9.2-1.9-18.7-.6-28-1q-.2 41.3 0 82.5a9.6 9.6 0 0 0 7.3 10q15 3.5 30.2 6.8v8.8h-108q-.3-4.5-.1-8.8c9.3-2.4 18.8-4.2 28-7a9.6 9.6 0 0 0 6.8-9.9V332c.4-4.5-2.4-9-6.8-10.1-9.2-2.8-18.7-4.7-28-7.1zm70.5 11.5v110.8l31.6-.2a67 67 0 0 0 30.4-6.7 41 41 0 0 0 17-17 69 69 0 0 0 7-32.4 56 56 0 0 0-10.6-34 51 51 0 0 0-35.7-19.7c-13.2-1.4-26.5-.6-39.7-.8m199.4-11.5h92.2c22.7 0 45.8-.6 68.2 4.3a112 112 0 0 1 50.3 24.3 120 120 0 0 1 40 83.3c2.1 30.5-4.2 62.8-23.2 87.4a104 104 0 0 1-43.2 32.1c-17.9 7-37.2 9.1-56.2 10-42.6.6-85.3 0-128 .3V539c9-2.3 18.1-4.2 27.1-6.8 4.6-1 8-5.3 7.7-10V333.8c0-3.1 0-6.8-2.3-9.2-2.5-2.5-6-3.4-9.2-4.3l-23.4-5.6zm70.5 11.5V525c.1 3 0 6.3 1.9 8.8 2.1 2.5 5.8 2.3 8.8 2.5l36-.1c15.3-.5 31-2 45.3-8a71 71 0 0 0 34-32c9-16.6 12.8-35.5 14-54.2 1-19.3 0-38.8-5-57.5a98 98 0 0 0-23.2-43.5 70 70 0 0 0-37.2-20.4c-24.5-4.8-49.7-2.6-74.6-3.1m-2034 28.3 45-15.8 2.6 6.9-26.1 31.7q16.5-6.7 33-13L90 362q-22.3 8.5-44.4 17.2-1.6-3.4-2.7-7L69 341l-33.2 11.6zm435.7-.3 43.4 19.5c-3 6.4-5 13.4-9.4 19-5.6 7-18 4.5-21.5-3.3q-1-2.8-1-5.7c-8.2 2.5-16.9 1-25.2 1.4l3-7.2c6.3-.5 12.6.2 18.8-.5 4.2-.5 5.5-5 6.9-8.3l-18-8zm17.5 28.6c.3 5.3 7.6 8.7 11.7 5.3 2.7-2.7 3.8-6.5 5.5-9.9q-7-3.3-13.9-6.3c-1.4 3.5-3.5 7-3.3 10.9M266.9 385c2.7-3.6 5-7.6 8-11 2.6-.9 3.5 1.9 4.8 3.4 4 6 8.5 11.7 12.3 17.8-1.1 2.3-5 1.3-7.2 2.5 3.3 4.8 6.2 9.8 10 14.2q6.6-5.5 13-11.2-3-1.8-6-3.2c4-4.3 9.5-7 14-10.6 2.3-1.3 4.2-3.9 7-3.7-3.2 12.1-7.8 23.9-11.4 35.9a121 121 0 0 0-35.4-4.4c-12 0-24.1.7-35.6 4.4q-5.3-16.8-11-33.6c-.7-1 0-3.4 1.5-2.1q10.3 6.6 20.2 13.8l-6.3 3.5 12.4 11.2q5.3-6.9 9.8-14.2-3.7-1.1-7.4-1.6c1.8-4 4.8-7.4 7.3-11.1m-182.1 2.8c4.3-2.9 9.7-5.2 14.8-3.2a21 21 0 0 1 13.2 20.5c-.4 5-4.5 8.7-8.3 11.5l-25.2 18-4.3-6.3 23.5-16.7c2.7-2.1 6.2-4.1 7-7.7 1-6-4.1-13-10.5-12.6-2.5.3-4.6 1.7-6.6 3l-25.2 17-4.2-6.1q12.8-8.8 25.8-17.4m352 15.2q5.2-7.2 10.8-14l37.3 29.8c-5.2 6.2-9.6 13.1-16 18-6.2 5-15.1 4.9-22 1.4a26 26 0 0 1-14.6-19 23 23 0 0 1 4.5-16.3m3.4 7.2c-2.4 5-.9 11 2.6 15 4.4 5.2 11.1 9.6 18.2 8 6.5-1.5 10-7.6 14.2-12.3q-13.5-11-27.2-21.7a44 44 0 0 0-7.8 11m-179.1 13.1c12.7-1 25.5-1 38 1.2 3.2.7 6.6 1.2 9.2 3.3 1.6 1.2-.2 2.8-1.4 3.3-5.2 2.4-11.1 3-16.8 3.6a148 148 0 0 1-37.6-1.3c-3.2-.8-6.8-1.3-9.3-3.6-1-1.6 1-2.7 2.2-3.2 5-2 10.4-2.7 15.7-3.3m-17.6 83.5c4-2.4 9.6.7 9.8 5.3.5 4.8-5.3 8.7-9.5 6.3-4.7-2-4.8-9.3-.3-11.6m66.9 10.8c4.3-2.5 10.2 1.6 9.5 6.6-.3 4.8-6.7 7.6-10.4 4.5-4-2.6-3.4-9.1.9-11"/></g></svg>