<svg xmlns="http://www.w3.org/2000/svg" width="427pt" height="131pt" viewBox="0 0 1300 401"><g fill="#2d0023"><path d="M145.22 0h7.34C191.8 1.45 230.6 12.23 265.2 30.74c-13.12 25.72-26.22 51.45-39.37 77.14-16.99-13.89-37.66-24.44-59.9-25.61-13.42-.67-27.97 2.12-38.02 11.66-9.32 8.41-11.83 23.62-5.27 34.39 5.15 7.41 13.18 12.22 21.27 15.85 11.94 5.48 24.84 8.28 37.26 12.44 17.47 5.44 34.63 12.32 50.17 22.07 12.64 7.93 24.21 17.95 32.53 30.43 12.78 18.97 17.27 42.35 16.9 64.92-.13 28.48-8.53 57.6-27.07 79.62-18.12 21.97-44.62 35.54-71.98 42.08-15.04 3.59-30.52 5.09-45.97 5.27h-7.26C82.58 400.21 37.43 384.65 0 358.21v-.11c14.11-26.53 28.22-53.06 42.34-79.58 18.9 16.65 40.81 30.97 65.72 36.45 13.94 2.96 28.77 3.55 42.54-.57 10.24-3.02 18.92-10.63 23.47-20.26 4.03-8.94 3.74-19.73-.53-28.52-5.17-9.63-15.28-15.13-24.93-19.39-21.49-9.13-44.12-15.17-65.78-23.84-14.41-5.42-27.98-13.36-39.21-23.94-9.59-9.25-17.03-20.69-21.81-33.11-6.52-18.31-7.11-38.21-5.28-57.39 3.11-31.06 18.1-61.34 42.9-80.69C83.64 8.3 114.82.15 145.22 0ZM324.45 390.44c-.03-126.63-.02-253.25 0-379.88 32.93.01 65.86-.01 98.8.01.01 98.72 0 197.45 0 296.17 44.52.02 89.05-.01 133.57.02v83.67c-77.46.02-154.92 0-232.37.01ZM604.45 85.57c-.19-25-.05-50.01-.07-75.01 22.34 0 44.68 0 67.02-.01 48.21 126.64 96.56 253.22 144.63 379.91-35.12-.04-70.24-.01-105.35-.02-9.8-27.87-19.37-55.83-29.26-83.66-25.68.08-51.37.03-77.05.03 0-25.05-.02-50.09.01-75.13 16.98.01 33.96.01 50.93 0-16.91-48.71-34.02-97.37-50.86-146.11ZM775.75 10.57c87.07-.01 174.13-.02 261.19 0 0 27.89.01 55.78 0 83.68-27.06.01-54.12 0-81.18 0-.03 98.74.03 197.47-.03 296.2-32.93-.03-65.86.01-98.79-.02-.02-98.72.01-197.45-.01-296.18-27.06 0-54.12.01-81.18 0-.01-27.9 0-55.79 0-83.68ZM1083.69 10.57c72.1-.02 144.21-.01 216.31-.01v83.69c-39.14 0-78.28.01-117.42 0-.03 21.12 0 42.24-.02 63.36 39.15.03 78.29 0 117.44.01v83.69c-39.15.01-78.29-.02-117.44.02.01 21.8.01 43.6 0 65.4 39.14.05 78.29 0 117.44.02v83.69c-72.1 0-144.21.01-216.31-.01-.01-126.62-.01-253.24 0-379.86Z"/></g></svg>