<svg xmlns="http://www.w3.org/2000/svg" xml:space="preserve" style="enable-background:new 0 0 652 652" viewBox="0 0 652 652"><path d="M270.5 316.8c-1.4 0-1.9-1-1.9-2.4l33.8-144.6c.5-2.4 2.4-2.4 2.9 0l31.4 144.6c0 1.4-.5 2.4-1.9 2.4h-64.3zm61.4-245.7c-5.6 5.7-12.4 10.1-19.8 13.1-1.9.5-2.4 1-2.9 2.9L240 378.2c-5.2 23.3-12.1 27.6-30.5 29-1.3-.1-2.3.9-2.4 2.1v5.6c-.1 1.3.9 2.3 2.1 2.4h66.4c1.3.1 2.3-.9 2.4-2.1v-5.7c.1-1.3-.9-2.3-2.1-2.4h-.3c-24.7 0-27.1-7.3-22.3-27.6l11.6-49.8c.3-1.4 1.5-2.4 2.9-2.4H337c1.4 0 2.6 1 2.9 2.4l12.9 60c2.9 12.9-1.9 16-18.4 17.4-1.3-.1-2.3.9-2.4 2.1v5.6c-.1 1.3.9 2.3 2.1 2.4h97.6c1.3.1 2.3-.9 2.4-2.1v-5.6c.1-1.3-.9-2.3-2.1-2.4h-.3c-15-1.4-21.3-3.9-24.2-17.4L334.8 72.1c-.5-1.4-1.9-1.9-2.9-1" style="fill:#e7131a"/><path d="M146.1 518.8c-6.2 0-11.5 4.7-18.1 13.8-3.1 4.2-7 10.3-8.7 12.9-1 1.3-1.8 1.1-1.2-.3l4.6-11.8 16.5-45.3c.8-1.9-5.8-4.1-7-1.9v.2c-2.8 6-8.1 8-17.5 7.6-9.4-.3-28.3-5.5-42.6-5.5-17.9 0-27.9 11-27.9 24 0 7.3 4.8 12 11.2 11.8 3 .2 5.6-1.8 6.2-4.7.4-1.7-.6-3.4-2.2-3.8-.6-.2-1.2-.1-1.8.1-6.3 1.3-8.5-3.1-8.5-6.4 0-8.1 6.9-14.1 21.3-14.1 3.7 0 10.9.9 18.6 1.7-9.7 29.2-19.5 56.3-21.9 62.7-.5 1.8-1.8 3.2-3.5 3.7-3.5 1.1-4.6 1.2-6.8 1.7-3.3.8-2.7 3.5-.4 3.4 4.1-.2 9.5-.8 13.7-.8 5.2 0 14.5.4 15.9.5 2.6.2 2.9-2.9.8-3.3-1.5-.2-4-.6-6.4-1-2.8-.3-3.7-1.5-3.1-3.8 1.4-3.8 18.1-52 21.4-62.1 5.2.6 9.6 1.1 12.5 1.3 6 .4 11.8 0 16.8-3.6l-13.2 37.3-11.6 31.9c-2 5.2 5.4 5.6 7.1 2.4 5.6-11.2 12.2-21.9 19.7-32 4.8-7 9.3-11.2 12.4-11.2 2.4 0 3.8 1.3 3.8 4.3 0 3.9-1.8 10-5.6 20.4-4.9 13.5-6.8 17.1-8.4 17.2-1.6.1-4.8-3.9-6.5-4.4-1.7-.5-3.5.3-4.3 1.9-.9 1.5-.3 6.4 7.1 6.8 8.8.4 16.4-8.6 21.6-23.1 3.6-9.8 4.5-14.9 4.5-18.4.1-6.9-3.2-10.1-8.5-10.1zm149.8 46.8c-5.6-1.3-7.8-3.4-7.8-5.6l.2-4.6c0-3.4 2.6-53 3.2-60.4.4-5.5-5.8-5.2-8.4-2l-5.2 6.6c-6.4 8-32 41-44.4 56.5-3.5 4.3-8.1 7.5-13.4 9.3-2.1.5-1.9 2.7.4 2.7 1.8 0 7.3-.6 11.3-.6 4 0 11.5.3 13.3.4 1.9.1 2.6-2 0-2.6-5.2-1.5-7.8-2.6-7.8-3.9 0-1.3 1.2-3.2 4-7.1 2.2-3.1 7.4-9.9 13.2-17.6h24.9c-.5 10.5-1.2 21.5-1.3 23.7 0 1.4-1 2.7-2.4 2.9l-5.6 1.6c-1.5.4-2.2 3.3.2 3.2 5.5-.3 10-.8 12.4-.8 3.6 0 9.7.8 12.5.9 3.2.2 2.8-2.1.7-2.6zm-15.5-40.1c0 2-.2 4.1-.3 6.4h-21.3c9.9-13.1 20.4-26.9 21.3-28.2.9-1.3 1.7-.6 1.6.3-.4 5-1 13.8-1.3 21.5zm-93.7-6c-9.5-.4-20.1 10.6-25.1 27.2-4.9 16 .5 22.7 6.5 22.7 4.4 0 11.7-5.7 15.7-12.2 1.4-2.3.3-4.7-1.8-2.3-2.7 2.9-6.4 6.1-10.3 5.4-2.6-.4-5-4.9-1.2-16 9.2-.4 19.9-5.7 22.7-14.3 2.3-7.6-2.6-10.4-6.5-10.5zm1 8.1c-2.3 6.8-10.3 12.4-16.1 13.8 5.6-14.7 10.9-18.7 14.3-18.6 1.8.1 2.6 2.2 1.8 4.8zm139.5-2.6h8.8c2 0 2.9-.5 3.4-2 .8-1.9.3-2.7-1.6-2.7H329l4.3-11.3c.5-1.5 0-2.3-.9-2.3h-4.6c-1.2 0-1.6.3-2.2 1.9l-4.6 11.8h-7c-1 0-1.8-.2-2.4 2.7-.2 1.4 0 2 1.4 2h6.2l-10.6 27.6c-1.7 4-3.1 8-4.4 12.1-.6 3.8 1.7 5.4 4.5 4.8 5.6-1 13.5-6.8 20.7-15.8 2-2.6.3-4.2-1.6-2.2-3 2.9-6.1 5.7-9.5 8.2-2.8 1.9-4.2.5-3.3-2.2l12.2-32.6zm98.4-2.6c.6-1.5-1.5-2-6.5-2.9-1.5-.3-2.4 1.3-5 6.8a10.2 10.2 0 0 0-9.1-3.7c-8 .2-17.8 7.4-25.9 18.4-6.4 8.8-8.4 15-7.2 21.5.7 3.8 4.1 6.6 8 6.5 6 .2 12-5.5 18.1-11.7l3.8-3.8c1.1-1.1 2.1-.4 1.4.9-2 3.4-3.6 7-4.9 10.8-.8 3.8 1.3 4.8 4.2 4.4 5.7-.8 14.5-6 21.3-15.4 1.9-2.7 0-4.3-1.8-2.2-3 3.1-6.2 6-9.7 8.5-2.9 2-4.3 1.4-3.4-.9.6-1.4 2.2-5.4 16.7-37.2zm-25.2 28.5c-6.9 6.3-12.4 10.9-16.3 10.9-2.6 0-3.8-1.1-4-2.9-.6-4.8 3.7-12.1 7.3-17 6.2-8.2 13.9-15 18.8-15 3.4 0 5.2 1.4 5.5 3.5.6 3.8-5.7 15.3-11.2 20.4l-.1.1zM552 518c-5.4 0-12.5 3.8-19.3 11.3-2.2 2.6-.5 4.3 1.5 2.4 2.3-2.1 4.8-4 7.4-5.7 2.3-1.4 3.8-.3 3.2 1.7-.5 1.7-2.2 5.7-3.4 8.4l-7.4 17c-2.1 4.8-4 9.6-4.5 10.9-1 3.4.8 5.2 3.5 5.2 5.2 0 12.3-4.3 19.2-11.9 2.2-2.6.5-4.2-1.5-2.4-2.5 2.3-5.2 4.3-8.1 6.2-2.3 1.4-3.9.3-3.2-1.8.5-1.5 2.2-5 3.3-7.5l7.5-17c2.2-5 4.7-10.3 5.2-11.8.8-3.2-.8-5-3.4-5zm6.5-26.4c-3.3-.2-6.2 2.2-6.5 5.6-.5 2.9 1.4 5.8 4.4 6.3.1 0 .3 0 .4.1 3.2.1 6-2.3 6.4-5.5.6-2.9-1.3-5.8-4.2-6.4-.1-.1-.3-.1-.5-.1zm30.3 28c-9.6-.4-19.9 10.7-24.9 27.1-5 16.4.4 22.7 6.8 22.7 4.4 0 11.7-5.2 16-12.2 1.4-2.3.3-4.7-1.9-2.3-2.7 2.9-6.2 5.7-9.8 5.5s-6.1-5.2-2-17.1c6.1-17.2 10.3-19.2 12.2-19.3 1.9-.1 5.7 4.8 8 5.4 1.7.5 3.5-.3 4.2-1.8 1.1-2.1.4-7.5-8.6-8zm-62 .8H518l4.2-11.3c.6-1.5 0-2.3-.9-2.3h-4.6c-1.2 0-1.6.3-2.2 1.9l-4.5 11.8h-7c-1 0-1.7-.2-2.4 2.7-.2 1.4.1 2 1.4 2h6.2l-10.6 27.6c-1.7 3.9-3.1 8-4.4 12.1-.7 3.8 1.6 5.4 4.5 4.8 5.6-1 13.5-6.8 20.7-15.8 2-2.6.3-4.2-1.7-2.2-3 2.9-6.2 5.7-9.5 8.2-2.8 1.9-4.3.5-3.3-2.2l12.2-32.6h8.8c2 0 2.9-.5 3.4-2 .9-1.8.4-2.7-1.5-2.7zm-164.6 30.8c-3.1 3.1-6.4 6-9.8 8.6-2.8 1.9-4.2.5-3.3-2.2l26.6-70.5c.4-1.1.2-2.6-1.3-2.6-5.2.3-10.4.9-15.5 1.8-.9.2-1.3 1.5-.3 1.8l5.9 2.2c1.2.4 1.3 1 .5 2.9l-22.9 59.4c-1.7 3.9-3.1 8-4.4 12.1-.6 3.8 1.6 5.4 4.5 4.8 5.9-1 14.3-6.8 21.6-16.3 2-2.5.4-4.1-1.6-2zm112.3.2 6.4-12.9c3.5-7.1 4.2-10.3 4.2-12.8 0-4.7-2.4-7.1-7.3-7.1-6.9 0-12.3 5.5-20.7 17.2-2.3 3.2-3.8 5.6-6.9 9.5-1 1.2-1.7 1.1-1.2-.3l4.2-10.6c1.7-3.7 2.9-7.6 3.5-11.6 0-2.8-1.2-4.1-4.2-4.1-3.7 0-8.4 2-16.6 12.3-2.9 3.8 0 4.2 1 3.1 1.6-1.7 5.2-5.4 7.5-7.4s4.5-1.4 3.6 1.1c-.6 2-1.3 3.9-2.1 5.8L433 565.3c-1.8 4.4 6.5 5.4 8 2.1 4.5-10.3 14.3-23.3 18.3-29 5.9-8.4 11-14.2 14.7-14.2 2 0 2.8 1.1 2.8 3.2-.2 1.8-.7 3.6-1.5 5.2l-9.2 19.5c-2.6 5.2-5 10.7-5.5 12.1-1.1 3.4.8 5.2 3.7 5.2 5.2 0 12.3-4.3 19.2-11.9 2.2-2.6.5-4.2-1.5-2.4-2.5 2.3-5.2 4.3-8.1 6.2-2.4 1.5-4 .3-3.3-1.9.8-1.6 2.7-5.6 3.9-8z"/></svg>