<svg xmlns="http://www.w3.org/2000/svg" width="500" height="500"><defs><clipPath id="a"><path d="M0 .06h257.646v28.203H0V.06z"/></clipPath><clipPath id="b"><path d="M0 0h258v29H0V0z"/></clipPath></defs><g clip-path="url(#a)" transform="matrix(17.91408 0 0 -17.95139 0 501.077)"><path d="M0 .06h27.911v27.853H0V.06z" style="fill:#231f20;fill-opacity:1;fill-rule:nonzero;stroke:none"/></g><g clip-path="url(#b)" transform="matrix(17.91408 0 0 -17.95139 0 501.077)"><path d="M7.433 19.495s.68-.028 1.144-.03c.571-.004 1.063.125 1.075.05.024-.138.039-6.246.039-6.246s.067-1.304.387-1.967c.561-1.166 3.064-1.262 3.064-1.262s.388-.046 1.258.021c.868.068 2.563.318 3.112 1.345 0 0 .389.436.53 2.905.147 2.586-.199 5.148-.199 5.148l2.425.111s-.164-1.828-.168-5.26c-.003-3.432.314-5.446.314-5.446l-2.403-.706.003 2.54-1.143-1.074s-.667-.685-2.176-1.073c-1.509-.387-2.654-.317-3.339-.178-.687.138-1.304.321-1.693.505-.389.183-1.075.526-1.691 1.489-.365.569-.365 1.99-.365 1.99l.028 2.654-.202 4.484M16.05 20.329l-5.363 5.374 1.166 1.163 5.363-5.374-1.166-1.163" style="fill:#fff;fill-opacity:1;fill-rule:nonzero;stroke:none"/><path d="m11.71 20.313-1.163 1.166 5.375 5.364 1.163-1.166-5.375-5.364M16.058 12.201l-5.364 5.375 1.166 1.163 5.364-5.375-1.166-1.163" style="fill:#fff;fill-opacity:1;fill-rule:nonzero;stroke:none"/><path d="m11.717 12.188-1.163 1.166 5.375 5.362 1.163-1.166-5.375-5.362M16.045 1.359l-5.362 5.375 1.166 1.163 5.362-5.375-1.166-1.163" style="fill:#fff;fill-opacity:1;fill-rule:nonzero;stroke:none"/><path d="m11.705 1.343-1.163 1.166 5.374 5.363 1.164-1.166-5.375-5.363" style="fill:#fff;fill-opacity:1;fill-rule:nonzero;stroke:none"/></g><path d="M194.504 233.137c0-2.917.037-4.075.082-2.575.045 1.501.045 3.888 0 5.304-.045 1.416-.082.188-.082-2.729z" style="fill:#fff" transform="translate(-141.195 -175.927)"/><path d="M141.773 426.137V176.852h498.572v498.571H141.773V426.137zm266.459 207.665c9.999 10.32 18.92 18.764 19.825 18.764.905 0 6.286-4.673 11.96-10.384l10.314-10.384-19.279-19.239-19.279-19.24 18.199-18.238 18.198-18.239-11.05-11.05-11.051-11.05-17.863 17.82-17.862 17.819-18.23-18.19-18.23-18.188-11.05 11.051-11.052 11.052 18.19 18.23 18.19 18.231-19.62 19.657-19.619 19.658 11.053 11.053 11.053 11.052 19.512-19.474 19.512-19.474 18.179 18.763zm77.827-108.878 20.714-6.15-.082-4.89c-.045-2.69-.957-14.532-2.026-26.318-2.204-24.303-2.812-108.439-1.02-141.072l1.157-21.071-8.3.007c-4.565.004-14.647.428-22.405.941l-14.105.934.873 7.988c5.61 51.327 3.156 113.157-5.296 133.385-6.974 16.69-32.81 26.828-68.782 26.988-20.608.091-36.538-2.803-48.935-8.891-16.728-8.215-20.04-16.76-21.844-56.352-.68-14.929-1.268-44.573-1.307-65.877l-.07-38.733-20.358.7c-11.196.386-20.422.78-20.503.877-.08.097.686 17.533 1.703 38.747s1.896 53.679 1.954 72.143c.145 46.297 1.878 52.358 19.609 68.563 9.272 8.474 18.876 13.157 37.199 18.14 19.446 5.287 42.734 5.29 65.732.006 21.983-5.05 36.086-12.516 51.45-27.238l11.785-11.294v22.34c0 12.287.482 22.325 1.071 22.308.59-.017 10.393-2.8 21.786-6.182zM371.397 439.37l18.948-18.908 19.29 19.25 19.29 19.25 11.051-11.052 11.052-11.051-19.25-19.29-19.25-19.288 17.48-17.522c9.614-9.636 17.48-18.139 17.48-18.893 0-1.842-18.82-20.73-20.656-20.73-.795 0-9.33 7.866-18.967 17.48l-17.521 17.478-18.23-18.189-18.23-18.189-11.05 11.052-11.052 11.051 18.19 18.23 18.19 18.23-18.909 18.948c-10.4 10.421-18.908 19.566-18.908 20.321 0 1.844 18.82 20.731 20.657 20.731.796 0 9.974-8.509 20.395-18.909zm0-145.714 18.948-18.909 19.29 19.25 19.29 19.25 11.051-11.05 11.052-11.052-19.25-19.29-19.25-19.289 17.48-17.521c9.614-9.637 17.48-18.14 17.48-18.896 0-.756-4.649-6.054-10.33-11.773L426.83 193.98l-18.242 18.201-18.242 18.202-18.576-18.535-18.576-18.535-11.051 11.051-11.05 11.05 18.535 18.578 18.535 18.576-19.62 19.658-19.62 19.657 10.342 10.342c5.688 5.688 10.982 10.342 11.764 10.342.781 0 9.948-8.51 20.369-18.909zm-177.332-62.133c-.475-.474-.812.37-.75 1.875.068 1.664.407 2.003.863.863.412-1.03.362-2.263-.113-2.738z" style="fill:#000" transform="translate(-141.195 -175.927)"/></svg>