<svg xmlns="http://www.w3.org/2000/svg" width="360" height="360" version="1.0"><path d="M62.094 15.656c.29 6.85.281 11.031.281 18.563v99.062c0 13.457.16 28.169 2.375 42.344 2.205 14.185 6.448 27.783 14.5 39.094 10.365 14.5 23.767 25.326 39.094 33.969 15.307 8.632 32.546 15.085 50.531 20.843h.031c3.832 1.396 7.195 3.048 11.063 4.063 4.607-1.336 7.656-2.68 11.468-4.063h.032c17.807-5.758 34.964-12.21 50.28-20.844 15.31-8.638 28.804-19.438 39.345-33.937 7.884-11.31 12.022-24.94 14.187-39.125 2.176-14.175 2.344-28.887 2.344-42.344V34.22c0-6.86.024-11.907.312-18.563-6.09.044-12.086.344-19.593.344H82c-7.855 0-13.555-.301-19.906-.344zm186.844 38.875c1.838 3.153 3.86 5.888 6.093 8.688.754.946 1.513 1.87 2.313 2.843 1.22-.177 2.801-.27 4.469-.312 1.667-.042 3.42-.031 5-.031v130.906h-46.22c-4.036 0-8.338.156-12.5.156-3.259 0-6.442-.097-9.312-.406a39.597 39.597 0 0 1-3.281-.469c-.52-.1-1.013-.222-1.5-.344.699 1.226 1.143 2.354 1.406 3.407.002.009-.002.022 0 .031.257 1.04.344 2.007.344 2.875 0 .415-.038.812-.094 1.187-.111.751-.31 1.43-.625 2.032-1.262 2.409-4.048 3.683-7.531 4.312-.87.157-1.805.26-2.75.344a50.409 50.409 0 0 1-4.406.187c-1.575 0-3.002-.024-4.313-.093-1.966-.104-3.668-.289-5.093-.563-3.787-.727-5.782-2.096-6.594-4.25-.003-.009.003-.022 0-.031a7.015 7.015 0 0 1-.406-1.75v-.031c-.032-.323-.032-.65-.032-1 0-.516.015-1.042.063-1.563v-.03a17.713 17.713 0 0 1 1.344-5.063c-.695.286-1.464.527-2.282.718-.408.095-.847.177-1.28.25-.862.148-1.776.267-2.72.344-.476.038-.976.07-1.468.094-.988.048-1.998.062-3.032.062-1.178 0-2.386-.024-3.593-.062-2.371-.073-4.73-.207-7-.281h-.157a101.983 101.983 0 0 0-3.343-.063h-47.25v-92.031c0-1.542.027-3.11.062-4.719v-.125c.107-4.748.339-9.748.438-14.687.033-1.664.034-3.327.03-4.97-.004-2.462-.05-4.866-.187-7.218a90.761 90.761 0 0 0-.156-2.344 67.794 67.794 0 0 0-.531-4.468c.787.088 1.585.132 2.406.156 1.642.048 3.325.014 4.969.062.821.022 1.647.068 2.437.157a127.337 127.337 0 0 0 4.282-5.657c1.05-1.476 2.058-2.967 2.937-4.437.294-.49.58-.988.844-1.469.786.481 1.584.95 2.406 1.375a37.239 37.239 0 0 0 3.844 1.719 40.065 40.065 0 0 0 5.656 1.687c.01.003.022-.002.031 0 1.004.22 2.023.404 3.094.563 1.606.239 3.286.403 5.063.5a67.94 67.94 0 0 0 3.687.094c.69 0 1.478-.004 2.313-.032 2.54-.086 5.689-.27 8.937-.468 2.167-.13 4.392-.279 6.531-.375 1.07-.05 2.114-.097 3.125-.125 1.012-.029 1.987-.032 2.907-.032 7.701 0 14.238 1.482 17.906 7.188.501.778.953 1.651 1.344 2.594.26.628.48 1.294.687 2 .312 1.059.564 2.191.75 3.437.124.83.216 1.707.281 2.625.077-.481.161-.95.25-1.406.267-1.37.596-2.626.97-3.781.248-.77.517-1.506.812-2.188.441-1.023.929-1.943 1.468-2.781.18-.28.373-.552.563-.813.38-.52.766-.99 1.187-1.437 4.215-4.476 10.437-5.438 17.875-5.438.798 0 1.587.012 2.407.032 2.426.056 4.938.183 7.53.312 1.729.089 3.462.184 5.25.25 1.8.065 3.62.094 5.47.094 2.561 0 4.824-.096 6.843-.25.73-.057 1.454-.112 2.125-.188.634-.07 1.226-.132 1.813-.218a42.386 42.386 0 0 0 3.281-.625c4.596-1.051 7.876-2.685 11.813-4.657zm26.28 9.094a.49.49 0 0 1 .22.063c.22.092.452.299.75.593.398.394.859.912 1.406 1.438.684.66 1.498 1.316 2.437 1.719.559.239 1.158.374 1.813.374.438 0 .864-.058 1.312-.187 1.344-.387 2.794-1.365 4.625-2.938-.13.635-.242 1.32-.344 2.063a73.879 73.879 0 0 0-.468 4.781c-.005.065.004.123 0 .188v.031c-.003.05.003.106 0 .156-.18 2.671-.319 5.611-.469 8.594a236.601 236.601 0 0 1-.375 6.094c-.153 2.001-.338 3.955-.594 5.781-.32 2.282-.741 4.37-1.312 6.125-.457 1.405-1.011 2.594-1.688 3.5-.507.68-1.094 1.203-1.75 1.531a6.24 6.24 0 0 1-.844.25 9.73 9.73 0 0 1-1.5.188c-.293.018-.598.031-.906.031-.664 0-1.362-.037-2.062-.094-2.102-.172-4.262-.537-5.875-.719 0-.344-.344-1.769-.344-2.812v-8.063c.83.147 1.56.22 2.188.22 1.675 0 2.686-.53 3.312-1.5.007-.012.024-.02.031-.032.263-.419.445-.918.594-1.5.002-.01-.002-.022 0-.031.3-1.188.417-2.692.531-4.5.26-5.26-.083-10.696-.562-15.75a290.773 290.773 0 0 0-.5-4.875c0-.177.013-.365.062-.5.05-.136.136-.219.313-.219zm-190.78 2.438c0 .7-.03 1.608-.094 2.687v.031c-.065 1.073-.165 2.3-.25 3.625a164.102 164.102 0 0 0-.313 6.469 90.047 90.047 0 0 0-.031 2.25c0 5.211.543 10.125 1.844 11.75.005.006-.005.025 0 .031.181.222.382.383.594.469.088.043.183.092.312.125.01.003.02-.003.031 0 .019.004.044-.004.063 0 .358.081.835.157 1.375.188.045.002.079-.003.125 0 .826.04 1.79.03 2.656.03-.177.178-.17.458-.125.813.022.176.035.344.063.563.03.23.062.473.062.75l-.188.031v5.219c.06-.007.129-.025.188-.031-.354.698-.344 2.468-.344 2.812-.531.067-1.11.15-1.687.25-1.732.3-3.664.688-5.625.688-.828 0-1.664-.052-2.5-.22a4.736 4.736 0 0 1-1.5-.593c-.007-.004-.025.004-.031 0-2.815-1.703-4.248-6.365-5.063-11.969a90.003 90.003 0 0 1-.625-5.812c-.393-4.988-.522-10.15-.781-14.313-.104-1.665-.23-3.167-.406-4.437 2.106 1.053 4.57 2.469 5.968 2.469.35 0 .793-.155 1.313-.407.259-.127.53-.268.812-.437.296-.174.567-.357.875-.563 1.177-.794 2.405-1.77 3.281-2.469zm.343 70.03c-.258 2.097-.693 6.736-.906 11a85.042 85.042 0 0 0-.125 4.032c0 3.504.353 8.749 1.406 10.156.087.13.186.224.313.313s.275.165.437.219c.162.053.34.1.531.125.203.027.395.03.626.03.874 0 1.946-.166 3-.343l.687 2.437c-.065.025-.122.071-.188.094l-.874 5.875.718 3.5c-2.206.17-4.09.25-5.687.25-1.889 0-3.373-.12-4.563-.375a9.089 9.089 0 0 1-1.062-.281c-.992-.336-1.7-.803-2.219-1.406a4.014 4.014 0 0 1-.469-.657 4.88 4.88 0 0 1-.437-.906c-.003-.008.003-.023 0-.031-.278-.752-.553-1.772-.781-2.969-.002-.009.001-.022 0-.031-.576-3.02-.985-7.23-1.313-11.563v-.03c-.526-6.95-.796-14.194-.969-17.344.218.131.415.279.625.437 1.06.793 2.05 1.837 3.438 2.375.008.003.022-.003.031 0 .268.102.545.192.844.25.01.002.02-.002.031 0 .3.056.63.094.969.094.328 0 .694-.146 1.062-.375.24-.15.47-.345.719-.563.139-.12.265-.239.406-.375.254-.245.525-.503.781-.781.006-.006-.005-.026 0-.031.525-.569 1.06-1.162 1.563-1.719.257-.286.507-.537.75-.781.231-.232.443-.455.656-.625zm189.719 2.438c.35.352.766.848 1.219 1.406.68.839 1.457 1.812 2.219 2.563.38.375.728.677 1.093.906.007.004.024-.004.031 0 .236.146.466.289.688.344.123.033.226.031.344.031 1.958 0 3.112-.83 4.125-1.781.207-.197.423-.392.625-.594.388-.389.786-.78 1.218-1.125-.088 1.575-.192 4.205-.312 7.344v.031c-.182 4.708-.436 10.502-.875 15.469-.44 4.967-1.05 9.092-1.969 10.406a5.034 5.034 0 0 1-.531.625 5.252 5.252 0 0 1-.656.594c-.006.005-.025-.005-.031 0-.479.345-1.057.636-1.72.875-.67.243-1.451.436-2.343.562-.892.126-1.888.188-3.031.188-1.616 0-3.496-.134-5.688-.406l.688-3.125-1.031-5.97.687-2.093c.704.118 1.413.188 2.063.188.313 0 .623-.022.906-.063a3.717 3.717 0 0 0 1.156-.375c.11-.064.219-.138.313-.219.088-.076.176-.189.25-.28.076-.1.16-.196.218-.313.066-.088.127-.2.188-.313.18-.34.333-.775.469-1.312.18-.717.327-1.59.437-2.532.218-1.881.312-4.075.313-6a81.28 81.28 0 0 0-.125-4v-.03c-.073-1.41-.171-2.862-.282-4.25v-.032a173.748 173.748 0 0 0-.656-6.719z" style="fill:#003365;fill-opacity:1;fill-rule:nonzero;stroke:none"/><path d="M302.18 11.25c-.364 7.535-.364 12.912-.364 20.447v101.496c0 27.619-.716 60.614-17.209 84.288-21.879 30.12-55.953 44.828-92.54 56.66-3.943 1.432-7.171 2.875-12.194 4.307-4.298-1.08-7.889-2.875-11.833-4.307-36.939-11.832-71.013-26.54-92.529-56.66-16.856-23.674-17.572-56.669-17.572-84.288V31.697c0-8.252 0-12.559-.363-20.447 7.172 0 13.275.363 21.88.363h201.207c8.241 0 14.697-.363 21.516-.363" style="fill:#003365;fill-opacity:1;fill-rule:nonzero;stroke:none"/><path d="M179.995 352.024c-53.894 0-93.801-9.794-138.944-29.393 4.902-9.804 9.095-36.402 9.095-50.055 32.553 19.953 82.255 30.8 129.85 30.8 48.302 0 97.659-10.847 130.202-30.8 0 13.653 4.204 40.25 9.096 50.055-45.143 19.599-85.04 29.393-139.299 29.393m-132.29-32.198c38.489 17.856 81.9 27.296 132.644 27.296 50.755-.344 93.802-9.44 132.3-27.296-2.163-5.562-6.506-25.309-6.533-36.12-.003-1.434.07-2.71.233-3.777-32.543 18.9-83.996 28.694-126.354 28.694-42.348 0-93.447-9.794-125.99-28.694.164 1.066.24 2.343.245 3.778.033 10.81-4.078 30.557-6.545 36.119m134.751 18.545h-3.504c-2.451-6.29-5.601-14.342-8.751-22.05l5.246.355c1.408 4.902 3.85 11.202 5.601 16.104 2.097-4.203 4.548-10.503 5.601-15.75l4.903-.354c-3.15 6.654-6.3 13.997-9.096 21.695m12.945-.344v-.664c-.001-6.943-.022-16.293-.7-21.042 3.495 0 9.096-.689 12.945-1.043l1.752 4.203-.699.345c-2.795-1.753-7.353-1.044-9.095-1.398 0 2.45-.355 3.849-.355 6.644l7.354-.689.344 3.495c-1.398-.355-4.902-.355-7.343-.355 0 2.451.344 5.257.699 7.708 3.494-.354 8.052-1.408 10.493-2.805l.709.354-1.408 4.548c-5.246.354-8.396 0-14.696.699m-41.65-.345-5.256-.354c1.408-6.655 2.107-12.256 2.107-19.255a21.139 21.139 0 0 0-2.036-.116c-2.25 0-3.744.568-5.662 2.223l-.355-.354c.355-1.044 1.753-4.194 2.097-5.247 5.601 1.053 11.202 1.742 17.148 1.742l1.053 5.257-.699.344c-1.053-1.398-4.203-3.494-6.999-3.849-.307 4.06-1.456 11.718-1.454 17.552 0 .717.018 1.405.057 2.057m62.3-.709c0-6.3-1.407-15.05-2.096-22.05 3.495-.344 5.946-1.397 9.096-1.397 5.246 0 6.999 2.795 6.999 4.902 0 3.494-1.054 4.548-3.15 6.3 3.15 3.849 5.945 6.3 10.503 9.095v.7c-.72.066-1.397.098-2.037.098-6.2 0-8.793-3.064-11.97-8.141l-3.85.344c.355 3.505.355 3.85 1.408 9.45l-4.902.7m2.441-20.653.709 8.062c3.849-.354 6.3-1.407 6.3-4.557 0-1.753-1.054-3.505-4.204-3.505h-2.805m-79.793 19.255c-5.247-.7-8.407-1.398-14.697-2.097 1.398-7 3.494-17.158 3.849-21.351 3.494.699 8.042 1.398 11.891 2.096l.709 4.903h-.709c-1.043-2.097-6.29-3.495-8.042-3.85-.7 2.097-1.054 4.204-1.408 7l7.009.354-.355 3.849c-1.397-.709-4.547-1.408-6.999-1.752-.344 2.45-.698 4.548-1.053 6.999 1.747.176 4.013.35 6.151.35 2.153 0 4.176-.176 5.406-.705l.344.355-2.096 3.849m101.498-2.097c-1.043-6.655-2.45-15.051-4.193-22.05l4.892-1.053c.355 5.945 2.451 16.448 4.204 22.05l-4.903 1.053m-128.45-2.451-4.903-1.054c-.344-2.096-2.097-7.343-2.795-9.794l-7.354 6.999-3.849-1.408c3.15-2.441 6.645-5.591 9.805-8.042-1.752-5.601-2.451-8.052-3.85-11.547l5.592 1.742c.354 2.107 1.408 5.602 2.107 8.053l6.999-6.3 3.494.699c-2.796 2.096-6.644 5.6-9.44 8.052 2.097 6.644 3.15 9.095 4.193 12.6m144.9-1.398c-1.397-6.654-2.45-11.901-4.547-18.9-3.495.699-4.548 2.097-6.3 4.548h-.7c.345-2.451.345-4.548.7-5.601 5.246-.7 11.202-2.097 16.448-3.85.7 1.399 1.753 3.15 2.806 4.549l-.709.698c-1.205-.602-3.969-1.468-6.507-1.468-.404 0-.805.021-1.19.07 1.053 4.903 2.45 12.955 4.557 18.556l-4.558 1.398m10.504-2.806c1.397-8.042 2.45-14.696 3.15-23.802l3.849-1.043c4.203 5.6 9.45 12.944 13.643 17.847l-4.193 1.752c-1.753-3.15-4.194-6.3-4.194-6.3s-5.6 1.752-7.708 2.45c-.344 2.452-.698 5.602-.698 7.699l-3.85 1.397m4.903-12.245 5.601-1.752-4.902-5.956-.7 7.708m-188.655 9.095c-2.795 0-9.095-1.752-9.095-6.998 0-4.903 3.494-12.246 4.548-16.804l4.547 1.752c-1.053 2.806-4.547 12.955-4.547 15.052 0 3.504 3.15 4.203 4.902 4.203 2.795 0 4.548-4.558 5.945-9.45.7-2.451 1.398-5.247 2.097-7l3.504 1.044c-.698 2.451-1.397 5.257-2.45 8.053-1.753 5.256-3.495 10.148-9.45 10.148m208.953-5.246h-2.097l-2.806-5.601h.345c2.107 1.053 5.601 2.805 8.407 2.805 1.752 0 3.15-1.053 3.15-3.504 0-5.946-13.998-1.398-13.998-9.795 0-6.654 6.644-8.406 11.546-8.406l2.452 5.246-.7.7c-1.407-1.399-3.848-3.14-6.3-3.14-2.096 0-3.504 1.043-3.504 3.494 0 5.955 13.998.699 13.998 10.503 0 4.548-5.601 7.698-10.493 7.698m-223.65 0c-4.903-2.107-5.601-2.796-11.547-4.204 3.15-7.353 4.548-13.997 5.946-20.996l4.902 2.096c-2.451 5.956-4.204 10.858-5.601 17.857 2.89.86 5.056 1.486 7.3 1.486.477 0 .959-.028 1.45-.088l.345.344c-.689 1.054-2.45 2.806-2.795 3.505m-26.953-12.955c-8.052-2.45-17.846-8.74-25.2-10.847v-1.054c3.15-2.096 16.105-15.041 16.804-17.846-1.398-10.15-5.257-25.545-7-30.802l.7-.344c13.998 10.848 34.295 20.652 51.443 27.996l-.344 5.6c-22.75-9.794-33.607-16.803-44.1-22.748 2.096 5.945 3.15 15.75 4.902 21.35-5.257 4.549-8.751 11.548-14.352 15.75 5.6 1.399 11.9 5.592 17.846 7.699l-.699 5.246m276.502-.699-1.054-5.246c5.956-2.097 12.955-5.956 18.201-8.052-5.246-4.548-9.794-10.15-14.696-15.75 1.397-5.602 3.15-15.396 5.246-21.696-10.847 5.601-21.705 12.944-44.799 23.448v-5.956c12.955-5.246 40.252-19.244 51.454-27.995l1.043.354c-1.752 5.247-5.6 20.652-6.999 30.092.7 3.15 12.256 15.406 16.804 18.201v1.054c-7.354 1.752-16.804 9.794-25.2 11.546" style="fill:#1c1b1a;fill-opacity:1;fill-rule:nonzero;stroke:none"/><path d="M179.995 275.027c-4.193-1.054-7.698-2.806-11.547-4.204-36.047-11.546-69.3-25.899-90.296-55.292-16.45-23.103-17.148-55.302-17.148-82.254V32.762c-.001-7.125-.022-11.27-.355-18.486 7 0 12.955.354 21.352.354h196.353c8.042 0 14.342-.354 20.997-.354-.355 7.353-.355 12.6-.355 19.953v99.048c0 26.952-.699 59.15-16.793 82.254-21.351 29.393-54.604 43.746-90.307 55.292-3.849 1.398-6.999 2.806-11.9 4.204M62.08 15.648c.291 6.85.291 11.05.291 18.58v99.049c0 13.456.177 28.182 2.392 42.357 2.205 14.185 6.448 27.79 14.5 39.1 10.365 14.5 23.743 25.308 39.07 33.95 15.307 8.634 32.553 15.081 50.538 20.84l.03.01.019.01c3.831 1.396 7.19 3.05 11.058 4.064 4.607-1.335 7.642-2.682 11.455-4.064l.029-.01.02-.01c17.807-5.759 34.965-12.206 50.282-20.84 15.309-8.638 28.778-19.44 39.319-33.938l-.003-.002c7.885-11.31 12.039-24.925 14.204-39.11 2.176-14.175 2.353-28.9 2.353-42.357V34.229c0-6.86 0-11.924.289-18.58-6.091.044-12.065.35-19.573.35H82.001c-7.856 0-13.568-.308-19.92-.35" style="fill:#003365;fill-opacity:1;fill-rule:nonzero;stroke:none"/><path d="m99.847 186.827-.699-.355c1.054-4.892 1.398-10.493 1.398-16.449 0-7.697-.699-15.395-.699-21.695V73.78c5.956-2.805 7.708-7.009 10.15-11.202-.35 3.849-.436 8.485-.435 13.209.001 4.724.09 9.535.09 13.733v57.753c0 4.94.315 10.668.31 16.125-.002 2.664-.08 5.265-.31 7.678-.355 1.752-8.407 15.395-9.805 15.75m78.406 8.052c-3.15-.7-5.956-1.752-8.052-2.806-1.054-.699-2.452-2.795-3.505-2.795-.344 0-2.441 1.043-3.15 1.043-4.548.709-9.45 1.053-14.697 1.053-10.148 0-20.652-1.053-30.446-1.053-1.559 0-3.138-.02-4.698-.02-4.745 0-9.296.194-12.46 1.772 4.203-6.3 8.751-12.6 12.256-19.943 5.945 2.451 9.794 4.548 22.05 4.548 5.945 0 12.245-.345 17.846-.345 6.3 0 11.901.69 16.105 2.796 5.6 3.15 8.396 8.397 8.75 15.75m2.796 0c.355-6.3 3.15-12.256 7.698-15.051 4.248-3.112 10.564-3.774 17.553-3.774 2.582 0 5.256.09 7.952.18 2.689.09 5.4.18 8.06.18 2.9 0 5.742-.107 8.438-.435 6.3-.355 10.504-2.806 15.052-4.548 3.504 6.645 8.052 12.6 12.255 18.89-2.805-.689-6.654-.689-10.503-.689-6.3 0-17.502.69-23.802.69h-17.503a16.36 16.36 0 0 1-1.14.036c-1.802 0-3.666-.258-5.435-.51-1.758-.256-3.431-.518-4.872-.518-.819 0-1.564.084-2.206.302-1.043 0-2.441 1.742-3.494 2.441-2.452 1.408-4.903 2.107-8.053 2.806m79.804-8.751c-1.753-2.097-3.15-3.85-4.903-6.3-1.752-2.097-5.246-5.956-5.6-8.751-.459-2.297-.618-4.782-.622-7.332-.01-5.221.621-10.715.621-15.417V92.327c0-3.98.058-8.19.057-12.4 0-6.15-.13-12.296-.756-17.703 2.107 4.204 5.602 9.106 10.15 10.848v73.858c0 5.512-.134 11.426-.138 17.331-.004 7.593.205 15.172 1.19 21.867" style="fill:#fff000;fill-opacity:1;fill-rule:nonzero;stroke:none"/><path d="M179.995 282.38c-1.388-.709-4.548-1.752-5.601-2.107-44.1-15.04-77.697-27.296-101.843-60.893-15.052-21.351-18.202-47.604-18.202-81.201V7.976h251.646v130.203c0 33.597-3.494 59.85-18.546 81.2-23.802 33.598-57.398 45.853-101.853 60.894a143.82 143.82 0 0 0-5.6 2.107m-11.961-10.249c3.733 1.357 7.274 3.126 11.635 4.225l.355.088.354-.098c4.99-1.428 8.2-2.865 11.99-4.233l-.002-.005c17.88-5.775 35.177-12.277 50.737-21.04 15.572-8.781 29.393-19.846 40.211-34.74l.01-.01v-.01c8.22-11.792 12.462-25.83 14.667-40.26 2.205-14.431 2.383-29.285 2.383-42.771V34.229c0-7.353 0-12.57.344-19.884l-.042-1.454-1.326.016c-6.704 0-12.984.355-20.997.355H82.001c-8.358 0-14.293-.355-21.341-.355h-1.438l.07 1.438c.344 7.668.344 11.832.344 19.884v99.048c0 13.486.177 28.34 2.421 42.78 2.255 14.432 6.586 28.469 14.983 40.262 10.64 14.903 24.373 25.968 39.946 34.748 15.572 8.77 32.986 15.278 51.05 21.066v-.001" style="fill:#1c1b1a;fill-opacity:1;fill-rule:nonzero;stroke:none"/><path d="M180.35 209.93c-12.6 0-16.45-2.107-16.45-7.698 0-2.106.355-4.203 1.398-6.654-2.778 1.145-6.627 1.45-10.761 1.45-4.714 0-9.8-.397-14.084-.397h-47.25v-92.049c0-12.255 1.398-26.952-.355-38.509 3.15.355 6.645 0 9.805.355 2.795-3.495 5.945-7.698 8.052-11.547 6.29 3.849 13.643 5.946 23.792 5.946 5.601 0 16.45-1.054 23.802-1.054 11.203 0 19.954 3.16 20.997 17.857 2.451-15.406 11.202-17.857 23.103-17.857 6.3 0 13.3.71 20.653.71 13.997 0 18.9-2.452 25.899-5.956 2.45 4.203 5.246 7.697 8.406 11.546 2.441-.354 6.29-.354 9.45-.354v130.912h-46.206c-4.037 0-8.35.138-12.512.138-5.215 0-10.194-.217-14.086-1.191 1.398 2.45 1.752 4.548 1.752 6.3 0 6.644-7.353 8.052-15.406 8.052m-12.245-14.352c.344 2.096.344 4.902 1.398 6.3 1.397 2.096 6.3 3.15 10.847 3.15 3.505 0 6.655-.355 8.397-1.398 2.107-1.053 2.451-5.601 3.15-8.052-3.494 2.45-7.343 3.494-12.245 3.494-3.505 0-8.397-1.398-11.547-3.494m38.195-19.524c-6.99 0-13.305.662-17.553 3.774-4.548 2.795-7.343 8.75-7.698 15.05 3.15-.698 5.601-1.397 8.053-2.805 1.053-.699 2.45-2.44 3.494-2.44.642-.219 1.387-.303 2.206-.303 1.44 0 3.114.262 4.872.519 1.77.251 3.633.51 5.436.51.382 0 .763-.012 1.14-.038h17.502c6.3 0 17.502-.689 23.802-.689 3.849 0 7.698 0 10.503.69-4.203-6.291-8.751-12.246-12.255-18.891-4.548 1.742-8.752 4.193-15.052 4.548-2.696.328-5.537.435-8.438.435-2.66 0-5.371-.09-8.06-.18-2.696-.09-5.37-.18-7.952-.18m-28.046 18.825c-.355-7.353-3.15-12.6-8.751-15.75-4.204-2.107-9.805-2.796-16.105-2.796-5.6 0-11.9.345-17.846.345-12.256 0-16.105-2.097-22.05-4.548-3.505 7.343-8.053 13.643-12.256 19.943 3.164-1.578 7.715-1.773 12.46-1.773 1.56 0 3.14.021 4.698.021 9.794 0 20.298 1.053 30.446 1.053 5.247 0 10.15-.344 14.697-1.053.709 0 2.806-1.043 3.15-1.043 1.053 0 2.451 2.096 3.505 2.795 2.096 1.054 4.902 2.107 8.052 2.806m-79.105-8.407.7.355c1.397-.355 9.45-13.998 9.804-15.75.23-2.413.308-5.014.31-7.678.004-5.457-.31-11.184-.31-16.125V89.521c0-4.198-.089-9.009-.09-13.733-.001-4.724.085-9.36.434-13.21-2.441 4.194-4.193 8.398-10.149 11.203v74.547c0 6.3.7 13.998.7 21.695 0 5.956-.345 11.557-1.399 16.45m161.704-.345c-.986-6.695-1.196-14.274-1.191-21.867.004-5.905.137-11.819.137-17.331V73.072c-4.547-1.742-8.042-6.644-10.149-10.848.626 5.407.755 11.553.756 17.704.001 4.209-.057 8.42-.057 12.399v56c0 4.703-.63 10.197-.62 15.418.003 2.55.162 5.035.62 7.332.355 2.795 3.85 6.654 5.601 8.75 1.753 2.452 3.15 4.204 4.903 6.3m-80.503-64.053c0 20.653.7 41.65.7 61.957 5.82-11.022 17.692-11.55 30.704-11.55l2.045.003 1.657.001c7.765 0 15.76-.137 22.992-2.462 2.451-.699 6.31-1.398 7.698-3.495.642-1.067.765-7.074.762-12.632 0-3.563-.053-6.942-.053-8.719V59.773H245.8c-4.902 2.805-11.202 4.203-18.9 4.203-6.3 0-13.298-.699-20.652-.699-6.999 0-12.944.345-16.793 2.796-5.257 3.849-7.708 9.105-8.052 18.9-.7 11.901-1.054 24.501-1.054 37.101M152.7 172.13c12.255 0 21.35 2.795 25.554 11.546v-74.202c0-5.55.311-11.833.31-17.82-.002-4.96-.22-9.715-1.01-13.68-1.053-4.193-3.16-8.397-5.955-10.503-4.203-3.495-10.503-4.194-17.148-4.194-7.697 0-12.954 1.054-23.802 1.054-8.75 0-12.245-1.753-17.502-4.204v85.05c0 2.807-.533 9.349-.528 14.605.002 3.26.212 6.027.882 7.1 2.097 4.194 15.052 5.946 25.2 5.946 5.602 0 10.15-.698 13.998-.698m121.897 4.251c-1.616 0-3.5-.13-5.691-.403l.699-3.15 2.126 1.595 6.3-.354 2.52-1.103 1.506-4.34.108-1.408-13.614-.335.7-2.107c.704.118 1.406.197 2.056.197 1.295 0 2.38-.313 2.845-1.25 1.054-1.398 1.398-6.3 1.398-10.149 0-4.892-.699-12.246-1.043-15.051 1.398 1.408 3.849 5.257 5.601 5.257 3.15 0 4.193-2.107 5.946-3.505-.355 6.3-.7 29.748-3.15 33.252-1.295 1.812-3.734 2.854-8.307 2.854m2.007-11.605a7.55 7.55 0 0 0 2.756.524c.917 0 1.791-.175 2.49-.524 1.054-5.955 1.408-13.299 2.107-19.599-2.107 1.398-2.806 2.451-3.505 2.451-.698 0-1.397-1.053-2.795-2.795-.355 5.945-.355 13.643-1.053 19.943m-191.886 9.008c-4.99 0-7.258-.852-8.317-2.708-2.45-3.849-3.15-26.598-3.494-32.898 1.742 1.054 3.15 3.15 5.945 3.15 1.753 0 4.194-3.848 5.946-5.246-.344 2.795-1.043 10.139-1.043 15.041 0 3.504.344 8.751 1.397 10.159.35.521 1.05.696 1.923.696.875 0 1.926-.175 2.98-.352l.699 2.451-.196.07.018-.129-5.975.729-6.753.256-.472.462-.217.089-.167 3.071 3.12 2.274 8.89-.128.698-.748.7 3.504c-2.207.17-4.084.257-5.682.257m-9.37-31.412c.709 6.654 1.053 14.008 1.752 19.609.7.349 1.575.524 2.494.524.92 0 1.881-.175 2.753-.524-.345-6.3-.345-13.654-.699-19.954-1.742 2.097-2.097 3.15-3.15 3.15-.699 0-1.398-1.053-3.15-2.805m7.76-37.556a12.74 12.74 0 0 1-2.503-.234c-8.751-1.752-7-26.952-8.407-37.111 2.107 1.053 4.558 2.45 5.956 2.45 1.397 0 4.547-2.45 6.3-3.848 0 2.805-.7 9.105-.7 15.051 0 5.956.7 11.547 2.442 12.256.709.344 2.805.344 4.558.344-.355.354 0 1.053 0 2.107l-.178.028v-.373l-3.573.128-8.357.61h-1.428l-.315 1.33-.196 1.83 1.122.719 1.83.915 2.649.916 8.268-.719v-.119l.178-.019c-.355.7-.355 2.451-.355 2.796-2.126.27-4.661.943-7.29.943m-7.76-33.142c1.052 7.354.708 15.75 1.407 22.75 1.742 0 3.849 0 5.247-.345 0-1.408-.355-3.15-.355-3.85v-18.9c-1.742 1.399-2.097 2.797-3.15 2.797-.344 0-1.053-1.054-3.15-2.452m202.198 32.31c-2.658 0-5.79-.568-7.941-.81 0-.344-.355-1.752-.355-2.795l2.225.758 4.489.502 3.987-.551 2.165-1.615 1.004-3.13.05-1.004-13.92-.561v-2.451c.83.146 1.55.218 2.176.218 3.876 0 4.174-2.75 4.479-7.572.344-6.999-.355-14.352-1.054-20.642 0-.354 0-.709.355-.709 1.043 0 3.15 4.204 6.644 4.204 1.753 0 3.505-1.054 5.946-3.15-2.097 10.148 0 35.348-6.999 38.853-.886.333-2.018.456-3.25.456m.11-11.314c1.025.52 2.05.843 3.49.843.524 0 1.103-.042 1.757-.134 1.053-6.654.699-16.104 1.053-23.103-1.408 1.397-2.107 2.096-2.806 2.096-1.043-.344-1.742-1.043-3.15-2.795.145 3.127.23 6.37.233 9.586.005 4.704-.163 9.352-.577 13.507m-5.926 81.753-2.126-1.595c2.31.246 4.135.376 5.588.376 4.708 0 5.508-1.367 6.313-4.58l-.355-.698c-1.626 0-3.174.038-4.645.038-2.963 0-5.613-.154-7.955-1.082l13.614.335-.108 1.408-1.506 4.34-2.52 1.103-6.3.355m4.233-72.785-4.489-.502-2.225-.758c2.002.164 4.636.566 6.998.566 2.6 0 4.87-.487 5.602-2.318.355-.7.355-2.107.355-2.451-4.902 0-9.45-.345-12.955-1.398l13.92.56-.05 1.005-1.004 3.13-2.165 1.615-3.987.55m-193.656.296-2.648-.915-1.831-.916-1.122-.718.196-1.831.315-1.33h1.428l8.357-.61 3.573-.127v.372c-4.144.67-8.298 1.02-13.131 1.37v1.752c2.42 1.97 4.422 2.568 7.222 2.568 1.623 0 3.514-.201 5.91-.453v.12l-8.27.718M80.112 170.9l-3.12-2.273.166-3.072.217-.088.472-.463 6.753-.256 5.975-.728-.018.128c-3.795 1.327-7.94 1.329-12.759 1.329l-.354.698c.8 2.924 1.599 4.234 6.384 4.234 1.515 0 3.431-.13 5.871-.385l-.699.748-8.888.128" style="fill:#06000f;fill-opacity:1;fill-rule:nonzero;stroke:none"/><path d="M222.353 156.38c-2.806-.699-5.946-.699-9.106-.699-3.849 0-8.052.699-11.546.699 1.053-8.052.344-13.653 3.494-19.254-2.796-1.044-3.494-3.15-3.494-5.247 0-2.107 1.397-4.203 2.096-5.956h.709c0 1.408.345 3.85 1.043 4.204 1.746 1.248 5.976 1.427 9.025 1.427 1.233 0 2.273-.03 2.877-.03 3.15 0 6.3 1.398 6.3 9.106 0 9.45-1.398 9.794-1.398 15.75m-9.45-6.654c2.795 0 5.246 0 7.698.698 0-6.644-.355-9.794-2.452-11.546-1.742-1.398-4.902-1.398-10.847-1.398-1.054 3.15-1.753 6.3-1.753 8.397 0 .699.355 4.203.355 4.547 2.097-.344 4.548-.698 6.999-.698m-60.904 6.654c-3.504-.699-6.654-.699-10.148-.699-3.15 0-7 .345-10.15.699.345-7.698 0-14.707 3.85-19.254-2.796-1.044-3.85-2.796-3.85-4.903 0-2.096 1.054-3.849 2.097-5.945h.7c.698 3.494 2.106 4.548 7.353 4.902 6.998.699 11.9 1.043 11.9 10.493 0 4.903-1.752 9.45-1.752 14.707m-9.095-6.3c2.795 0 4.892.344 7.343.699-.699-6.655-.344-9.45-1.752-10.848-1.398-1.752-4.193-1.752-11.192-2.451-1.408 3.494-2.107 7.698-2.107 13.299 2.451-.355 5.257-.7 7.708-.7m104.003 3.817c0-3.562-.053-6.942-.053-8.718 0 1.776.052 5.156.053 8.718m-85.812-11.868h-.689c0-1.054 0-3.15-.354-3.505-.355-.699-1.054-2.096-2.107-3.494-1.398-1.408-1.742-3.15-1.742-4.548 0-2.107 2.45-4.558 3.494-6.31l.709.355v3.15c.69 2.805 4.193 4.203 4.193 8.052 0 1.752-2.096 4.203-3.504 6.3m71.052-.7-1.043-.354c0-1.043 0-3.848-.355-4.203-.344-.689-2.096-1.742-2.795-2.441-1.398-1.053-1.752-2.806-1.752-4.203 0-2.107 2.096-4.548 3.494-6.3h.709c-.354 1.397-.709 2.805-.354 3.504.698 3.495 4.902 2.796 4.902 6.645 0 1.053-1.752 4.902-2.806 7.353m-113.045-27.651c-1.054 0-1.054-.7-.7-.7.7-1.052.7-2.106.7-3.504 0-1.397-.7-4.193-.7-6.644 0-2.806 3.15-5.956 4.194-8.052-2.795-1.398-4.193-3.85-4.193-6.3 0-2.097.699-4.558 2.795-5.946h.7c-1.044 4.194 2.106 6.645 4.203 6.645 1.053-2.451 2.096-4.204 4.193-6.645h1.053c-.344 4.548 1.408 6.29 3.505 7.344 3.15 1.752 6.3 2.45 6.3 6.644 0 3.504-1.753 7.708-2.451 10.503-1.398 4.548-2.806 6.3-6.3 6.3-1.054 0-2.452-.344-4.548-.344-1.054 0-2.451.344-3.15.344h-1.054c1.054-2.096 1.398-3.849 2.097-5.945h5.257c1.398 0 3.494 0 4.193-.7 1.408-1.052 2.451-4.202 2.451-5.6 0-5.247-6.999-6.655-11.202-8.751-1.398 2.795-4.193 5.6-4.193 8.052 0 1.398.699 3.494.699 5.247 0 4.203-2.452 6.3-3.85 8.052m21.696-.355c.7-2.795.7-4.193 1.408-4.892.699-.709 1.398-.709 4.548-1.752-.355-2.451-.355-4.558-.355-6.3 0-1.752 0-3.505.7-5.601-3.495-1.054-3.85-3.85-3.85-7 0-1.397.355-3.15.7-4.901h.698c1.053 4.203 2.451 5.246 4.558 5.246 1.742 0 3.494-.344 5.6-.344 1.399 0 2.797 0 4.194.699 3.15 1.752.7 16.104 3.85 19.599-.7 1.752-2.097 3.849-3.85 4.902h-.699c0-1.752.355-5.956.355-10.15 0-3.848-.355-7.352-1.752-8.051-.817-.351-1.634-.468-2.451-.468-1.635 0-3.269.468-4.903.468-.344 1.053-1.053 2.096-1.053 3.849 0 4.203 2.806 8.75 2.806 10.847 0 2.806-2.452 3.85-10.504 3.85m72.106-.345h-.7c-.354-2.107-.354-4.203-.354-5.956 0-4.193.355-7.697.7-11.9-5.602 0-7-1.743-7-6.3 0-1.399.355-3.495 1.054-5.247h.699c.344.698.699 2.096 1.053 2.805.344 1.043 1.742 1.742 3.494 1.742 2.452.355 4.903.355 4.903 2.806 0 3.15-.7 4.193-1.398 5.591-.355 1.053-.709 2.107-.709 3.16 0 2.097 0 5.601 1.053 6.999.355.344.355.699 1.054 1.043v.709c-1.054 2.441-2.451 3.495-3.85 4.548m-11.9 0h-.7c0-1.752.355-5.956.355-10.15 0-3.848-.354-5.6-.709-6.309-.652-1.138-1.835-1.441-3.234-1.441-1.6 0-3.481.398-5.162.398-2.451 0-5.601-2.451-5.601-6.655 0-1.398 0-3.15 1.053-4.548h.699c.699 2.452 1.398 4.204 3.15 4.204h6.999c1.752 0 3.494.344 3.849 1.043 3.15 5.601.344 14.707 3.494 18.556-1.043 1.752-2.441 3.849-4.193 4.902m23.023-.026c-1.336 0-2.793-.206-4.123-.329v-1.053l2.45-1.398c-.354-1.742-.354-3.494-.354-4.892 0-1.752.355-3.504 1.753-4.558.698-.699 1.397-1.043 2.805-1.742-2.805-1.752-5.955-4.902-5.955-9.46 0-1.742.698-4.548 2.45-5.945h.7c-.7 8.052 6.3 11.202 11.546 13.653 3.859-5.257-1.742-4.902-1.742-9.106 0-1.742 2.097-3.849 3.494-5.246l.7.344c-.345 1.053-.345 1.752 0 2.806.354 1.053 1.752 1.752 2.45 2.096.7 1.054 1.054 2.107 1.054 3.15 0 2.806-2.451 5.247-4.204 6.655-.039-.04-.06-.057-.067-.057-.058 0 .844 1.148 1.465 1.455 2.451 1.397 3.505 3.504 3.505 5.955 0 2.097-1.054 5.247-3.85 7.343h-1.053c.7-1.397.7-2.795.7-3.848 0-4.548-5.946-7-10.15-9.096-.344 1.043-1.752 2.097-1.752 4.193 0 1.054 2.806 3.505 2.806 4.903 0 3.44-2.1 4.177-4.628 4.177m-54.179-.329h-1.043c.344-2.795.699-6.998.699-10.148 0-2.796.344-5.247.699-7.698-5.946 0-7-1.398-7-5.956 0-1.742.345-3.494.7-5.6h.698c.355 1.052.7 2.45 1.054 2.805.699 1.053 2.096 1.752 3.494 2.096 2.451.355 5.247.7 5.247 2.451 0 3.15-1.388 4.548-1.742 5.602 0 1.053-.355 2.45-.355 3.15 0 2.45 0 5.955.709 6.998.345.7.699 1.054 1.388 1.054v.699c-1.388 2.795-2.097 3.494-4.548 4.547" style="fill:#1c1b1a;fill-opacity:1;fill-rule:nonzero;stroke:none"/><path d="M275.19 173.205c-1.452 0-3.276-.13-5.587-.376l-1.054-5.946c2.342.928 4.992 1.082 7.955 1.082 1.471 0 3.019-.038 4.645-.038l.355.699c-.805 3.212-1.605 4.58-6.313 4.58m1.055-72.26c-2.362 0-4.996-.403-6.998-.567v-5.601c3.505 1.053 8.053 1.398 12.955 1.398 0 .344 0 1.752-.355 2.45-.732 1.832-3.002 2.32-5.602 2.32m-191.581.603c-2.8 0-4.802-.598-7.222-2.568v-1.752c4.833-.35 8.987-.7 13.131-1.37v5.237c-2.395.252-4.286.453-5.91.453m-.837 68.86c-4.785 0-5.585-1.311-6.384-4.235l.354-.698c4.82 0 8.964-.001 12.759-1.33l-.858 5.877c-2.44.254-4.356.385-5.87.385m97.22 13.623c0-20.308-.699-41.304-.699-61.957 0-12.6.355-25.2 1.054-37.1.344-9.795 2.795-15.052 8.052-18.9 3.849-2.452 9.794-2.796 16.793-2.796 7.354 0 14.353.699 20.653.699 7.697 0 13.997-1.398 18.9-4.204h1.053v85.405c0 1.776.052 5.156.053 8.718.002 5.558-.12 11.565-.762 12.633-1.388 2.097-5.247 2.795-7.698 3.494-7.232 2.326-15.227 2.462-22.991 2.462h-1.657c-.684-.002-1.368-.004-2.046-.004-13.012 0-24.885.529-30.705 11.55m32.2-28.35c3.16 0 6.3 0 9.105.7 0-5.956 1.398-6.3 1.398-15.75 0-7.708-3.15-9.106-6.3-9.106-.604 0-1.644.03-2.877.03-3.05 0-7.279-.18-9.025-1.428-.698-.354-1.043-2.796-1.043-4.203h-.709c-.699 1.752-2.096 3.849-2.096 5.955 0 2.097.698 4.203 3.494 5.247-3.15 5.601-2.441 11.202-3.494 19.254 3.494 0 7.697-.699 11.546-.699m16.45-31.854c-1.399 1.752-3.495 4.193-3.495 6.3 0 1.398.354 3.15 1.752 4.203.699.7 2.45 1.752 2.795 2.442.355.354.355 3.16.355 4.203l1.043.354c1.054-2.45 2.806-6.3 2.806-7.353 0-3.849-4.204-3.15-4.902-6.645-.355-.699 0-2.106.354-3.504h-.709m-23.093-40.251c-.7 1.752-1.054 3.848-1.054 5.246 0 4.558 1.398 6.3 7 6.3-.345 4.204-.7 7.708-.7 11.901 0 1.753 0 3.85.355 5.956h.699c1.398-1.053 2.795-2.107 3.849-4.548v-.709c-.7-.344-.7-.699-1.054-1.043-1.053-1.398-1.053-4.902-1.053-7 0-1.052.354-2.106.709-3.159.699-1.398 1.398-2.441 1.398-5.591 0-2.451-2.451-2.451-4.903-2.806-1.752 0-3.15-.699-3.494-1.742-.354-.709-.709-2.107-1.053-2.805h-.7m-9.888 11.503c1.399 0 2.582.302 3.234 1.441.355.709.71 2.461.71 6.31 0 4.193-.355 8.397-.355 10.149h.699c1.752-1.053 3.15-3.15 4.193-4.902-3.15-3.85-.344-12.955-3.494-18.556-.355-.699-2.097-1.043-3.85-1.043h-6.998c-1.752 0-2.451-1.752-3.15-4.204h-.7c-1.052 1.398-1.052 3.15-1.052 4.548 0 4.204 3.15 6.655 5.6 6.655 1.682 0 3.563-.398 5.163-.398m26.338-11.503c-1.753 1.397-2.451 4.203-2.451 5.945 0 4.558 3.15 7.708 5.955 9.46-1.408.699-2.107 1.043-2.805 1.742-1.398 1.054-1.753 2.806-1.753 4.558 0 1.398 0 3.15.355 4.892l-2.451 1.398v1.053c1.33.123 2.787.329 4.123.329 2.529 0 4.628-.738 4.628-4.177 0-1.398-2.806-3.85-2.806-4.903 0-2.096 1.408-3.15 1.752-4.193 4.204 2.097 10.15 4.548 10.15 9.096 0 1.053 0 2.45-.7 3.848h1.054c2.795-2.096 3.849-5.246 3.849-7.343 0-2.451-1.054-4.558-3.505-5.955-.621-.307-1.523-1.455-1.465-1.455.007 0 .028.017.067.057 1.753-1.408 4.204-3.85 4.204-6.655 0-1.043-.355-2.096-1.054-3.15-.698-.344-2.096-1.043-2.45-2.096-.345-1.054-.345-1.753 0-2.806l-.7-.344c-1.397 1.397-3.494 3.504-3.494 5.246 0 4.204 5.601 3.85 1.742 9.106-5.246-2.451-12.245-5.601-11.546-13.653h-.7m-44.798 100.1c-4.204-8.75-13.3-11.546-25.555-11.546-3.849 0-8.396.699-13.997.699-10.15 0-23.104-1.752-25.2-5.946-.67-1.074-.88-3.84-.883-7.1-.004-5.257.528-11.799.528-14.605v-85.05c5.257 2.45 8.751 4.203 17.502 4.203 10.848 0 16.105-1.053 23.803-1.053 6.644 0 12.944.699 17.147 4.193 2.796 2.107 4.903 6.31 5.956 10.503.79 3.965 1.007 8.72 1.008 13.681.002 5.986-.31 12.27-.31 17.82v74.202m-36.401-27.996c3.494 0 6.644 0 10.148.699 0-5.257 1.753-9.804 1.753-14.707 0-9.45-4.903-9.794-11.901-10.493-5.247-.354-6.655-1.408-7.354-4.902h-.699c-1.043 2.096-2.096 3.849-2.096 5.945 0 2.107 1.053 3.86 3.849 4.903-3.85 4.547-3.505 11.556-3.85 19.254 3.15-.354 7-.699 10.15-.699m17.846-31.51c-1.043 1.752-3.494 4.203-3.494 6.31 0 1.398.344 3.14 1.742 4.548 1.053 1.398 1.752 2.795 2.107 3.494.354.355.354 2.451.354 3.505h.69c1.407-2.097 3.503-4.548 3.503-6.3 0-3.85-3.504-5.247-4.193-8.052v-3.15l-.709-.355m-38.499-41.639c-2.096 1.388-2.795 3.849-2.795 5.946 0 2.45 1.398 4.902 4.193 6.3-1.043 2.096-4.193 5.246-4.193 8.052 0 2.451.699 5.247.699 6.644 0 1.398 0 2.452-.7 3.505-.354 0-.354.699.7.699 1.397-1.752 3.849-3.85 3.849-8.052 0-1.753-.7-3.85-.7-5.247 0-2.451 2.796-5.257 4.194-8.052 4.203 2.096 11.202 3.504 11.202 8.75 0 1.399-1.043 4.549-2.45 5.602-.7.699-2.796.699-4.194.699h-5.257c-.699 2.096-1.043 3.849-2.097 5.945h1.054c.699 0 2.096-.344 3.15-.344 2.096 0 3.494.344 4.548.344 3.494 0 4.902-1.752 6.3-6.3.698-2.795 2.45-6.999 2.45-10.503 0-4.193-3.15-4.892-6.3-6.644-2.096-1.054-3.848-2.796-3.504-7.344h-1.053c-2.097 2.441-3.14 4.194-4.193 6.645-2.097 0-5.247-2.451-4.204-6.645h-.699m22.75.345c-.345 1.752-.7 3.504-.7 4.902 0 3.15.355 5.945 3.85 6.999-.7 2.096-.7 3.849-.7 5.6 0 1.743 0 3.85.355 6.3-3.15 1.044-3.85 1.044-4.548 1.753-.709.699-.709 2.097-1.408 4.892 8.052 0 10.504-1.043 10.504-3.849 0-2.096-2.806-6.644-2.806-10.847 0-1.753.709-2.796 1.053-3.85 1.634 0 3.268-.467 4.903-.467.817 0 1.634.117 2.45.468 1.398.699 1.753 4.203 1.753 8.052 0 4.193-.355 8.397-.355 10.149h.7c1.752-1.053 3.15-3.15 3.848-4.902-3.15-3.495-.699-17.847-3.849-19.6-1.397-.698-2.795-.698-4.193-.698-2.107 0-3.859.344-5.601.344-2.107 0-3.505-1.043-4.558-5.246h-.699m19.954.344c-.355 2.107-.7 3.859-.7 5.601 0 4.558 1.054 5.956 7 5.956-.355 2.45-.7 4.902-.7 7.698 0 3.15-.354 7.353-.698 10.148h1.043c2.451-1.053 3.16-1.752 4.548-4.547v-.7c-.69 0-1.043-.354-1.388-1.053-.709-1.043-.709-4.547-.709-6.998 0-.7.355-2.097.355-3.15.354-1.054 1.742-2.452 1.742-5.602 0-1.752-2.796-2.096-5.247-2.45-1.398-.345-2.795-1.044-3.494-2.097-.355-.355-.7-1.753-1.054-2.806h-.698m115.457 82.08a7.55 7.55 0 0 1-2.756-.524c.699-6.3.699-13.998 1.053-19.944 1.398 1.743 2.097 2.796 2.796 2.796.698 0 1.397-1.053 3.504-2.451-.699 6.3-1.053 13.643-2.107 19.599-.699.349-1.572.524-2.49.524m-199.766-2.796c-.919 0-1.795-.175-2.494-.524-.699-5.601-1.043-12.954-1.752-19.609 1.752 1.752 2.451 2.806 3.15 2.806 1.053 0 1.408-1.054 3.15-3.15.355 6.3.355 13.653.7 19.953a7.508 7.508 0 0 1-2.754.524m70.655-11.726c-2.45-.355-4.548-.7-7.343-.7-2.451 0-5.257.345-7.708.7 0-5.601.7-9.805 2.107-13.3 6.999.7 9.794.7 11.192 2.452 1.408 1.398 1.053 4.193 1.752 10.848m70.354-.355c-2.452-.698-4.903-.698-7.698-.698-2.451 0-4.902.354-7 .698 0-.344-.354-3.848-.354-4.547 0-2.097.7-5.247 1.753-8.397 5.945 0 9.105 0 10.847 1.398 2.097 1.752 2.452 4.902 2.452 11.546m-143.847-56c-.7-7-.355-15.396-1.408-22.75 2.097 1.398 2.806 2.452 3.15 2.452 1.053 0 1.408-1.398 3.15-2.796v18.9c0 .699.355 2.441.355 3.849-1.398.344-3.505.344-5.247.344m204.391-.909c-1.44 0-2.465-.323-3.49-.843.414-4.155.583-8.803.577-13.507-.003-3.216-.088-6.46-.233-9.586 1.408 1.752 2.107 2.45 3.15 2.795.7 0 1.398-.699 2.806-2.096-.354 6.999 0 16.449-1.053 23.103a12.64 12.64 0 0 1-1.757.134M180.35 205.028c-4.547 0-9.45-1.054-10.847-3.15-1.054-1.398-1.054-4.204-1.398-6.3 3.15 2.096 8.042 3.494 11.547 3.494 4.902 0 8.75-1.043 12.245-3.494-.699 2.45-1.043 6.999-3.15 8.052-1.742 1.043-4.892 1.398-8.397 1.398" style="fill:#fff;fill-opacity:1;fill-rule:nonzero;stroke:none"/><path d="M0 0h360v360H0z" style="fill:none;stroke:none"/></svg>