<?xml version="1.0" encoding="UTF-8" standalone="no"?>
<!-- Created with Inkscape (http://www.inkscape.org/) -->

<svg width="155.41937mm" height="196.48296mm" viewBox="0 0 155.41937 196.48296" version="1.1" id="svg1"
  xml:space="preserve" inkscape:version="1.4 (e7c3feb1, 2024-10-09)" sodipodi:docname="deer.svg"
  xmlns:inkscape="http://www.inkscape.org/namespaces/inkscape"
  xmlns:sodipodi="http://sodipodi.sourceforge.net/DTD/sodipodi-0.dtd" xmlns="http://www.w3.org/2000/svg"
  xmlns:svg="http://www.w3.org/2000/svg">
  <sodipodi:namedview id="namedview1" pagecolor="#ffffff" bordercolor="#000000" borderopacity="0.25"
    inkscape:showpageshadow="2" inkscape:pageopacity="0.0" inkscape:pagecheckerboard="false"
    inkscape:deskcolor="#d1d1d1" inkscape:document-units="mm" inkscape:zoom="0.95772927" inkscape:cx="262.07824"
    inkscape:cy="335.16779" inkscape:window-width="1736" inkscape:window-height="1097" inkscape:window-x="0"
    inkscape:window-y="44" inkscape:window-maximized="0" inkscape:current-layer="layer1" />
  <defs id="defs1" />
  <g inkscape:label="Layer 1" inkscape:groupmode="layer" id="layer1" transform="translate(-23.270081,-81.323083)">
    <path style="fill:#a40001;stroke:none;stroke-opacity:1;fill-opacity:0.9"
      d="m 38.966016,277.49167 c -0.512349,-0.51235 -0.359352,-1.55783 0.47625,-3.25437 0.957065,-1.94316 0.96416,-2.08638 0.122367,-2.46993 -0.732515,-0.33375 -0.521826,-1.36653 0.278776,-1.36653 0.833653,0 0.674379,-3.3786 -0.227342,-4.82252 -0.531105,-0.85045 -0.752038,-3.98225 -0.379255,-5.37605 0.245802,-0.91902 0.236682,-1.28725 -0.04491,-1.81341 -0.38959,-0.72795 -0.429618,-1.59914 -0.147102,-3.20156 0.524506,-2.975 0.473468,-5.07801 -0.14349,-5.91249 -0.720658,-0.97474 -1.329886,-3.67218 -1.465838,-6.4902 -0.05529,-1.14616 -0.221684,-2.2299 -0.369754,-2.40832 -0.190768,-0.22986 -0.07945,-0.58634 0.382017,-1.22336 1.766137,-2.438 2.755846,-5.33092 2.932565,-8.57189 0.05554,-1.01864 0.16815,-2.22779 0.250238,-2.687 0.08678,-0.48544 -0.03129,-1.31605 -0.282081,-1.98437 -0.481691,-1.28366 -1.866127,-5.08022 -2.73256,-7.49354 -0.312301,-0.86987 -0.900653,-1.94143 -1.30745,-2.38125 -0.926144,-1.00132 -1.497131,-1.93091 -1.71007,-2.78404 -0.0908,-0.36381 -0.657738,-1.31631 -1.259854,-2.11667 -2.607515,-3.46605 -5.545537,-1.77629 -7.272408,4.18263 -1.333918,4.60294 -2.679525,4.3088 -2.793978,-0.61076 -0.0394,-1.69344 0.497124,-6.66471 0.775403,-7.18468 0.294612,-0.55049 0.548552,-1.66079 0.716798,-3.13407 0.183324,-1.6053 5.632442,-13.02019 6.433063,-13.47608 0.238498,-0.1358 0.922925,-0.73112 1.520949,-1.32292 0.598024,-0.5918 1.66066,-1.55225 2.361414,-2.13433 0.700754,-0.58208 1.660429,-1.43622 2.13261,-1.89809 0.724538,-0.70871 4.697114,-3.11836 5.154238,-3.12642 0.08042,-0.001 1.509171,-0.84855 3.175,-1.88253 3.537403,-2.19566 4.665735,-2.82209 6.468363,-3.59112 1.895226,-0.80854 1.843388,-0.79906 4.928146,-0.90099 2.928467,-0.0968 2.574281,-0.16199 8.96248,1.65063 0.800364,0.22709 1.891218,0.51737 2.42412,0.64504 1.226688,0.2939 8.204747,0.39481 9.627601,0.13922 0.589333,-0.10587 1.839489,-0.0619 2.778125,0.0978 3.455752,0.58776 6.956372,0.63687 7.94946,0.11152 0.495496,-0.26212 1.019965,-0.50681 1.165486,-0.54375 0.145521,-0.0369 0.800364,-0.26189 1.455208,-0.4999 1.395416,-0.50716 4.602847,-0.38531 7.408337,0.28146 0.94588,0.2248 2.135462,0.47741 2.643512,0.56135 0.50805,0.0839 1.26132,0.4367 1.67395,0.7839 0.41262,0.3472 0.94944,0.64988 1.19294,0.67261 4.22529,0.39449 6.93969,0.46947 7.62943,0.21073 1.0786,-0.40461 3.2339,-1.88235 4.50725,-3.09032 0.34166,-0.32412 0.70778,-0.595 0.81362,-0.60196 0.10583,-0.007 0.84727,-0.57345 1.64763,-1.25886 0.80037,-0.68542 1.61229,-1.36704 1.80428,-1.51471 0.19199,-0.14768 0.60042,-0.5364 0.90761,-0.86382 0.3072,-0.32742 0.66241,-0.59531 0.78937,-0.59531 0.12696,0 0.90916,-0.74414 1.73822,-1.65365 0.82907,-0.9095 1.87317,-2.01083 2.32022,-2.44739 0.44706,-0.43657 1.39207,-1.56766 2.10004,-2.51355 0.70796,-0.94588 1.87566,-2.3151 2.59489,-3.0427 0.71923,-0.72761 1.57829,-1.74862 1.90902,-2.26891 0.33073,-0.5203 0.97931,-1.32397 1.44128,-1.78594 0.46197,-0.46197 0.76312,-0.83995 0.66922,-0.83995 -0.0939,0 0.40296,-0.60406 1.10413,-1.34236 0.70116,-0.73831 1.31977,-1.48245 1.37467,-1.65365 0.0549,-0.1712 0.33785,-0.57311 0.62878,-0.89313 0.88586,-0.97442 0.44836,-1.40115 -1.4479,-1.41225 -2.33835,-0.0137 -7.37138,-1.09763 -7.86647,-1.69417 -0.5458,-0.65765 0.0358,-1.3129 1.40858,-1.58704 0.72684,-0.14514 2.70363,-0.74655 2.94385,-0.89562 0.25949,-0.16103 0.66403,-0.2729 1.45521,-0.40244 0.21828,-0.0357 0.84762,-0.26369 1.39853,-0.50657 1.04374,-0.46015 4.1969,-0.76351 4.70056,-0.45223 0.58076,0.35893 -0.51943,0.98597 -2.05095,1.16891 -2.75317,0.32888 -6.76874,1.77822 -6.26135,2.25992 0.12586,0.11949 0.82415,0.29433 1.55175,0.38854 0.72761,0.0942 1.73964,0.24062 2.24896,0.32534 0.88712,0.14757 2.11095,0.24776 3.85204,0.31534 1.48491,0.0576 1.96811,0.67246 0.99403,1.26483 -0.78542,0.47764 -2.81585,2.81593 -3.40907,3.92596 -0.27413,0.51295 -1.45597,2.06641 -6.72867,8.84441 -1.38244,1.77713 -2.9425,3.78836 -3.46678,4.46941 -0.52428,0.68104 -1.59584,1.72049 -2.38125,2.30987 -0.7854,0.58939 -2.14238,1.61078 -3.01551,2.26976 -0.87312,0.65899 -3.01625,2.25034 -4.7625,3.53635 -1.74625,1.28601 -4.00844,2.9623 -5.02708,3.72509 -1.01865,0.76279 -2.4474,1.64568 -3.175,1.96197 -0.72761,0.31629 -1.70777,0.74107 -2.17814,0.94395 -0.86434,0.37281 -1.65832,0.27774 -1.65832,-0.19856 0,-0.14259 0.36182,-0.39583 0.80404,-0.56275 1.9601,-0.73985 -0.28344,-2.10011 -4.18963,-2.54016 -1.22315,-0.1378 -2.047092,-0.36832 -2.248952,-0.62923 -0.35516,-0.45904 -2.22538,-1.04719 -3.59158,-1.12948 -0.49046,-0.0296 -0.97546,-0.18917 -1.07778,-0.35473 -0.28266,-0.45736 -1.302954,-0.56758 -1.532011,-0.1655 -0.264006,0.46343 -0.776616,0.54021 -1.960868,0.29372 -0.731135,-0.15217 -1.138718,-0.0866 -1.68461,0.2711 -0.694709,0.45519 -2.010173,0.576 -4.759236,0.43709 -4.185793,-0.21151 -5.811896,0.26593 -3.777836,1.10923 0.622601,0.25812 1.608252,0.68044 2.190336,0.93849 0.582083,0.25805 1.380504,0.54367 1.774268,0.63471 0.393765,0.091 1.048608,0.30193 1.455209,0.46865 0.91572,0.37548 0.644744,0.29844 4.443439,1.2633 1.746251,0.44354 3.790339,0.80738 4.542419,0.80852 1.62523,0.002 2.20446,0.18787 2.20446,0.70561 0,0.77479 -6.141481,0.25179 -9.910808,-0.84398 -0.841889,-0.24475 -1.66504,-0.4684 -1.829223,-0.497 -0.312902,-0.0545 -2.922484,-0.88161 -3.605806,-1.14283 -0.694049,-0.26533 -1.153766,-0.36977 -2.720838,-0.6181 -0.841617,-0.13338 -2.136399,-0.44077 -2.877294,-0.68311 -2.375426,-0.77696 -18.057161,-0.12914 -19.509661,0.80595 -0.203089,0.13075 -1.657375,0.87935 -3.231748,1.66356 -1.574373,0.78422 -2.934335,1.54209 -3.022138,1.68415 -0.0878,0.14207 -0.598048,0.48916 -1.133878,0.77131 -0.535829,0.28214 -1.500454,0.99482 -2.143611,1.58372 -0.643156,0.58889 -1.26491,1.07072 -1.381675,1.07072 -0.45298,0 -2.296071,3.2543 -2.733682,4.8268 -0.253388,0.91052 -0.560883,1.77942 -0.68332,1.93089 -0.122438,0.15147 -0.28885,0.65137 -0.369804,1.11088 -0.08096,0.45951 -0.258072,1.12712 -0.393595,1.48357 -0.135523,0.35645 -0.320386,1.16625 -0.410807,1.79954 -0.09042,0.63329 -0.274511,1.57322 -0.409089,2.08872 -0.306876,1.1755 -0.422543,6.38095 -0.15153,6.81945 0.110797,0.17928 0.20145,1.6279 0.20145,3.21916 0,2.5048 0.07195,2.98468 0.535958,3.57457 0.365129,0.46418 0.483727,0.88946 0.37209,1.33426 -0.174273,0.69436 0.551751,3.29758 0.919677,3.29758 0.311385,0 0.572986,-0.4892 0.765833,-1.43212 0.184754,-0.90335 0.96003,-1.14955 0.905862,-0.28768 -0.08761,1.39402 -1.260172,7.08067 -1.696796,8.22908 -0.122354,0.32181 -0.307098,1.34036 -0.410543,2.26344 -0.103444,0.92307 -0.422478,2.2141 -0.708963,2.86894 -0.286485,0.65485 -0.617587,1.54782 -0.735782,1.98438 -0.118196,0.43656 -0.397378,1.28909 -0.620407,1.8945 -0.733266,1.99046 -1.095833,4.22721 -0.754019,4.6517 0.49024,0.60881 0.958465,14.15993 0.592489,17.1475 -0.299133,2.44192 -0.204972,3.90224 0.408581,6.33651 0.01834,0.0728 0.128066,0.99352 0.243838,2.04614 0.258684,2.35199 0.649505,2.78896 1.588363,1.77592 0.762044,-0.82226 0.867198,-1.7426 0.256967,-2.24904 -1.357942,-1.12699 -1.395411,-2.09993 -0.289841,-7.52615 0.207545,-1.01864 0.377634,-2.03068 0.377977,-2.24896 3.42e-4,-0.21828 0.14048,-0.93265 0.311417,-1.5875 0.518585,-1.98665 0.565712,-2.3894 0.690189,-5.89843 0.09693,-2.73252 0.03996,-3.53982 -0.295623,-4.18876 -0.37814,-0.73124 -0.377938,-0.8557 0.0022,-1.37761 0.229864,-0.31555 0.734066,-1.04999 1.120449,-1.63207 0.386383,-0.58209 1.15889,-1.74668 1.716681,-2.588 0.557792,-0.84131 1.014313,-1.67475 1.014491,-1.85208 3.09e-4,-0.30858 0.509883,-0.97043 2.081636,-2.70367 1.349594,-1.48826 3.394243,-4.72893 3.589104,-5.68854 0.01478,-0.0728 0.480229,-1.04452 1.034341,-2.15946 0.554113,-1.11493 1.031012,-2.1865 1.059775,-2.38125 0.02876,-0.19475 0.375896,-0.93273 0.771404,-1.63995 0.395509,-0.70723 0.843277,-1.747 0.99504,-2.31061 0.255679,-0.94952 1.069726,-1.73878 1.520199,-1.47391 0.556371,0.32713 1.378361,-0.4695 2.182475,-2.11513 0.486519,-0.99568 1.08902,-2.10937 1.338892,-2.47488 1.431429,-2.09387 2.839943,-5.33037 2.623301,-6.02785 -1.653715,-5.32411 -1.927159,-7.2365 -0.914554,-6.39611 0.344465,0.28588 1.425024,3.2109 1.560789,4.22498 0.360604,2.69349 3.224078,8.86485 4.380822,9.44154 0.776679,0.38722 1.246984,-0.11832 0.842141,-0.90522 -0.132009,-0.25659 -0.186652,-0.61536 -0.121429,-0.79726 0.201501,-0.56196 0.868184,-0.36533 1.134277,0.33455 0.500043,1.31522 1.388354,2.24514 2.144671,2.24514 0.398031,0 1.06025,0.27997 1.471597,0.62215 0.928087,0.77203 1.940223,1.31643 2.11764,1.13902 0.381044,-0.38105 -0.54039,-1.55644 -3.768011,-4.80654 -1.955167,-1.96878 -3.55485,-3.65145 -3.55485,-3.73925 0,-0.0878 -0.535781,-0.91047 -1.190625,-1.82815 -0.654843,-0.91768 -1.193937,-1.76624 -1.197985,-1.88568 -0.004,-0.11945 -0.361236,-0.68487 -0.79375,-1.2565 -0.861569,-1.13868 -0.963209,-1.47422 -0.446561,-1.47422 0.186906,0 0.56054,0.37364 0.830298,0.8303 0.269758,0.45666 0.682382,1.02469 0.916942,1.26227 0.23456,0.23759 1.073415,1.26294 1.864122,2.27856 0.790707,1.01562 1.534847,1.88627 1.653646,1.93478 0.118798,0.0485 0.215997,0.19332 0.215997,0.32182 0,0.12849 0.386953,0.67765 0.859896,1.22034 2.015957,2.31327 2.799084,2.99985 3.421685,2.99985 0.715088,0 1.274669,0.44307 1.274669,1.00928 0,1.08383 4.583723,4.74447 6.835943,5.45929 0.579675,0.18398 0.591367,0.15167 0.417995,-1.15527 -0.150436,-1.13405 -0.111587,-1.34455 0.248143,-1.34455 0.421657,0 1.758336,2.2713 1.758336,2.98779 0,0.60322 1.192266,1.52259 2.475292,1.90873 1.371165,0.41266 1.966901,0.0632 0.780773,-0.45805 -0.408388,-0.17946 -0.837737,-0.47762 -0.954108,-0.66259 -0.116372,-0.18496 -0.365151,-0.3363 -0.552843,-0.3363 -0.387272,0 -0.955364,-1.09769 -0.955364,-1.84599 0,-0.47172 0.08405,-0.46403 1.582242,0.14474 0.870234,0.3536 1.748868,0.64292 1.952521,0.64292 0.203653,0 1.188284,0.41449 2.18807,0.92109 0.999787,0.5066 1.966617,0.92332 2.148517,0.92604 0.66648,0.01 0.30334,-0.4562 -0.71202,-0.91406 -1.040074,-0.46901 -1.520546,-1.05391 -1.086235,-1.32233 0.310465,-0.19188 0.824675,-0.003 3.451905,1.26681 1.80855,0.87423 2.54447,1.08905 3.75797,1.09697 1.39248,0.009 1.49844,0.0522 1.37205,0.55865 -0.17829,0.71442 0.40817,1.18344 1.69571,1.35613 1.31389,0.17623 2.57543,-0.44945 2.81276,-1.39504 0.14467,-0.57644 0.29315,-0.67671 0.8456,-0.5711 1.02708,0.19634 1.01033,-0.28071 -0.11511,-3.27693 -2.28308,-6.07823 -2.4901,-7.88342 -0.90624,-7.9026 0.95393,-0.0115 5.08934,6.30904 5.08934,7.77859 0,1.05417 2.06828,2.46282 2.5268,1.72092 0.0983,-0.15898 0.46739,-0.21308 0.83107,-0.1218 1.25546,0.3151 2.60054,2.52449 1.53693,2.52449 -0.46238,0 -0.49091,0.51431 -0.1101,1.98438 0.15078,0.58208 0.31588,1.3247 0.36689,1.65026 0.051,0.32556 0.35104,1.00987 0.66675,1.52069 0.3933,0.63637 0.52442,1.15803 0.41651,1.65703 -0.0964,0.44554 0.056,1.2932 0.3925,2.18348 0.30249,0.80036 0.58761,1.69333 0.63359,1.98437 0.046,0.29104 0.20978,0.84529 0.36399,1.23165 0.15421,0.38637 0.3458,1.25875 0.42576,1.93863 0.0799,0.67987 0.2047,1.33213 0.27721,1.44945 0.0725,0.11732 0.20443,0.67369 0.29315,1.23638 0.0887,0.56268 0.32188,1.40895 0.51814,1.88059 0.38516,0.92561 1.3489,4.28352 1.53839,5.36018 0.57586,3.27185 0.64289,3.44306 1.10204,2.81513 0.22994,-0.31447 0.25437,-0.79776 0.0856,-1.69372 -0.12989,-0.68954 -0.28236,-1.72996 -0.33882,-2.31204 -0.23034,-2.37448 -0.44831,-4.03839 -0.6932,-5.29167 -0.14218,-0.7276 -0.31274,-1.74891 -0.37903,-2.26956 -0.0663,-0.52066 -0.35177,-1.46318 -0.63442,-2.0945 -0.46934,-1.0483 -0.47854,-1.20181 -0.10612,-1.7702 0.42457,-0.64797 0.33261,-2.90244 -0.18405,-4.51256 -0.12888,-0.40164 -0.29246,-1.26604 -0.36352,-1.92088 -0.13486,-1.2428 -0.33946,-1.88477 -1.20913,-3.79381 -0.2872,-0.63045 -0.71696,-1.90998 -0.95502,-2.84342 -0.23806,-0.93343 -0.60951,-2.38944 -0.82543,-3.23558 -0.21593,-0.84613 -0.43812,-1.7391 -0.49376,-1.98437 -0.0556,-0.24527 -0.45994,-1.45798 -0.89847,-2.69491 -0.80823,-2.27971 -1.00492,-3.43958 -0.58331,-3.43958 0.29753,0 0.85203,0.66512 0.9265,1.11133 0.0316,0.18913 0.22061,0.64153 0.4201,1.00534 0.19949,0.3638 0.3426,0.69122 0.31801,0.7276 -0.0246,0.0364 -0.0349,0.0959 -0.023,0.13229 0.012,0.0364 0.0771,0.42333 0.14466,0.8599 0.95197,6.14819 3.40461,6.37815 3.18829,0.29893 -0.0628,-1.76514 -0.20095,-3.58923 -0.30697,-4.05353 -0.29361,-1.28581 1.60393,-3.80867 2.32346,-3.08914 0.0923,0.0922 -0.063,0.46109 -0.34508,0.81965 -0.48334,0.61447 -0.50742,1.04692 -0.41912,7.5272 0.0979,7.1808 0.16349,7.55886 1.26061,7.26017 1.00047,-0.27238 3.47397,-3.07474 2.71392,-3.07474 -0.0988,0 -0.0485,-0.15805 0.11184,-0.35122 0.16032,-0.19317 0.53997,-1.15574 0.84369,-2.13904 0.44862,-1.45249 0.70556,-1.87047 1.36984,-2.22847 0.92199,-0.49688 1.47855,-1.00471 2.05769,-1.87753 0.21828,-0.32897 0.90081,-1.28258 1.51673,-2.11913 0.61592,-0.83655 1.15725,-1.76604 1.20296,-2.06554 0.0457,-0.2995 0.20764,-0.70498 0.35986,-0.90108 0.46049,-0.59321 1.41837,-2.74472 1.41837,-3.1858 0,-0.22728 0.18147,-0.56384 0.40327,-0.74791 0.22179,-0.18408 0.3493,-0.38866 0.28333,-0.45462 -0.066,-0.066 0.0949,-0.50237 0.35741,-0.96979 0.26254,-0.46743 0.47734,-1.15507 0.47734,-1.5281 0,-0.99779 1.30598,-4.74674 2.31308,-6.63992 1.42544,-2.6796 3.92865,-7.76101 5.56877,-11.30435 0.84197,-1.81901 1.7496,-3.55309 2.01695,-3.85351 0.26735,-0.30042 0.4861,-0.65799 0.4861,-0.79459 0,-0.1366 0.58418,-0.86731 1.29817,-1.62379 0.71399,-0.75648 1.44558,-1.82767 1.62575,-2.38041 0.33716,-1.03439 1.06084,-2.1442 2.89822,-4.44458 0.58116,-0.7276 1.5433,-2.01617 2.13809,-2.86349 0.76928,-1.09591 1.40088,-1.67752 2.18819,-2.01499 0.60871,-0.26093 1.87832,-1.05772 2.82135,-1.77066 1.79205,-1.35479 4.15804,-2.62495 5.28648,-2.83798 1.41456,-0.26706 6.0085,-2.74434 6.40585,-3.45436 0.26991,-0.48231 0.042,-1.47831 -0.33826,-1.47831 -0.44701,0 -0.25713,-0.75648 0.28524,-1.13637 0.7605,-0.53267 1.88755,-2.84979 1.72217,-3.54063 -0.28219,-1.17886 1.97272,-2.32621 2.84919,-1.44974 0.54324,0.54325 0.54324,0.54325 -0.29401,1.01989 -1.22075,0.69496 -1.13511,1.459 0.15159,1.35251 0.99219,-0.0821 0.99219,-0.0821 0.99219,-1.50307 0,-1.78708 -0.9803,-2.84683 -2.36278,-2.55427 -3.14742,0.66605 -9.22417,0.66399 -14.28123,-0.005 -2.91189,-0.38511 -3.59662,-0.28563 -3.59662,0.52253 0,0.17278 -0.50601,0.92377 -1.12448,1.66885 -0.61846,0.74509 -1.48166,1.78748 -1.91823,2.31644 -0.80189,0.97161 -1.17238,1.07963 -2.6718,0.77896 -0.4899,-0.0982 -1.34001,0.0123 -2.11286,0.27467 -1.60107,0.54357 -2.70955,-0.21254 -1.79428,-1.2239 0.2454,-0.27117 0.5017,-0.43752 0.56955,-0.36967 0.0678,0.0678 0.43568,-0.0382 0.81742,-0.23555 0.69375,-0.35875 0.8719,-0.41374 1.34056,-0.41374 0.82271,0 2.9289,-3.56824 2.21836,-3.75826 -0.39414,-0.10541 -0.81894,-0.37449 -0.944,-0.59795 -0.3479,-0.62166 -1.16349,-0.4854 -1.9232,0.32132 -0.68522,0.7276 -0.68522,0.7276 -1.32094,0 -0.63797,-0.73019 -1.54624,-0.9573 -1.85172,-0.46302 -0.62177,1.00604 -2.35861,0.004 -2.60592,-1.5036 -0.39308,-2.39595 -2.91639,-4.18091 -6.52193,-4.61353 -0.94604,-0.11351 -2.13679,-0.2759 -2.64611,-0.36087 -0.50933,-0.085 -2.05714,-0.34272 -3.43959,-0.57279 -1.38244,-0.23006 -2.91908,-0.51923 -3.41475,-0.64259 -0.49567,-0.12335 -1.01503,-0.15394 -1.15413,-0.068 -0.13911,0.086 -1.45997,0.25544 -2.93525,0.3766 -2.89882,0.23805 -3.60263,0.33264 -4.75364,0.63886 -0.41162,0.10951 -2.73334,0.2365 -5.15937,0.28221 -2.42604,0.0457 -5.92074,0.16152 -7.76601,0.25738 -2.61444,0.13581 -3.72412,0.0832 -5.02708,-0.2385 -0.91963,-0.22703 -1.96971,-0.46741 -2.33352,-0.53417 -0.3638,-0.0668 -1.49489,-0.44133 -2.51354,-0.83235 -1.24023,-0.47608 -2.726158,-0.78842 -4.497915,-0.94547 -1.455209,-0.12899 -2.94349,-0.28267 -3.307292,-0.34152 -0.363802,-0.0588 -1.191267,-0.18081 -1.83881,-0.27105 -0.647544,-0.0902 -1.456114,-0.34672 -1.796823,-0.56996 -0.34071,-0.22324 -1.120589,-0.67241 -1.733065,-0.99815 -0.612477,-0.32574 -1.460675,-0.88533 -1.884886,-1.24354 -1.882329,-1.58945 -3.570724,-3.09504 -4.944662,-4.40929 -0.815442,-0.78002 -2.142454,-1.92044 -2.948917,-2.53427 -1.536036,-1.16914 -2.503602,-2.42368 -2.074025,-2.68917 0.277245,-0.17135 3.13715,1.84168 5.182646,3.64796 0.727604,0.64252 2.037292,1.73917 2.910417,2.43701 0.873125,0.69783 1.908212,1.5766 2.300194,1.9528 1.8075,1.73476 7.152659,3.78949 9.347813,3.59339 0.578596,-0.0517 1.766368,0.0121 2.639493,0.14168 2.137152,0.31726 2.261962,0.34986 3.175002,0.8292 0.73656,0.38669 2.64583,0.91771 2.64583,0.73587 0,-0.0441 0.24214,0.0493 0.5381,0.20772 1.23942,0.66332 6.95643,0.97956 9.25149,0.51176 0.58208,-0.11864 2.60614,-0.26299 4.49791,-0.32077 4.10572,-0.12539 5.13373,-0.20032 12.30313,-0.89679 1.0914,-0.10602 2.34156,-0.1013 2.77812,0.0105 0.75406,0.1931 1.79678,0.36145 3.93177,0.63479 0.52393,0.0671 1.46097,0.23528 2.08229,0.37377 0.62133,0.13849 1.72501,0.32687 2.45261,0.41862 1.95797,0.24692 3.18408,0.60645 4.55619,1.336 1.6386,0.87126 2.08539,0.31854 1.28704,-1.59217 -0.6322,-1.51308 -2.39207,-1.76488 -7.31493,-1.04663 -2.43211,0.35485 -4.59392,-1.15577 -5.16651,-3.61023 -0.43499,-1.86465 -2.2243,-4.7882 -3.5129,-5.73974 -0.54837,-0.40493 -0.86071,-0.91063 -0.98049,-1.5875 -0.0967,-0.5463 -0.66771,-1.88366 -1.26896,-2.9719 -0.60126,-1.08825 -1.13647,-2.10028 -1.18938,-2.24896 -0.0529,-0.14869 -0.56933,-1.009 -1.14762,-1.9118 -0.57829,-0.90281 -0.97446,-1.76601 -0.88039,-1.91823 0.31303,-0.50648 0.89815,-0.28608 1.37254,0.51698 0.64185,1.08657 0.86086,0.99623 0.80175,-0.33073 -0.0972,-2.1816 0.73613,-1.49951 1.5354,1.25678 0.2532,0.87312 0.54891,1.82562 0.65714,2.11666 0.10823,0.29104 0.41795,1.24354 0.68825,2.11667 0.57746,1.86525 0.9654,2.59367 3.17051,5.95312 1.05783,1.61159 1.76436,3.01366 1.96893,3.90726 0.47747,2.08565 2.49197,3.42279 4.29641,2.85179 0.1833,-0.058 1.25417,-0.1768 2.37971,-0.26399 2.88207,-0.22327 2.99131,-0.28452 2.8541,-1.60027 -0.0501,-0.48043 -1.89812,-4.3927 -2.37461,-5.02708 -0.10931,-0.14552 -0.88552,-1.57302 -1.72492,-3.17223 -3.1844,-6.06685 -4.80853,-7.71199 -9.36823,-9.48943 -12.52594,-4.88279 -18.14094,-8.58985 -22.09976,-14.59042 -1.49873,-2.271695 -1.97149,-3.42083 -2.93898,-7.143753 -0.34036,-1.309687 -0.87911,-3.33375 -1.19723,-4.497916 -0.91339,-3.342558 -1.173,-6.614584 -0.52482,-6.614584 0.26509,0 0.45688,0.425435 0.59639,1.322917 0.27026,1.738666 0.66211,3.319611 1.34434,5.423958 0.30666,0.945886 0.57235,1.779323 0.59043,1.852084 0.0181,0.07276 0.16313,0.444909 0.32236,0.826996 0.15922,0.382088 0.43862,1.215525 0.62088,1.852083 0.38462,1.34329 0.33804,1.165368 0.61469,2.348004 0.5686,2.430641 7.09717,10.583331 8.47499,10.583331 0.0752,0 0.96309,0.52974 1.97319,1.1772 2.87005,1.83966 7.55984,4.17331 10.60428,5.27672 4.65423,1.68685 6.79123,2.91474 8.6321,4.95991 1.23377,1.37069 6.71373,11.22049 6.71373,12.06739 0,0.14296 0.22509,0.54607 0.5002,0.89582 0.27511,0.34974 0.6562,1.15656 0.84686,1.79294 0.77296,2.57993 2.93552,3.70275 4.36956,2.26871 0.66547,-0.66547 0.66547,-0.66547 0.0999,-1.38449 -0.80469,-1.02301 0.29989,-1.99858 2.07753,-1.83489 2.01526,0.18557 5.49932,-0.85127 6.83072,-2.03278 0.55841,-0.49555 0.94983,-0.80173 2.47316,-1.93462 0.80037,-0.59522 1.8124,-1.46384 2.24896,-1.93027 1.19342,-1.27506 2.10434,-1.69074 2.54404,-1.16093 0.29879,0.36002 0.21795,0.53387 -0.5687,1.22295 -0.50435,0.44179 -1.57185,1.40931 -2.37222,2.15005 -1.60672,1.48701 -3.43413,2.95877 -4.58701,3.6943 -1.3731,0.87603 -0.51545,0.75383 1.45387,-0.20714 1.06838,-0.52135 2.56073,-1.4162 3.31632,-1.98856 3.40747,-2.58118 5.61342,-3.9391 6.16483,-3.79491 0.672,0.17573 0.60343,0.83305 -0.12928,1.23945 -0.29049,0.16112 -1.08188,0.70966 -1.75865,1.21899 -0.67677,0.50932 -1.56257,1.16416 -1.96844,1.4552 -0.40588,0.29104 -1.04324,0.77958 -1.41636,1.08565 -0.88873,0.729 -5.57964,3.54456 -5.90548,3.54456 -0.13903,0 -0.59897,0.2913 -1.02209,0.64733 -0.42312,0.35603 -1.58656,0.91055 -2.58543,1.23225 -1.37958,0.44433 -1.9229,0.7657 -2.2604,1.33705 -0.34898,0.59077 -0.63639,0.75212 -1.33976,0.75212 -0.92759,0 -1.41543,0.35941 -0.911,0.67116 0.76386,0.47209 3.21886,-0.18391 4.14165,-1.1067 0.76559,-0.76559 1.04648,-0.8906 1.68566,-0.75021 0.47908,0.10522 1.08108,0.0118 1.60369,-0.24894 0.46018,-0.22957 0.94922,-0.41739 1.08676,-0.41739 0.13754,0 1.22057,-0.57118 2.40674,-1.26929 1.18617,-0.6981 2.36641,-1.34973 2.62274,-1.44807 1.80973,-0.69424 5.8261,-3.85016 7.28626,-5.72526 0.51831,-0.66561 1.11122,-0.57756 1.11122,0.16503 0,1.78522 -3.89204,4.7754 -11.47173,8.81349 -4.0374,2.15093 -4.24305,2.38482 -3.6958,4.20319 0.54018,1.79489 0.72887,1.84277 8.94982,2.27077 6.44448,0.33552 7.51203,0.42737 9.24364,0.79529 1.0291,0.21866 2.42379,0.3279 3.175,0.2487 1.55201,-0.16363 1.67541,-0.0934 2.44258,1.38955 1.68112,3.2497 0.18859,6.29702 -3.21955,6.57339 -1.04665,0.0849 -1.19063,0.126 -1.19063,0.34004 0,0.11949 0.53578,0.77642 1.19063,1.45985 1.78996,1.86812 0.31381,4.84999 -2.03073,4.10213 -1.91077,-0.60949 -2.15102,-0.57017 -4.32721,0.70823 -5.34328,3.13891 -6.44917,4.22236 -8.43204,8.261 -0.1602,0.32628 -0.38057,0.59417 -0.48971,0.59531 -0.10914,10e-4 -0.19844,0.11739 -0.19844,0.25834 0,0.2897 -1.09722,1.98314 -4.89114,7.54893 -1.94519,2.85367 -5.01408,6.75811 -5.56019,7.07404 -0.18526,0.10717 -0.72852,0.82155 -1.20724,1.5875 -0.8445,1.35118 -3.36075,4.48213 -3.73813,4.65132 -0.17666,0.0792 -3.35328,6.4355 -4.7845,9.5736 -1.64954,3.6168 -2.83755,6.36909 -2.83755,6.57379 0,0.12269 -0.27898,0.54775 -0.61996,0.94457 -0.34098,0.39682 -0.9986,1.45714 -1.46137,2.35626 -1.15226,2.23874 -2.79098,4.88126 -3.22882,5.20663 -0.0979,0.0728 -0.51098,0.78714 -0.91793,1.5875 -0.40696,0.80037 -0.89539,1.63972 -1.08541,1.86522 -0.19002,0.22551 -0.51978,0.88035 -0.73279,1.45521 -0.96726,2.61035 -1.72717,4.17526 -2.34632,4.83186 -0.36887,0.39119 -0.86161,1.1753 -1.09497,1.74247 -0.23336,0.56717 -0.61901,1.1736 -0.85701,1.34763 -0.23799,0.17402 -0.45096,0.60294 -0.47326,0.95316 -0.0223,0.35021 -0.18796,0.90513 -0.36813,1.23316 -0.25598,0.46606 -0.25925,0.84197 -0.015,1.71979 0.17193,0.61786 0.34832,1.65916 0.39198,2.314 0.1048,1.57157 0.58609,5.54839 0.75251,6.21771 0.47339,1.90403 0.92009,4.21312 0.83206,4.30115 -0.0574,0.0574 0.004,0.4823 0.13747,0.94429 0.13298,0.46199 0.30469,1.68846 0.38159,2.7255 0.17695,2.38644 0.29213,2.97351 0.67359,3.43314 0.16883,0.20343 0.23184,0.36988 0.14002,0.36988 -0.21364,0 1.46573,3.01324 1.74495,3.1309 0.11511,0.0485 0.21035,0.2271 0.21164,0.39688 0.001,0.16977 0.59661,1.00293 1.32292,1.85145 1.51869,1.77424 1.5594,1.95871 0.64905,2.94099 -0.70819,0.76415 -0.6991,1.12113 0.0669,2.62579 0.40213,0.78992 0.4491,1.00233 0.71628,3.23935 0.1925,1.61177 -0.29602,2.33173 -1.10881,1.63408 -0.61139,-0.52479 -1.33587,-0.76569 -1.50069,-0.499 -0.0735,0.11884 -0.69033,0.29239 -1.37084,0.38566 -0.68052,0.0933 -1.39053,0.29676 -1.57781,0.45219 -1.15814,0.96117 -1.67781,-0.35987 -1.78225,-4.53057 -0.0749,-2.99219 -0.17159,-3.55115 -1.05707,-6.11261 -1.07894,-3.12107 -1.15413,-3.61074 -0.5878,-3.82806 0.77998,-0.29931 0.93844,-1.72511 0.27572,-2.4808 -0.19143,-0.21828 -0.54582,-1.4606 -0.78753,-2.7607 -0.24172,-1.3001 -0.72919,-3.0768 -1.08328,-3.94822 -0.35409,-0.87142 -0.6438,-1.75509 -0.6438,-1.96373 0,-1.01133 -1.59292,-2.4485 -2.24227,-2.02302 -0.72591,0.47563 -0.99166,0.2181 -1.1021,-1.06805 -0.30612,-3.56478 -0.54738,-3.69757 -1.82114,-1.00243 -0.53301,1.12779 -1.26663,2.6348 -1.63027,3.34891 -0.36364,0.71411 -0.88887,2.02379 -1.16718,2.91041 -0.27831,0.88662 -0.62133,1.85016 -0.76228,2.1412 -0.579,1.19559 -1.09029,2.98182 -1.17388,4.10105 -0.0489,0.65484 -0.31131,2.02406 -0.58313,3.0427 -0.33389,1.25127 -0.47114,2.53874 -0.4231,3.96876 0.1944,5.78613 -0.27213,7.75548 -1.66112,7.01212 -0.5872,-0.31427 -1.0725,-0.2877 -2.41445,0.13218 -0.7347,0.22989 -1.04462,-0.85939 -0.61493,-2.16134 0.16643,-0.50429 0.2418,-1.14935 0.1675,-1.43347 -0.0743,-0.28413 -0.044,-1.18789 0.0674,-2.00837 0.25626,-1.8884 -0.12387,-3.43589 -1.07939,-4.3941 -0.45601,-0.45731 -0.67912,-0.90846 -0.58879,-1.19063 0.41521,-1.29692 0.7799,-2.13083 1.29794,-2.96785 0.31521,-0.50933 0.5692,-0.98558 0.56441,-1.05834 -0.005,-0.0728 0.43904,-1.03823 0.98628,-2.1455 0.94829,-1.91874 0.97957,-2.06465 0.66664,-3.10912 -0.29741,-0.99266 -0.26395,-1.26413 0.35517,-2.88158 1.10167,-2.87811 1.56301,-4.14056 1.66776,-4.5638 0.054,-0.21828 0.34768,-1.28984 0.65255,-2.38125 0.30488,-1.0914 0.6095,-2.28203 0.67694,-2.64583 0.0674,-0.3638 0.17498,-0.81029 0.23896,-0.99219 0.14699,-0.41784 -0.51817,-0.42692 -1.27351,-0.0174 -0.5868,0.31816 -1.79103,0.58946 -4.41437,0.99453 -1.65784,0.25598 -2.34362,0.48178 -2.91042,0.95829 -0.48509,0.40781 -4.9842,0.32742 -7.9375,-0.14182 -1.091406,-0.17341 -2.520156,-0.34574 -3.175,-0.38296 -2.889954,-0.16427 -7.451193,-1.09217 -10.186459,-2.07227 -5.71127,-2.04645 -5.248494,-2.1412 -9.567694,1.95891 -1.862487,1.76802 -4.63887,4.15339 -6.16974,5.30084 -5.086862,3.81279 -6.079828,6.59034 -4.522449,12.6503 0.130894,0.50932 0.426899,1.61646 0.65779,2.4603 0.230891,0.84385 0.419801,1.86404 0.419801,2.26709 0,0.73437 0.612507,3.14331 1.051677,4.13615 0.128738,0.29104 0.739588,1.57387 1.357443,2.85073 0.893331,1.84616 1.056032,2.38797 0.794524,2.64584 -1.427146,1.40725 -6.005402,-10.97943 -6.138894,-16.60907 -0.0606,-2.55549 -0.258241,-3.145 -1.422581,-4.24312 -0.550399,-0.51909 -0.861035,-1.03878 -0.803514,-1.34427 0.05158,-0.27391 0.102884,-0.6301 0.114018,-0.79152 0.01113,-0.16142 0.430885,-0.81242 0.93278,-1.44666 0.501895,-0.63425 0.860116,-1.2056 0.796046,-1.26967 -0.06407,-0.0641 0.02575,-0.28788 0.19961,-0.49737 0.173855,-0.20948 0.353608,-0.62665 0.39945,-0.92703 0.116215,-0.76151 1.110976,-2.31237 1.484249,-2.31399 2.719545,-0.0118 6.244805,-4.72723 6.461996,-8.64365 0.169883,-3.06336 -1.422418,-3.39112 -2.521504,-0.51903 -0.581985,1.52082 -1.095312,2.36936 -3.160266,5.224 -1.82867,2.528 -2.389587,3.12805 -4.302397,4.6026 -2.725207,2.10081 -3.013843,2.40508 -2.799723,2.95141 0.323749,0.82605 0.696235,3.29538 0.831778,5.51413 0.134044,2.19423 1.074233,7.47363 1.41356,7.9375 0.106449,0.14553 0.397148,0.81615 0.645997,1.49029 0.36196,0.98055 0.602797,1.25577 1.20415,1.37604 0.738122,0.14763 0.752013,0.18391 0.769188,2.00919 0.0096,1.02237 0.159305,2.57968 0.332633,3.46069 0.173328,0.88101 0.244152,1.67283 0.157388,1.75959 -0.479871,0.47987 0.650643,1.67941 1.450041,1.53858 0.716432,-0.12622 0.802015,-0.0789 0.682689,0.3774 -0.209155,0.79981 0.525765,1.66024 1.335573,1.56366 0.560414,-0.0668 0.888609,0.18293 1.804886,1.37352 1.137408,1.47794 1.189556,2.32672 0.101189,1.64702 -0.802474,-0.50115 -1.153876,-0.38409 -1.584486,0.52783 -0.530946,1.12441 -0.760672,1.14778 -2.134264,0.21708 -1.458145,-0.98798 -1.363748,-0.99294 -2.487384,0.13069 -0.959617,0.95962 -2.684755,1.10934 -4.144603,0.35971 -0.526631,-0.27043 -0.870912,-2.28077 -0.542901,-3.17012 0.129468,-0.35104 0.204587,-1.90984 0.166932,-3.46402 -0.06045,-2.49515 -0.0095,-2.87916 0.435836,-3.28215 0.558028,-0.50501 0.631087,-1.48893 0.237237,-3.19496 -0.13977,-0.60544 -0.317886,-1.677 -0.395814,-2.38125 -0.07793,-0.70425 -0.187042,-1.57811 -0.242476,-1.94191 -0.304637,-1.99926 -0.705809,-5.97306 -0.801322,-7.9375 -0.209156,-4.30175 -1.379006,-6.22575 -2.359139,-3.87996 -0.202812,0.4854 -0.769957,1.28907 -1.260322,1.78594 -0.490364,0.49687 -1.102259,1.15347 -1.359765,1.45911 -0.550975,0.65397 -1.363228,4.30453 -1.701325,7.64637 -0.07361,0.7276 -0.224821,1.44198 -0.336019,1.5875 -0.256045,0.33508 -0.574033,2.6449 -0.683838,4.96731 -0.07672,1.62273 0.0013,1.95162 0.824713,3.47618 0.500199,0.92613 0.910187,1.96506 0.911084,2.30873 8.96e-4,0.34367 0.197828,0.98205 0.437625,1.41861 1.012441,1.8432 0.729063,5.309 -0.662895,8.10739 -1.381583,2.77753 -1.810323,3.01718 -2.424307,1.35505 -0.770133,-2.08484 -1.204374,-2.11103 -2.153422,-0.12988 -1.050722,2.19339 -2.019298,2.92323 -2.818631,2.1239 z m 68.055014,-20.34714 c 0.0411,-0.20335 0.1484,-0.54833 0.23855,-0.76661 0.51114,-1.2377 1.08621,-3.28518 1.41194,-5.02708 0.20409,-1.09141 0.43275,-2.30137 0.50814,-2.68881 0.18284,-0.9396 -0.37446,-1.25738 -0.95273,-0.54325 -1.16663,1.44074 -2.75556,8.75281 -2.15958,9.93818 0.13871,0.27589 0.85145,-0.406 0.95368,-0.91243 z M 57.656117,232.63157 c 1.567895,-1.55336 2.046579,-2.2036 3.165143,-4.29948 2.020464,-3.78581 2.034714,-3.91197 0.599232,-5.30506 -1.102902,-1.07033 -1.350112,-1.03072 -1.735163,0.27797 -0.219073,0.74458 -1.405668,3.09889 -1.866932,3.70417 -0.166346,0.21828 -0.579904,1.28984 -0.919017,2.38125 -0.339114,1.09141 -0.834197,2.50115 -1.100185,3.13276 -0.893844,2.1225 -0.21598,2.16207 1.856922,0.10839 z m 53.606833,-11.77396 c -0.0999,-0.32743 -0.40126,-1.0853 -0.66968,-1.68418 -0.26841,-0.59887 -0.73085,-1.72997 -1.02763,-2.51354 -0.68524,-1.80919 -2.36483,-3.87283 -2.3801,-2.92433 -0.014,0.87111 1.28866,4.55041 1.8785,5.30564 0.27105,0.34705 0.49281,0.84456 0.49281,1.10559 0,0.63071 0.70309,1.30613 1.35965,1.30613 0.42509,0 0.49266,-0.11612 0.34645,-0.59531 z m -43.510267,-0.97184 c 0,-0.13433 -0.357188,-0.60142 -0.79375,-1.03798 -0.856752,-0.85675 -0.969321,-1.35425 -0.482724,-2.13342 0.249316,-0.39921 0.226507,-0.58255 -0.114959,-0.92401 -0.681007,-0.68101 -0.820465,-1.46659 -0.352206,-1.98401 0.481037,-0.53154 0.543783,-1.41869 0.152103,-2.15056 -0.42471,-0.79357 -0.903032,-0.37432 -1.909753,1.67394 -1.499963,3.05179 -1.497003,3.1156 0.206782,4.45704 0.805174,0.63393 1.786531,1.41674 2.180793,1.73956 0.775191,0.63473 1.113714,0.74399 1.113714,0.35944 z M 39.31938,211.5651 c -0.09691,-0.45529 -0.222661,-1.15802 -0.279453,-1.56161 -0.05679,-0.40359 -0.176332,-0.85203 -0.265646,-0.99655 -0.08931,-0.14451 -0.218918,-0.57448 -0.288008,-0.95549 -0.164172,-0.90536 -0.843928,-2.20895 -1.151854,-2.20895 -0.735145,0 -0.805359,1.89612 -0.142066,3.83646 0.842342,2.46411 2.577552,4.00281 2.127027,1.88614 z m -0.384233,-6.4502 c 0.147688,-1.32919 0.459331,-2.98964 0.741139,-3.94884 0.135731,-0.46199 0.182108,-0.90465 0.10306,-0.9837 -0.07905,-0.079 0.0074,-0.50855 0.192086,-0.95444 0.56125,-1.35498 0.159076,-1.13674 -1.104443,0.59931 -3.401908,4.67416 -3.531508,4.96322 -2.133302,4.758 0.476722,-0.07 0.882395,0.0436 1.10238,0.3087 0.358472,0.43193 1.059969,0.57297 1.09908,0.22097 z M 152.25487,143.31194 c -0.0435,-1.37172 -0.64024,-1.96368 -1.55798,-1.54553 -0.37603,0.17133 -0.90163,0.31151 -1.168,0.31151 -0.26638,0 -0.62623,0.17098 -0.79967,0.37996 -0.46186,0.55652 0.10145,1.47212 0.9057,1.47212 0.3501,0 0.71427,0.12577 0.80928,0.2795 0.49741,0.80483 1.8435,0.13757 1.81067,-0.89756 z M 46.374349,205.26042 c -0.94699,-0.94699 0.426624,-7.47855 2.576271,-12.25021 0.26223,-0.58208 0.567241,-1.34945 0.677802,-1.70527 0.437955,-1.40944 1.095546,-2.26348 1.742836,-2.26348 0.876981,0 0.949619,0.81698 0.241329,2.71428 -0.591643,1.58483 -2.431574,6.6487 -3.011903,8.28937 -0.184715,0.52221 -0.365393,1.77237 -0.401508,2.77812 -0.08302,2.31213 -0.88234,3.37968 -1.824827,2.43719 z M 134.3323,194.01725 c -0.30856,-0.30856 -0.1763,-1.16745 0.47462,-3.08207 0.3541,-1.04155 0.82564,-2.54856 1.04788,-3.34893 0.22223,-0.80036 0.72813,-2.52677 1.12422,-3.83646 0.39609,-1.30968 0.73649,-2.44078 0.75646,-2.51354 0.02,-0.0728 0.17123,-0.60854 0.33615,-1.19062 0.16491,-0.58209 0.35404,-1.35599 0.42028,-1.7198 0.0662,-0.3638 0.24869,-0.99198 0.40544,-1.39597 0.15674,-0.40398 0.33328,-1.00076 0.39228,-1.32618 0.059,-0.32542 0.29249,-1.21528 0.51883,-1.97747 0.22635,-0.76218 0.34385,-1.38579 0.26111,-1.38579 -0.0827,0 -0.0323,-0.14883 0.11206,-0.33073 0.21711,-0.27357 0.61331,-1.83246 0.58839,-2.31511 -0.004,-0.0728 0.17642,-0.7276 0.4004,-1.4552 0.80973,-2.63044 1.25163,-4.99032 1.11926,-5.97719 -0.16935,-1.26259 0.22166,-1.8166 1.40487,-1.99059 1.77891,-0.26158 2.06812,-0.32525 2.55003,-0.56142 1.05392,-0.51649 2.44774,-0.37854 4.11787,0.40754 1.77808,0.8369 3.29366,1.32225 4.57045,1.46365 1.2894,0.1428 0.99703,0.82256 -0.39688,0.92275 -1.22982,0.0884 -1.98224,-0.0852 -5.18808,-1.19679 -1.07939,-0.37427 -2.20678,-0.5983 -2.64584,-0.52576 -1.71245,0.28292 -2.18302,0.51208 -2.45799,1.19697 -0.34643,0.8629 -1.7782,6.45046 -1.97028,7.68915 -0.0767,0.49453 -0.38285,1.68515 -0.68035,2.64583 -0.2975,0.96068 -0.82672,2.75872 -1.17605,3.99565 -0.34933,1.23693 -1.01179,3.49911 -1.47214,5.02708 -0.46035,1.52797 -0.87117,2.89719 -0.91294,3.04271 -0.0418,0.14552 -0.23655,0.80036 -0.43284,1.45521 -0.19629,0.65484 -0.37346,1.25015 -0.3937,1.32292 -0.0202,0.0728 -0.19883,0.66807 -0.39687,1.32291 -0.19804,0.65485 -0.37806,1.25016 -0.40005,1.32292 -0.022,0.0728 -0.13598,0.48948 -0.25332,0.92604 -0.11734,0.43656 -0.30048,0.91281 -0.40697,1.05833 -0.10649,0.14552 -0.33688,0.70941 -0.51198,1.25309 -0.33092,1.02745 -0.61521,1.36599 -0.90432,1.07687 z m -19.12413,-59.43883 c -0.2715,-0.15281 -1.49972,-0.24034 -2.7409,-0.19534 -5.45946,0.19792 -5.8671,0.16579 -7.79034,-0.61397 -1.01047,-0.40968 -2.85594,-0.89326 -4.10104,-1.07462 -2.969223,-0.43248 -4.634113,-1.30467 -4.671543,-2.44726 -0.08,-2.44156 -0.41904,-4.80439 -1.46093,-10.18061 -0.273343,-1.41043 -0.502169,-3.13683 -0.508506,-3.83645 -0.01035,-1.14236 -0.123439,-1.87546 -0.62454,-4.04853 -0.867827,-3.76342 -2.400166,-6.99108 -3.923695,-8.26471 -0.47531,-0.39735 -1.30435,-1.08873 -1.84231,-1.5364 -0.961678,-0.80028 -1.112433,-1.57761 -0.30596,-1.57761 1.107714,0 4.591361,2.52553 4.591361,3.32859 0,0.17093 0.174787,0.45584 0.388416,0.63314 0.213629,0.1773 0.37332,0.40023 0.35487,0.49542 -0.01845,0.0952 0.04409,0.35165 0.138975,0.56993 0.497492,1.14446 2.028159,5.66778 2.028159,5.99348 0,0.20787 0.24378,0.70768 0.54174,1.11069 0.41791,0.56526 0.48649,0.88032 0.30003,1.37835 -0.17039,0.45514 -0.10582,1.05914 0.21887,2.0473 0.25332,0.77092 0.54299,2.49733 0.64371,3.83645 0.64006,8.50995 1.54143,10.77643 4.344643,10.92458 1.08947,0.0576 2.34618,0.31359 3.00503,0.61218 2.22674,1.00915 4.20411,1.41868 5.89494,1.22091 2.21511,-0.2591 4.52154,-0.19348 6.12619,0.17429 1.14981,0.26352 1.46104,0.24886 1.98437,-0.0935 0.47436,-0.31033 1.13262,-0.37831 2.79224,-0.28835 3.15576,0.17106 3.702,-0.37968 2.98255,-3.00716 -1.09892,-4.01333 -1.58799,-5.48535 -1.95852,-5.89478 -0.2136,-0.23603 -0.60623,-0.90325 -0.87251,-1.48272 -0.80753,-1.75733 -1.81151,-3.15224 -2.82537,-3.92555 -0.96676,-0.73739 -1.0483,-1.22906 -0.20383,-1.22906 1.22699,0 3.53233,2.77245 4.40012,5.29166 0.2757,0.80037 0.85541,2.03366 1.28824,2.74065 0.85531,1.39706 2.18417,5.00737 2.15629,5.85831 -0.0775,2.3659 -1.01595,3.06069 -4.17894,3.09399 -1.33673,0.0141 -2.81314,0.17905 -3.28091,0.3666 -0.99943,0.40072 -2.19978,0.40908 -2.8909,0.0201 z m 28.77879,-2.12132 c -0.39909,-0.4248 -0.67701,-1.20867 -0.86774,-2.44739 -0.32011,-2.07897 -0.34014,-2.12575 -1.42131,-3.32027 -0.8517,-0.94099 -1.97856,-2.73359 -1.97856,-3.14748 0,-0.29299 0.79147,-0.34356 0.79857,-0.051 0.007,0.27505 1.24857,1.83133 2.47337,3.09952 0.76582,0.79295 1.06587,1.35903 1.19359,2.25192 0.22248,1.55533 1.1022,2.08186 2.5015,1.4972 1.21123,-0.50608 1.39508,-0.88724 0.76045,-1.57656 -0.50455,-0.54804 -2.96498,-4.57482 -2.96498,-4.85254 0,-0.40782 -3.64289,-4.9345 -4.94672,-6.14682 -0.84456,-0.7853 -2.33558,-2.18042 -3.31336,-3.10027 -0.97779,-0.91986 -2.34701,-1.96216 -3.04271,-2.31622 -3.33403,-1.69679 -8.59481,-8.90414 -8.91109,-12.20833 -0.0698,-0.729045 -0.20206,-1.521429 -0.29393,-1.760853 -0.1832,-0.477397 1.28178,-2.337209 1.59461,-2.024382 0.0993,0.09929 0.046,0.588074 -0.11837,1.086186 -0.19185,0.581328 -0.21265,1.132496 -0.0581,1.539082 0.13245,0.348383 0.25509,0.72272 0.27252,0.831861 0.0174,0.10914 0.0466,0.257966 0.0648,0.330726 0.0182,0.0728 0.0504,0.22159 0.0715,0.33073 0.0905,0.46796 1.91805,4.01211 2.69452,5.22552 1.14338,1.78677 4.5183,5.0046 5.81007,5.53962 2.40369,0.99556 9.62122,8.88975 11.62659,12.71663 0.68631,1.30969 1.34283,2.50032 1.45894,2.64584 0.11611,0.14552 0.35905,0.76302 0.53986,1.37222 0.40643,1.36938 1.32294,1.86876 2.52153,1.37388 0.42694,-0.17628 0.83578,-0.33877 0.90854,-0.36108 0.0728,-0.0223 0.66452,-0.19277 1.31502,-0.37879 1.60714,-0.45957 5.46271,-2.38512 6.32093,-3.1568 0.38413,-0.3454 1.26323,-1.17511 1.95354,-1.84381 1.51226,-1.4649 2.37923,-1.27021 1.20322,0.27019 -1.9575,2.56407 -5.58194,5.01584 -9.12424,6.17217 -1.1281,0.36825 -2.29242,0.82597 -2.58738,1.01716 -0.29497,0.19119 -1.01255,0.41842 -1.59463,0.50496 -1.77631,0.26408 -2.26787,0.41275 -3.21766,0.97314 -1.10963,0.6547 -0.93868,0.66364 -1.64286,-0.0859 z m -58.145223,-3.49489 c -0.490125,-0.51969 -0.891871,-1.08523 -0.892767,-1.25677 -8.97e-4,-0.17154 -0.18824,-0.66908 -0.416318,-1.10564 -0.228078,-0.43657 -0.733579,-1.74625 -1.123336,-2.91042 -1.105021,-3.30059 -1.860471,-3.96357 -2.289677,-2.00941 -0.265208,1.20749 -1.58805,2.21269 -2.621096,1.99172 -0.982983,-0.21025 -1.296625,-0.52312 -2.721556,-2.71487 -0.59866,-0.92082 -1.15629,-1.56449 -1.239177,-1.43038 -0.16234,0.26268 0.285036,2.14063 0.613533,2.57544 0.109941,0.14552 0.411394,0.83013 0.669895,1.52135 0.325317,0.86989 0.618971,1.25677 0.953915,1.25677 0.734946,0 1.129958,0.92228 0.615398,1.43684 -0.651358,0.65136 -0.955526,0.5135 -2.106851,-0.95485 -1.922671,-2.4521 -2.790352,-6.94396 -1.380035,-7.14424 0.646987,-0.0919 0.736482,-0.65765 0.358701,-2.26765 -0.161098,-0.68656 -0.110878,-0.89502 0.248874,-1.03307 0.526109,-0.20188 0.765876,0.14855 1.657369,2.42235 1.725646,4.40135 2.959763,5.85136 3.739735,4.39397 0.503774,-0.94131 0.376815,-3.62073 -0.224827,-4.74491 -0.152349,-0.28467 -0.331794,-0.95937 -0.398767,-1.49934 -0.06697,-0.53998 -0.322277,-1.20333 -0.567341,-1.47412 -0.455714,-0.50356 -0.361733,-1.30581 0.152971,-1.30581 0.157513,0 0.467412,0.38695 0.688664,0.8599 0.221252,0.47294 0.627781,1.27661 0.903398,1.78593 0.275617,0.50933 0.629116,1.37338 0.785554,1.92012 0.156438,0.54674 0.705191,1.41483 1.219452,1.92909 0.812755,0.81276 1.951187,2.82233 2.109665,3.72401 0.04904,0.27901 0.190737,0.61982 1.26814,3.0501 0.235545,0.53132 0.428264,1.09537 0.428264,1.25346 0,0.15808 0.487133,0.59493 1.082519,0.97078 1.044442,0.65933 1.066267,0.70133 0.620451,1.19395 -0.66196,0.73146 -1.123939,0.63747 -2.13475,-0.4343 z M 88.96705,118.1906 c -0.23803,-0.28681 -0.857881,-1.6046 -0.960426,-2.04185 -0.198731,-0.84738 -1.22307,-3.07298 -1.935297,-4.20485 -0.647466,-1.02896 -0.808483,-1.48191 -0.577533,-1.62465 0.69068,-0.42686 3.0272,2.51389 3.330352,4.19159 0.07075,0.39153 0.403199,1.3922 0.738782,2.22372 0.335583,0.83152 0.546343,1.57566 0.468356,1.65365 -0.249585,0.24958 -0.773895,0.15223 -1.064234,-0.19761 z m 30.98344,-10.22928 c -0.46813,-0.28897 -1.71829,-1.22391 -2.77812,-2.07763 -1.05984,-0.85372 -2.87947,-2.15973 -4.04364,-2.90223 -3.20614,-2.04488 -5.57374,-5.363844 -4.76259,-6.676311 0.0593,-0.09592 -0.0746,-0.760266 -0.2974,-1.476332 -0.58858,-1.891213 -0.58623,-1.873682 -0.60831,-4.543085 -0.0229,-2.768539 -0.61683,-3.545978 -0.96011,-1.256771 -0.19749,1.316954 -1.14627,1.70727 -1.68826,0.694534 -0.42039,-0.785501 -0.75791,-4.214127 -0.44559,-4.526444 0.18246,-0.182454 0.16688,-0.371388 -0.0484,-0.586632 -0.46334,-0.463343 -0.39677,-2.475847 0.0983,-2.970893 1.07979,-1.079797 2.93727,0.796001 2.70339,2.730061 -0.10707,0.885443 0.39645,0.962833 1.14322,0.175713 0.89797,-0.946488 2.12001,-0.502999 1.32898,0.4823 -0.68384,0.851792 -0.9912,6.101521 -0.42474,7.254604 0.19333,0.393529 0.41122,1.251288 0.48421,1.906132 0.40293,3.615094 1.26696,5.076136 4.08543,6.908294 1.12073,0.72853 3.11091,2.31211 4.42263,3.51906 1.31172,1.20695 2.77783,2.39763 3.25802,2.64595 0.4802,0.24832 0.82654,0.59333 0.76966,0.7667 -0.17231,0.52513 -1.33379,0.49033 -2.23669,-0.067 z m 2.37149,-3.03 c -1.17347,-1.06016 -1.101,-0.82813 -1.24821,-3.99611 -0.0609,-1.309687 -0.19168,-3.631405 -0.2907,-5.159374 -0.099,-1.527969 -0.15995,-4.087813 -0.13541,-5.688542 0.0992,-6.47167 0.0576,-6.616165 -1.45563,-5.058016 -0.52816,0.543836 -1.02091,0.928181 -1.095,0.854098 -0.54109,-0.541092 1.98664,-3.865874 2.93911,-3.865874 0.75483,0 0.89559,0.903795 0.90659,5.820834 0.0257,11.48808 0.53541,15.838264 1.92309,16.413064 0.87742,0.36343 0.8907,0.68613 0.0512,1.24354 -0.51173,0.33977 -0.64866,0.29139 -1.59505,-0.56362 z m 1.34738,-16.36538 c -0.26549,-0.425786 -0.3586,-1.540606 -0.17126,-2.050521 0.0802,-0.218281 0.1235,-1.005575 0.0962,-1.749542 -0.0563,-1.537256 0.42186,-2.257247 1.3776,-2.074217 0.76036,0.145614 1.25366,0.824485 1.25366,1.725265 0,0.390931 0.1786,0.859003 0.39688,1.040161 0.4825,0.400436 0.53636,1.417027 0.0661,1.248426 -0.58257,-0.208891 -1.2057,0.308679 -1.52068,1.263084 -0.3156,0.956268 -1.08384,1.262494 -1.49858,0.597344 z"
      id="path1" />
  </g>
</svg>